ISO-10303-21;
HEADER;
FILE_DESCRIPTION(('FreeCAD Model'),'2;1');
FILE_NAME('Open CASCADE Shape Model','2026-09-13T17:18:38',('FreeCAD'),(
    'FreeCAD'),'Open CASCADE STEP processor 7.8','FreeCAD','Unknown');
FILE_SCHEMA(('AUTOMOTIVE_DESIGN { 1 0 10303 214 1 1 1 1 }'));
ENDSEC;
DATA;
#1 = APPLICATION_PROTOCOL_DEFINITION('international standard',
  'automotive_design',2000,#2);
#2 = APPLICATION_CONTEXT(
  'core data for automotive mechanical design processes');
#3 = SHAPE_DEFINITION_REPRESENTATION(#4,#10);
#4 = PRODUCT_DEFINITION_SHAPE('','',#5);
#5 = PRODUCT_DEFINITION('design','',#6,#9);
#6 = PRODUCT_DEFINITION_FORMATION('','',#7);
#7 = PRODUCT('Open CASCADE STEP translator 7.8 2',
  'Open CASCADE STEP translator 7.8 2','',(#8));
#8 = PRODUCT_CONTEXT('',#2,'mechanical');
#9 = PRODUCT_DEFINITION_CONTEXT('part definition',#2,'design');
#10 = ADVANCED_BREP_SHAPE_REPRESENTATION('',(#11,#15),#1553);
#11 = AXIS2_PLACEMENT_3D('',#12,#13,#14);
#12 = CARTESIAN_POINT('',(0.,0.,0.));
#13 = DIRECTION('',(0.,0.,1.));
#14 = DIRECTION('',(1.,0.,-0.));
#15 = MANIFOLD_SOLID_BREP('',#16);
#16 = CLOSED_SHELL('',(#17,#57,#88,#260,#284,#378,#390,#407,#424,#441,
    #458,#496,#535,#567,#591,#622,#652,#675,#692,#709,#726,#751,#766,
    #780,#848,#879,#903,#943,#968,#993,#1018,#1084,#1133,#1211,#1242,
    #1266,#1290,#1307,#1331,#1399,#1416,#1428,#1445,#1462,#1479,#1496,
    #1519,#1544));
#17 = ADVANCED_FACE('',(#18),#52,.F.);
#18 = FACE_BOUND('',#19,.F.);
#19 = EDGE_LOOP('',(#20,#30,#38,#46));
#20 = ORIENTED_EDGE('',*,*,#21,.F.);
#21 = EDGE_CURVE('',#22,#24,#26,.T.);
#22 = VERTEX_POINT('',#23);
#23 = CARTESIAN_POINT('',(-18.,-18.,0.));
#24 = VERTEX_POINT('',#25);
#25 = CARTESIAN_POINT('',(-18.,-18.,8.));
#26 = LINE('',#27,#28);
#27 = CARTESIAN_POINT('',(-18.,-18.,0.));
#28 = VECTOR('',#29,1.);
#29 = DIRECTION('',(0.,0.,1.));
#30 = ORIENTED_EDGE('',*,*,#31,.T.);
#31 = EDGE_CURVE('',#22,#32,#34,.T.);
#32 = VERTEX_POINT('',#33);
#33 = CARTESIAN_POINT('',(-18.,18.,0.));
#34 = LINE('',#35,#36);
#35 = CARTESIAN_POINT('',(-18.,-18.,0.));
#36 = VECTOR('',#37,1.);
#37 = DIRECTION('',(0.,1.,0.));
#38 = ORIENTED_EDGE('',*,*,#39,.T.);
#39 = EDGE_CURVE('',#32,#40,#42,.T.);
#40 = VERTEX_POINT('',#41);
#41 = CARTESIAN_POINT('',(-18.,18.,8.));
#42 = LINE('',#43,#44);
#43 = CARTESIAN_POINT('',(-18.,18.,0.));
#44 = VECTOR('',#45,1.);
#45 = DIRECTION('',(0.,0.,1.));
#46 = ORIENTED_EDGE('',*,*,#47,.F.);
#47 = EDGE_CURVE('',#24,#40,#48,.T.);
#48 = LINE('',#49,#50);
#49 = CARTESIAN_POINT('',(-18.,-18.,8.));
#50 = VECTOR('',#51,1.);
#51 = DIRECTION('',(0.,1.,0.));
#52 = PLANE('',#53);
#53 = AXIS2_PLACEMENT_3D('',#54,#55,#56);
#54 = CARTESIAN_POINT('',(-18.,-18.,0.));
#55 = DIRECTION('',(1.,0.,0.));
#56 = DIRECTION('',(0.,0.,1.));
#57 = ADVANCED_FACE('',(#58),#83,.F.);
#58 = FACE_BOUND('',#59,.F.);
#59 = EDGE_LOOP('',(#60,#68,#69,#77));
#60 = ORIENTED_EDGE('',*,*,#61,.F.);
#61 = EDGE_CURVE('',#22,#62,#64,.T.);
#62 = VERTEX_POINT('',#63);
#63 = CARTESIAN_POINT('',(18.,-18.,0.));
#64 = LINE('',#65,#66);
#65 = CARTESIAN_POINT('',(-18.,-18.,0.));
#66 = VECTOR('',#67,1.);
#67 = DIRECTION('',(1.,0.,0.));
#68 = ORIENTED_EDGE('',*,*,#21,.T.);
#69 = ORIENTED_EDGE('',*,*,#70,.T.);
#70 = EDGE_CURVE('',#24,#71,#73,.T.);
#71 = VERTEX_POINT('',#72);
#72 = CARTESIAN_POINT('',(18.,-18.,8.));
#73 = LINE('',#74,#75);
#74 = CARTESIAN_POINT('',(-18.,-18.,8.));
#75 = VECTOR('',#76,1.);
#76 = DIRECTION('',(1.,0.,0.));
#77 = ORIENTED_EDGE('',*,*,#78,.F.);
#78 = EDGE_CURVE('',#62,#71,#79,.T.);
#79 = LINE('',#80,#81);
#80 = CARTESIAN_POINT('',(18.,-18.,0.));
#81 = VECTOR('',#82,1.);
#82 = DIRECTION('',(0.,0.,1.));
#83 = PLANE('',#84);
#84 = AXIS2_PLACEMENT_3D('',#85,#86,#87);
#85 = CARTESIAN_POINT('',(-18.,-18.,0.));
#86 = DIRECTION('',(0.,1.,0.));
#87 = DIRECTION('',(0.,0.,1.));
#88 = ADVANCED_FACE('',(#89,#107,#118,#129,#140,#151,#233,#244),#255,.T.
  );
#89 = FACE_BOUND('',#90,.T.);
#90 = EDGE_LOOP('',(#91,#92,#93,#101));
#91 = ORIENTED_EDGE('',*,*,#47,.F.);
#92 = ORIENTED_EDGE('',*,*,#70,.T.);
#93 = ORIENTED_EDGE('',*,*,#94,.T.);
#94 = EDGE_CURVE('',#71,#95,#97,.T.);
#95 = VERTEX_POINT('',#96);
#96 = CARTESIAN_POINT('',(18.,18.,8.));
#97 = LINE('',#98,#99);
#98 = CARTESIAN_POINT('',(18.,-18.,8.));
#99 = VECTOR('',#100,1.);
#100 = DIRECTION('',(0.,1.,0.));
#101 = ORIENTED_EDGE('',*,*,#102,.F.);
#102 = EDGE_CURVE('',#40,#95,#103,.T.);
#103 = LINE('',#104,#105);
#104 = CARTESIAN_POINT('',(-18.,18.,8.));
#105 = VECTOR('',#106,1.);
#106 = DIRECTION('',(1.,0.,0.));
#107 = FACE_BOUND('',#108,.T.);
#108 = EDGE_LOOP('',(#109));
#109 = ORIENTED_EDGE('',*,*,#110,.F.);
#110 = EDGE_CURVE('',#111,#111,#113,.T.);
#111 = VERTEX_POINT('',#112);
#112 = CARTESIAN_POINT('',(-10.3,-12.,8.));
#113 = CIRCLE('',#114,1.7);
#114 = AXIS2_PLACEMENT_3D('',#115,#116,#117);
#115 = CARTESIAN_POINT('',(-12.,-12.,8.));
#116 = DIRECTION('',(0.,0.,1.));
#117 = DIRECTION('',(1.,0.,0.));
#118 = FACE_BOUND('',#119,.T.);
#119 = EDGE_LOOP('',(#120));
#120 = ORIENTED_EDGE('',*,*,#121,.F.);
#121 = EDGE_CURVE('',#122,#122,#124,.T.);
#122 = VERTEX_POINT('',#123);
#123 = CARTESIAN_POINT('',(13.7,-12.,8.));
#124 = CIRCLE('',#125,1.7);
#125 = AXIS2_PLACEMENT_3D('',#126,#127,#128);
#126 = CARTESIAN_POINT('',(12.,-12.,8.));
#127 = DIRECTION('',(0.,0.,1.));
#128 = DIRECTION('',(1.,0.,0.));
#129 = FACE_BOUND('',#130,.T.);
#130 = EDGE_LOOP('',(#131));
#131 = ORIENTED_EDGE('',*,*,#132,.F.);
#132 = EDGE_CURVE('',#133,#133,#135,.T.);
#133 = VERTEX_POINT('',#134);
#134 = CARTESIAN_POINT('',(-13.,-2.449293598295E-16,8.));
#135 = CIRCLE('',#136,1.);
#136 = AXIS2_PLACEMENT_3D('',#137,#138,#139);
#137 = CARTESIAN_POINT('',(-14.,0.,8.));
#138 = DIRECTION('',(0.,0.,1.));
#139 = DIRECTION('',(1.,0.,0.));
#140 = FACE_BOUND('',#141,.T.);
#141 = EDGE_LOOP('',(#142));
#142 = ORIENTED_EDGE('',*,*,#143,.F.);
#143 = EDGE_CURVE('',#144,#144,#146,.T.);
#144 = VERTEX_POINT('',#145);
#145 = CARTESIAN_POINT('',(-10.3,12.,8.));
#146 = CIRCLE('',#147,1.7);
#147 = AXIS2_PLACEMENT_3D('',#148,#149,#150);
#148 = CARTESIAN_POINT('',(-12.,12.,8.));
#149 = DIRECTION('',(0.,0.,1.));
#150 = DIRECTION('',(1.,0.,0.));
#151 = FACE_BOUND('',#152,.T.);
#152 = EDGE_LOOP('',(#153,#163,#171,#179,#187,#195,#203,#211,#219,#227)
  );
#153 = ORIENTED_EDGE('',*,*,#154,.F.);
#154 = EDGE_CURVE('',#155,#157,#159,.T.);
#155 = VERTEX_POINT('',#156);
#156 = CARTESIAN_POINT('',(-11.1,-5.9,8.));
#157 = VERTEX_POINT('',#158);
#158 = CARTESIAN_POINT('',(-4.706601717798,-5.9,8.));
#159 = LINE('',#160,#161);
#160 = CARTESIAN_POINT('',(-11.1,-5.9,8.));
#161 = VECTOR('',#162,1.);
#162 = DIRECTION('',(1.,0.,0.));
#163 = ORIENTED_EDGE('',*,*,#164,.T.);
#164 = EDGE_CURVE('',#155,#165,#167,.T.);
#165 = VERTEX_POINT('',#166);
#166 = CARTESIAN_POINT('',(-11.1,5.9,8.));
#167 = LINE('',#168,#169);
#168 = CARTESIAN_POINT('',(-11.1,-5.9,8.));
#169 = VECTOR('',#170,1.);
#170 = DIRECTION('',(0.,1.,0.));
#171 = ORIENTED_EDGE('',*,*,#172,.T.);
#172 = EDGE_CURVE('',#165,#173,#175,.T.);
#173 = VERTEX_POINT('',#174);
#174 = CARTESIAN_POINT('',(-4.706601717798,5.9,8.));
#175 = LINE('',#176,#177);
#176 = CARTESIAN_POINT('',(-11.1,5.9,8.));
#177 = VECTOR('',#178,1.);
#178 = DIRECTION('',(1.,0.,0.));
#179 = ORIENTED_EDGE('',*,*,#180,.T.);
#180 = EDGE_CURVE('',#173,#181,#183,.T.);
#181 = VERTEX_POINT('',#182);
#182 = CARTESIAN_POINT('',(0.,10.606601717798,8.));
#183 = LINE('',#184,#185);
#184 = CARTESIAN_POINT('',(-10.60660171779,0.,8.));
#185 = VECTOR('',#186,1.);
#186 = DIRECTION('',(0.707106781187,0.707106781187,0.));
#187 = ORIENTED_EDGE('',*,*,#188,.F.);
#188 = EDGE_CURVE('',#189,#181,#191,.T.);
#189 = VERTEX_POINT('',#190);
#190 = CARTESIAN_POINT('',(4.706601717798,5.9,8.));
#191 = LINE('',#192,#193);
#192 = CARTESIAN_POINT('',(10.606601717798,0.,8.));
#193 = VECTOR('',#194,1.);
#194 = DIRECTION('',(-0.707106781187,0.707106781187,0.));
#195 = ORIENTED_EDGE('',*,*,#196,.T.);
#196 = EDGE_CURVE('',#189,#197,#199,.T.);
#197 = VERTEX_POINT('',#198);
#198 = CARTESIAN_POINT('',(11.1,5.9,8.));
#199 = LINE('',#200,#201);
#200 = CARTESIAN_POINT('',(-11.1,5.9,8.));
#201 = VECTOR('',#202,1.);
#202 = DIRECTION('',(1.,0.,0.));
#203 = ORIENTED_EDGE('',*,*,#204,.F.);
#204 = EDGE_CURVE('',#205,#197,#207,.T.);
#205 = VERTEX_POINT('',#206);
#206 = CARTESIAN_POINT('',(11.1,-5.9,8.));
#207 = LINE('',#208,#209);
#208 = CARTESIAN_POINT('',(11.1,-5.9,8.));
#209 = VECTOR('',#210,1.);
#210 = DIRECTION('',(0.,1.,0.));
#211 = ORIENTED_EDGE('',*,*,#212,.F.);
#212 = EDGE_CURVE('',#213,#205,#215,.T.);
#213 = VERTEX_POINT('',#214);
#214 = CARTESIAN_POINT('',(4.706601717798,-5.9,8.));
#215 = LINE('',#216,#217);
#216 = CARTESIAN_POINT('',(-11.1,-5.9,8.));
#217 = VECTOR('',#218,1.);
#218 = DIRECTION('',(1.,0.,0.));
#219 = ORIENTED_EDGE('',*,*,#220,.F.);
#220 = EDGE_CURVE('',#221,#213,#223,.T.);
#221 = VERTEX_POINT('',#222);
#222 = CARTESIAN_POINT('',(0.,-10.60660171779,8.));
#223 = LINE('',#224,#225);
#224 = CARTESIAN_POINT('',(0.,-10.60660171779,8.));
#225 = VECTOR('',#226,1.);
#226 = DIRECTION('',(0.707106781187,0.707106781187,0.));
#227 = ORIENTED_EDGE('',*,*,#228,.T.);
#228 = EDGE_CURVE('',#221,#157,#229,.T.);
#229 = LINE('',#230,#231);
#230 = CARTESIAN_POINT('',(0.,-10.60660171779,8.));
#231 = VECTOR('',#232,1.);
#232 = DIRECTION('',(-0.707106781187,0.707106781187,0.));
#233 = FACE_BOUND('',#234,.T.);
#234 = EDGE_LOOP('',(#235));
#235 = ORIENTED_EDGE('',*,*,#236,.F.);
#236 = EDGE_CURVE('',#237,#237,#239,.T.);
#237 = VERTEX_POINT('',#238);
#238 = CARTESIAN_POINT('',(15.,-2.449293598295E-16,8.));
#239 = CIRCLE('',#240,1.);
#240 = AXIS2_PLACEMENT_3D('',#241,#242,#243);
#241 = CARTESIAN_POINT('',(14.,0.,8.));
#242 = DIRECTION('',(0.,0.,1.));
#243 = DIRECTION('',(1.,0.,0.));
#244 = FACE_BOUND('',#245,.T.);
#245 = EDGE_LOOP('',(#246));
#246 = ORIENTED_EDGE('',*,*,#247,.F.);
#247 = EDGE_CURVE('',#248,#248,#250,.T.);
#248 = VERTEX_POINT('',#249);
#249 = CARTESIAN_POINT('',(13.7,12.,8.));
#250 = CIRCLE('',#251,1.7);
#251 = AXIS2_PLACEMENT_3D('',#252,#253,#254);
#252 = CARTESIAN_POINT('',(12.,12.,8.));
#253 = DIRECTION('',(0.,0.,1.));
#254 = DIRECTION('',(1.,0.,0.));
#255 = PLANE('',#256);
#256 = AXIS2_PLACEMENT_3D('',#257,#258,#259);
#257 = CARTESIAN_POINT('',(-18.,-18.,8.));
#258 = DIRECTION('',(0.,0.,1.));
#259 = DIRECTION('',(1.,0.,0.));
#260 = ADVANCED_FACE('',(#261),#279,.T.);
#261 = FACE_BOUND('',#262,.T.);
#262 = EDGE_LOOP('',(#263,#271,#272,#273));
#263 = ORIENTED_EDGE('',*,*,#264,.F.);
#264 = EDGE_CURVE('',#32,#265,#267,.T.);
#265 = VERTEX_POINT('',#266);
#266 = CARTESIAN_POINT('',(18.,18.,0.));
#267 = LINE('',#268,#269);
#268 = CARTESIAN_POINT('',(-18.,18.,0.));
#269 = VECTOR('',#270,1.);
#270 = DIRECTION('',(1.,0.,0.));
#271 = ORIENTED_EDGE('',*,*,#39,.T.);
#272 = ORIENTED_EDGE('',*,*,#102,.T.);
#273 = ORIENTED_EDGE('',*,*,#274,.F.);
#274 = EDGE_CURVE('',#265,#95,#275,.T.);
#275 = LINE('',#276,#277);
#276 = CARTESIAN_POINT('',(18.,18.,0.));
#277 = VECTOR('',#278,1.);
#278 = DIRECTION('',(0.,0.,1.));
#279 = PLANE('',#280);
#280 = AXIS2_PLACEMENT_3D('',#281,#282,#283);
#281 = CARTESIAN_POINT('',(-18.,18.,0.));
#282 = DIRECTION('',(0.,1.,0.));
#283 = DIRECTION('',(0.,0.,1.));
#284 = ADVANCED_FACE('',(#285,#296,#307,#318,#329,#340,#351,#362),#373,
  .F.);
#285 = FACE_BOUND('',#286,.F.);
#286 = EDGE_LOOP('',(#287,#288,#289,#295));
#287 = ORIENTED_EDGE('',*,*,#31,.F.);
#288 = ORIENTED_EDGE('',*,*,#61,.T.);
#289 = ORIENTED_EDGE('',*,*,#290,.T.);
#290 = EDGE_CURVE('',#62,#265,#291,.T.);
#291 = LINE('',#292,#293);
#292 = CARTESIAN_POINT('',(18.,-18.,0.));
#293 = VECTOR('',#294,1.);
#294 = DIRECTION('',(0.,1.,0.));
#295 = ORIENTED_EDGE('',*,*,#264,.F.);
#296 = FACE_BOUND('',#297,.F.);
#297 = EDGE_LOOP('',(#298));
#298 = ORIENTED_EDGE('',*,*,#299,.F.);
#299 = EDGE_CURVE('',#300,#300,#302,.T.);
#300 = VERTEX_POINT('',#301);
#301 = CARTESIAN_POINT('',(-10.3,-12.,0.));
#302 = CIRCLE('',#303,1.7);
#303 = AXIS2_PLACEMENT_3D('',#304,#305,#306);
#304 = CARTESIAN_POINT('',(-12.,-12.,0.));
#305 = DIRECTION('',(0.,0.,1.));
#306 = DIRECTION('',(1.,0.,0.));
#307 = FACE_BOUND('',#308,.F.);
#308 = EDGE_LOOP('',(#309));
#309 = ORIENTED_EDGE('',*,*,#310,.F.);
#310 = EDGE_CURVE('',#311,#311,#313,.T.);
#311 = VERTEX_POINT('',#312);
#312 = CARTESIAN_POINT('',(13.7,-12.,0.));
#313 = CIRCLE('',#314,1.7);
#314 = AXIS2_PLACEMENT_3D('',#315,#316,#317);
#315 = CARTESIAN_POINT('',(12.,-12.,0.));
#316 = DIRECTION('',(0.,0.,1.));
#317 = DIRECTION('',(1.,0.,0.));
#318 = FACE_BOUND('',#319,.F.);
#319 = EDGE_LOOP('',(#320));
#320 = ORIENTED_EDGE('',*,*,#321,.F.);
#321 = EDGE_CURVE('',#322,#322,#324,.T.);
#322 = VERTEX_POINT('',#323);
#323 = CARTESIAN_POINT('',(-13.,-2.449293598295E-16,0.));
#324 = CIRCLE('',#325,1.);
#325 = AXIS2_PLACEMENT_3D('',#326,#327,#328);
#326 = CARTESIAN_POINT('',(-14.,0.,0.));
#327 = DIRECTION('',(0.,0.,1.));
#328 = DIRECTION('',(1.,0.,0.));
#329 = FACE_BOUND('',#330,.F.);
#330 = EDGE_LOOP('',(#331));
#331 = ORIENTED_EDGE('',*,*,#332,.F.);
#332 = EDGE_CURVE('',#333,#333,#335,.T.);
#333 = VERTEX_POINT('',#334);
#334 = CARTESIAN_POINT('',(-10.3,12.,0.));
#335 = CIRCLE('',#336,1.7);
#336 = AXIS2_PLACEMENT_3D('',#337,#338,#339);
#337 = CARTESIAN_POINT('',(-12.,12.,0.));
#338 = DIRECTION('',(0.,0.,1.));
#339 = DIRECTION('',(1.,0.,0.));
#340 = FACE_BOUND('',#341,.F.);
#341 = EDGE_LOOP('',(#342));
#342 = ORIENTED_EDGE('',*,*,#343,.F.);
#343 = EDGE_CURVE('',#344,#344,#346,.T.);
#344 = VERTEX_POINT('',#345);
#345 = CARTESIAN_POINT('',(3.,-7.347880794884E-16,0.));
#346 = CIRCLE('',#347,3.);
#347 = AXIS2_PLACEMENT_3D('',#348,#349,#350);
#348 = CARTESIAN_POINT('',(0.,0.,0.));
#349 = DIRECTION('',(0.,0.,1.));
#350 = DIRECTION('',(1.,0.,0.));
#351 = FACE_BOUND('',#352,.F.);
#352 = EDGE_LOOP('',(#353));
#353 = ORIENTED_EDGE('',*,*,#354,.F.);
#354 = EDGE_CURVE('',#355,#355,#357,.T.);
#355 = VERTEX_POINT('',#356);
#356 = CARTESIAN_POINT('',(15.,-2.449293598295E-16,0.));
#357 = CIRCLE('',#358,1.);
#358 = AXIS2_PLACEMENT_3D('',#359,#360,#361);
#359 = CARTESIAN_POINT('',(14.,0.,0.));
#360 = DIRECTION('',(0.,0.,1.));
#361 = DIRECTION('',(1.,0.,0.));
#362 = FACE_BOUND('',#363,.F.);
#363 = EDGE_LOOP('',(#364));
#364 = ORIENTED_EDGE('',*,*,#365,.F.);
#365 = EDGE_CURVE('',#366,#366,#368,.T.);
#366 = VERTEX_POINT('',#367);
#367 = CARTESIAN_POINT('',(13.7,12.,0.));
#368 = CIRCLE('',#369,1.7);
#369 = AXIS2_PLACEMENT_3D('',#370,#371,#372);
#370 = CARTESIAN_POINT('',(12.,12.,0.));
#371 = DIRECTION('',(0.,0.,1.));
#372 = DIRECTION('',(1.,0.,0.));
#373 = PLANE('',#374);
#374 = AXIS2_PLACEMENT_3D('',#375,#376,#377);
#375 = CARTESIAN_POINT('',(-18.,-18.,0.));
#376 = DIRECTION('',(0.,0.,1.));
#377 = DIRECTION('',(1.,0.,0.));
#378 = ADVANCED_FACE('',(#379),#385,.T.);
#379 = FACE_BOUND('',#380,.T.);
#380 = EDGE_LOOP('',(#381,#382,#383,#384));
#381 = ORIENTED_EDGE('',*,*,#78,.F.);
#382 = ORIENTED_EDGE('',*,*,#290,.T.);
#383 = ORIENTED_EDGE('',*,*,#274,.T.);
#384 = ORIENTED_EDGE('',*,*,#94,.F.);
#385 = PLANE('',#386);
#386 = AXIS2_PLACEMENT_3D('',#387,#388,#389);
#387 = CARTESIAN_POINT('',(18.,-18.,0.));
#388 = DIRECTION('',(1.,0.,0.));
#389 = DIRECTION('',(0.,0.,1.));
#390 = ADVANCED_FACE('',(#391),#402,.F.);
#391 = FACE_BOUND('',#392,.F.);
#392 = EDGE_LOOP('',(#393,#394,#400,#401));
#393 = ORIENTED_EDGE('',*,*,#110,.F.);
#394 = ORIENTED_EDGE('',*,*,#395,.F.);
#395 = EDGE_CURVE('',#300,#111,#396,.T.);
#396 = LINE('',#397,#398);
#397 = CARTESIAN_POINT('',(-10.3,-12.,0.));
#398 = VECTOR('',#399,1.);
#399 = DIRECTION('',(0.,0.,1.));
#400 = ORIENTED_EDGE('',*,*,#299,.T.);
#401 = ORIENTED_EDGE('',*,*,#395,.T.);
#402 = CYLINDRICAL_SURFACE('',#403,1.7);
#403 = AXIS2_PLACEMENT_3D('',#404,#405,#406);
#404 = CARTESIAN_POINT('',(-12.,-12.,0.));
#405 = DIRECTION('',(0.,0.,1.));
#406 = DIRECTION('',(1.,0.,0.));
#407 = ADVANCED_FACE('',(#408),#419,.F.);
#408 = FACE_BOUND('',#409,.F.);
#409 = EDGE_LOOP('',(#410,#411,#417,#418));
#410 = ORIENTED_EDGE('',*,*,#121,.F.);
#411 = ORIENTED_EDGE('',*,*,#412,.F.);
#412 = EDGE_CURVE('',#311,#122,#413,.T.);
#413 = LINE('',#414,#415);
#414 = CARTESIAN_POINT('',(13.7,-12.,0.));
#415 = VECTOR('',#416,1.);
#416 = DIRECTION('',(0.,0.,1.));
#417 = ORIENTED_EDGE('',*,*,#310,.T.);
#418 = ORIENTED_EDGE('',*,*,#412,.T.);
#419 = CYLINDRICAL_SURFACE('',#420,1.7);
#420 = AXIS2_PLACEMENT_3D('',#421,#422,#423);
#421 = CARTESIAN_POINT('',(12.,-12.,0.));
#422 = DIRECTION('',(0.,0.,1.));
#423 = DIRECTION('',(1.,0.,0.));
#424 = ADVANCED_FACE('',(#425),#436,.F.);
#425 = FACE_BOUND('',#426,.F.);
#426 = EDGE_LOOP('',(#427,#428,#434,#435));
#427 = ORIENTED_EDGE('',*,*,#132,.F.);
#428 = ORIENTED_EDGE('',*,*,#429,.F.);
#429 = EDGE_CURVE('',#322,#133,#430,.T.);
#430 = LINE('',#431,#432);
#431 = CARTESIAN_POINT('',(-13.,-2.449293598295E-16,0.));
#432 = VECTOR('',#433,1.);
#433 = DIRECTION('',(0.,0.,1.));
#434 = ORIENTED_EDGE('',*,*,#321,.T.);
#435 = ORIENTED_EDGE('',*,*,#429,.T.);
#436 = CYLINDRICAL_SURFACE('',#437,1.);
#437 = AXIS2_PLACEMENT_3D('',#438,#439,#440);
#438 = CARTESIAN_POINT('',(-14.,0.,0.));
#439 = DIRECTION('',(0.,0.,1.));
#440 = DIRECTION('',(1.,0.,0.));
#441 = ADVANCED_FACE('',(#442),#453,.F.);
#442 = FACE_BOUND('',#443,.F.);
#443 = EDGE_LOOP('',(#444,#445,#451,#452));
#444 = ORIENTED_EDGE('',*,*,#143,.F.);
#445 = ORIENTED_EDGE('',*,*,#446,.F.);
#446 = EDGE_CURVE('',#333,#144,#447,.T.);
#447 = LINE('',#448,#449);
#448 = CARTESIAN_POINT('',(-10.3,12.,0.));
#449 = VECTOR('',#450,1.);
#450 = DIRECTION('',(0.,0.,1.));
#451 = ORIENTED_EDGE('',*,*,#332,.T.);
#452 = ORIENTED_EDGE('',*,*,#446,.T.);
#453 = CYLINDRICAL_SURFACE('',#454,1.7);
#454 = AXIS2_PLACEMENT_3D('',#455,#456,#457);
#455 = CARTESIAN_POINT('',(-12.,12.,0.));
#456 = DIRECTION('',(0.,0.,1.));
#457 = DIRECTION('',(1.,0.,0.));
#458 = ADVANCED_FACE('',(#459),#491,.T.);
#459 = FACE_BOUND('',#460,.T.);
#460 = EDGE_LOOP('',(#461,#471,#477,#478,#484,#485));
#461 = ORIENTED_EDGE('',*,*,#462,.F.);
#462 = EDGE_CURVE('',#463,#465,#467,.T.);
#463 = VERTEX_POINT('',#464);
#464 = CARTESIAN_POINT('',(-11.1,-5.9,2.));
#465 = VERTEX_POINT('',#466);
#466 = CARTESIAN_POINT('',(11.1,-5.9,2.));
#467 = LINE('',#468,#469);
#468 = CARTESIAN_POINT('',(-11.1,-5.9,2.));
#469 = VECTOR('',#470,1.);
#470 = DIRECTION('',(1.,0.,0.));
#471 = ORIENTED_EDGE('',*,*,#472,.T.);
#472 = EDGE_CURVE('',#463,#155,#473,.T.);
#473 = LINE('',#474,#475);
#474 = CARTESIAN_POINT('',(-11.1,-5.9,2.));
#475 = VECTOR('',#476,1.);
#476 = DIRECTION('',(0.,0.,1.));
#477 = ORIENTED_EDGE('',*,*,#154,.T.);
#478 = ORIENTED_EDGE('',*,*,#479,.T.);
#479 = EDGE_CURVE('',#157,#213,#480,.T.);
#480 = LINE('',#481,#482);
#481 = CARTESIAN_POINT('',(-11.1,-5.9,8.));
#482 = VECTOR('',#483,1.);
#483 = DIRECTION('',(1.,0.,0.));
#484 = ORIENTED_EDGE('',*,*,#212,.T.);
#485 = ORIENTED_EDGE('',*,*,#486,.F.);
#486 = EDGE_CURVE('',#465,#205,#487,.T.);
#487 = LINE('',#488,#489);
#488 = CARTESIAN_POINT('',(11.1,-5.9,2.));
#489 = VECTOR('',#490,1.);
#490 = DIRECTION('',(0.,0.,1.));
#491 = PLANE('',#492);
#492 = AXIS2_PLACEMENT_3D('',#493,#494,#495);
#493 = CARTESIAN_POINT('',(-11.1,-5.9,2.));
#494 = DIRECTION('',(0.,1.,0.));
#495 = DIRECTION('',(0.,0.,1.));
#496 = ADVANCED_FACE('',(#497),#530,.F.);
#497 = FACE_BOUND('',#498,.F.);
#498 = EDGE_LOOP('',(#499,#507,#508,#516,#524));
#499 = ORIENTED_EDGE('',*,*,#500,.F.);
#500 = EDGE_CURVE('',#221,#501,#503,.T.);
#501 = VERTEX_POINT('',#502);
#502 = CARTESIAN_POINT('',(0.,-10.60660171779,38.));
#503 = LINE('',#504,#505);
#504 = CARTESIAN_POINT('',(0.,-10.60660171779,8.));
#505 = VECTOR('',#506,1.);
#506 = DIRECTION('',(0.,0.,1.));
#507 = ORIENTED_EDGE('',*,*,#228,.T.);
#508 = ORIENTED_EDGE('',*,*,#509,.T.);
#509 = EDGE_CURVE('',#157,#510,#512,.T.);
#510 = VERTEX_POINT('',#511);
#511 = CARTESIAN_POINT('',(-10.60660171779,0.,8.));
#512 = LINE('',#513,#514);
#513 = CARTESIAN_POINT('',(0.,-10.60660171779,8.));
#514 = VECTOR('',#515,1.);
#515 = DIRECTION('',(-0.707106781187,0.707106781187,0.));
#516 = ORIENTED_EDGE('',*,*,#517,.T.);
#517 = EDGE_CURVE('',#510,#518,#520,.T.);
#518 = VERTEX_POINT('',#519);
#519 = CARTESIAN_POINT('',(-10.60660171779,0.,38.));
#520 = LINE('',#521,#522);
#521 = CARTESIAN_POINT('',(-10.60660171779,0.,8.));
#522 = VECTOR('',#523,1.);
#523 = DIRECTION('',(0.,0.,1.));
#524 = ORIENTED_EDGE('',*,*,#525,.F.);
#525 = EDGE_CURVE('',#501,#518,#526,.T.);
#526 = LINE('',#527,#528);
#527 = CARTESIAN_POINT('',(0.,-10.60660171779,38.));
#528 = VECTOR('',#529,1.);
#529 = DIRECTION('',(-0.707106781187,0.707106781187,0.));
#530 = PLANE('',#531);
#531 = AXIS2_PLACEMENT_3D('',#532,#533,#534);
#532 = CARTESIAN_POINT('',(0.,-10.60660171779,8.));
#533 = DIRECTION('',(0.707106781187,0.707106781187,0.));
#534 = DIRECTION('',(0.,0.,1.));
#535 = ADVANCED_FACE('',(#536),#562,.F.);
#536 = FACE_BOUND('',#537,.F.);
#537 = EDGE_LOOP('',(#538,#539,#540,#548,#556));
#538 = ORIENTED_EDGE('',*,*,#220,.F.);
#539 = ORIENTED_EDGE('',*,*,#500,.T.);
#540 = ORIENTED_EDGE('',*,*,#541,.T.);
#541 = EDGE_CURVE('',#501,#542,#544,.T.);
#542 = VERTEX_POINT('',#543);
#543 = CARTESIAN_POINT('',(10.606601717798,0.,38.));
#544 = LINE('',#545,#546);
#545 = CARTESIAN_POINT('',(0.,-10.60660171779,38.));
#546 = VECTOR('',#547,1.);
#547 = DIRECTION('',(0.707106781187,0.707106781187,0.));
#548 = ORIENTED_EDGE('',*,*,#549,.F.);
#549 = EDGE_CURVE('',#550,#542,#552,.T.);
#550 = VERTEX_POINT('',#551);
#551 = CARTESIAN_POINT('',(10.606601717798,0.,8.));
#552 = LINE('',#553,#554);
#553 = CARTESIAN_POINT('',(10.606601717798,0.,8.));
#554 = VECTOR('',#555,1.);
#555 = DIRECTION('',(0.,0.,1.));
#556 = ORIENTED_EDGE('',*,*,#557,.F.);
#557 = EDGE_CURVE('',#213,#550,#558,.T.);
#558 = LINE('',#559,#560);
#559 = CARTESIAN_POINT('',(0.,-10.60660171779,8.));
#560 = VECTOR('',#561,1.);
#561 = DIRECTION('',(0.707106781187,0.707106781187,0.));
#562 = PLANE('',#563);
#563 = AXIS2_PLACEMENT_3D('',#564,#565,#566);
#564 = CARTESIAN_POINT('',(0.,-10.60660171779,8.));
#565 = DIRECTION('',(-0.707106781187,0.707106781187,0.));
#566 = DIRECTION('',(0.,0.,1.));
#567 = ADVANCED_FACE('',(#568),#586,.F.);
#568 = FACE_BOUND('',#569,.F.);
#569 = EDGE_LOOP('',(#570,#571,#579,#585));
#570 = ORIENTED_EDGE('',*,*,#486,.F.);
#571 = ORIENTED_EDGE('',*,*,#572,.T.);
#572 = EDGE_CURVE('',#465,#573,#575,.T.);
#573 = VERTEX_POINT('',#574);
#574 = CARTESIAN_POINT('',(11.1,5.9,2.));
#575 = LINE('',#576,#577);
#576 = CARTESIAN_POINT('',(11.1,-5.9,2.));
#577 = VECTOR('',#578,1.);
#578 = DIRECTION('',(0.,1.,0.));
#579 = ORIENTED_EDGE('',*,*,#580,.T.);
#580 = EDGE_CURVE('',#573,#197,#581,.T.);
#581 = LINE('',#582,#583);
#582 = CARTESIAN_POINT('',(11.1,5.9,2.));
#583 = VECTOR('',#584,1.);
#584 = DIRECTION('',(0.,0.,1.));
#585 = ORIENTED_EDGE('',*,*,#204,.F.);
#586 = PLANE('',#587);
#587 = AXIS2_PLACEMENT_3D('',#588,#589,#590);
#588 = CARTESIAN_POINT('',(11.1,-5.9,2.));
#589 = DIRECTION('',(1.,0.,0.));
#590 = DIRECTION('',(0.,0.,1.));
#591 = ADVANCED_FACE('',(#592),#617,.F.);
#592 = FACE_BOUND('',#593,.F.);
#593 = EDGE_LOOP('',(#594,#602,#608,#609,#615,#616));
#594 = ORIENTED_EDGE('',*,*,#595,.F.);
#595 = EDGE_CURVE('',#596,#573,#598,.T.);
#596 = VERTEX_POINT('',#597);
#597 = CARTESIAN_POINT('',(-11.1,5.9,2.));
#598 = LINE('',#599,#600);
#599 = CARTESIAN_POINT('',(-11.1,5.9,2.));
#600 = VECTOR('',#601,1.);
#601 = DIRECTION('',(1.,0.,0.));
#602 = ORIENTED_EDGE('',*,*,#603,.T.);
#603 = EDGE_CURVE('',#596,#165,#604,.T.);
#604 = LINE('',#605,#606);
#605 = CARTESIAN_POINT('',(-11.1,5.9,2.));
#606 = VECTOR('',#607,1.);
#607 = DIRECTION('',(0.,0.,1.));
#608 = ORIENTED_EDGE('',*,*,#172,.T.);
#609 = ORIENTED_EDGE('',*,*,#610,.T.);
#610 = EDGE_CURVE('',#173,#189,#611,.T.);
#611 = LINE('',#612,#613);
#612 = CARTESIAN_POINT('',(-11.1,5.9,8.));
#613 = VECTOR('',#614,1.);
#614 = DIRECTION('',(1.,0.,0.));
#615 = ORIENTED_EDGE('',*,*,#196,.T.);
#616 = ORIENTED_EDGE('',*,*,#580,.F.);
#617 = PLANE('',#618);
#618 = AXIS2_PLACEMENT_3D('',#619,#620,#621);
#619 = CARTESIAN_POINT('',(-11.1,5.9,2.));
#620 = DIRECTION('',(0.,1.,0.));
#621 = DIRECTION('',(0.,0.,1.));
#622 = ADVANCED_FACE('',(#623),#647,.T.);
#623 = FACE_BOUND('',#624,.T.);
#624 = EDGE_LOOP('',(#625,#626,#632,#633,#641));
#625 = ORIENTED_EDGE('',*,*,#549,.F.);
#626 = ORIENTED_EDGE('',*,*,#627,.T.);
#627 = EDGE_CURVE('',#550,#189,#628,.T.);
#628 = LINE('',#629,#630);
#629 = CARTESIAN_POINT('',(10.606601717798,0.,8.));
#630 = VECTOR('',#631,1.);
#631 = DIRECTION('',(-0.707106781187,0.707106781187,0.));
#632 = ORIENTED_EDGE('',*,*,#188,.T.);
#633 = ORIENTED_EDGE('',*,*,#634,.T.);
#634 = EDGE_CURVE('',#181,#635,#637,.T.);
#635 = VERTEX_POINT('',#636);
#636 = CARTESIAN_POINT('',(0.,10.606601717798,38.));
#637 = LINE('',#638,#639);
#638 = CARTESIAN_POINT('',(0.,10.606601717798,8.));
#639 = VECTOR('',#640,1.);
#640 = DIRECTION('',(0.,0.,1.));
#641 = ORIENTED_EDGE('',*,*,#642,.F.);
#642 = EDGE_CURVE('',#542,#635,#643,.T.);
#643 = LINE('',#644,#645);
#644 = CARTESIAN_POINT('',(10.606601717798,0.,38.));
#645 = VECTOR('',#646,1.);
#646 = DIRECTION('',(-0.707106781187,0.707106781187,0.));
#647 = PLANE('',#648);
#648 = AXIS2_PLACEMENT_3D('',#649,#650,#651);
#649 = CARTESIAN_POINT('',(10.606601717798,0.,8.));
#650 = DIRECTION('',(0.707106781187,0.707106781187,0.));
#651 = DIRECTION('',(0.,0.,1.));
#652 = ADVANCED_FACE('',(#653),#670,.T.);
#653 = FACE_BOUND('',#654,.T.);
#654 = EDGE_LOOP('',(#655,#661,#662,#668,#669));
#655 = ORIENTED_EDGE('',*,*,#656,.F.);
#656 = EDGE_CURVE('',#510,#173,#657,.T.);
#657 = LINE('',#658,#659);
#658 = CARTESIAN_POINT('',(-10.60660171779,0.,8.));
#659 = VECTOR('',#660,1.);
#660 = DIRECTION('',(0.707106781187,0.707106781187,0.));
#661 = ORIENTED_EDGE('',*,*,#517,.T.);
#662 = ORIENTED_EDGE('',*,*,#663,.T.);
#663 = EDGE_CURVE('',#518,#635,#664,.T.);
#664 = LINE('',#665,#666);
#665 = CARTESIAN_POINT('',(-10.60660171779,0.,38.));
#666 = VECTOR('',#667,1.);
#667 = DIRECTION('',(0.707106781187,0.707106781187,0.));
#668 = ORIENTED_EDGE('',*,*,#634,.F.);
#669 = ORIENTED_EDGE('',*,*,#180,.F.);
#670 = PLANE('',#671);
#671 = AXIS2_PLACEMENT_3D('',#672,#673,#674);
#672 = CARTESIAN_POINT('',(-10.60660171779,0.,8.));
#673 = DIRECTION('',(-0.707106781187,0.707106781187,0.));
#674 = DIRECTION('',(0.,0.,1.));
#675 = ADVANCED_FACE('',(#676),#687,.T.);
#676 = FACE_BOUND('',#677,.T.);
#677 = EDGE_LOOP('',(#678,#679,#685,#686));
#678 = ORIENTED_EDGE('',*,*,#472,.F.);
#679 = ORIENTED_EDGE('',*,*,#680,.T.);
#680 = EDGE_CURVE('',#463,#596,#681,.T.);
#681 = LINE('',#682,#683);
#682 = CARTESIAN_POINT('',(-11.1,-5.9,2.));
#683 = VECTOR('',#684,1.);
#684 = DIRECTION('',(0.,1.,0.));
#685 = ORIENTED_EDGE('',*,*,#603,.T.);
#686 = ORIENTED_EDGE('',*,*,#164,.F.);
#687 = PLANE('',#688);
#688 = AXIS2_PLACEMENT_3D('',#689,#690,#691);
#689 = CARTESIAN_POINT('',(-11.1,-5.9,2.));
#690 = DIRECTION('',(1.,0.,0.));
#691 = DIRECTION('',(0.,0.,1.));
#692 = ADVANCED_FACE('',(#693),#704,.F.);
#693 = FACE_BOUND('',#694,.F.);
#694 = EDGE_LOOP('',(#695,#696,#702,#703));
#695 = ORIENTED_EDGE('',*,*,#236,.F.);
#696 = ORIENTED_EDGE('',*,*,#697,.F.);
#697 = EDGE_CURVE('',#355,#237,#698,.T.);
#698 = LINE('',#699,#700);
#699 = CARTESIAN_POINT('',(15.,-2.449293598295E-16,0.));
#700 = VECTOR('',#701,1.);
#701 = DIRECTION('',(0.,0.,1.));
#702 = ORIENTED_EDGE('',*,*,#354,.T.);
#703 = ORIENTED_EDGE('',*,*,#697,.T.);
#704 = CYLINDRICAL_SURFACE('',#705,1.);
#705 = AXIS2_PLACEMENT_3D('',#706,#707,#708);
#706 = CARTESIAN_POINT('',(14.,0.,0.));
#707 = DIRECTION('',(0.,0.,1.));
#708 = DIRECTION('',(1.,0.,0.));
#709 = ADVANCED_FACE('',(#710),#721,.F.);
#710 = FACE_BOUND('',#711,.F.);
#711 = EDGE_LOOP('',(#712,#713,#719,#720));
#712 = ORIENTED_EDGE('',*,*,#247,.F.);
#713 = ORIENTED_EDGE('',*,*,#714,.F.);
#714 = EDGE_CURVE('',#366,#248,#715,.T.);
#715 = LINE('',#716,#717);
#716 = CARTESIAN_POINT('',(13.7,12.,0.));
#717 = VECTOR('',#718,1.);
#718 = DIRECTION('',(0.,0.,1.));
#719 = ORIENTED_EDGE('',*,*,#365,.T.);
#720 = ORIENTED_EDGE('',*,*,#714,.T.);
#721 = CYLINDRICAL_SURFACE('',#722,1.7);
#722 = AXIS2_PLACEMENT_3D('',#723,#724,#725);
#723 = CARTESIAN_POINT('',(12.,12.,0.));
#724 = DIRECTION('',(0.,0.,1.));
#725 = DIRECTION('',(1.,0.,0.));
#726 = ADVANCED_FACE('',(#727),#746,.F.);
#727 = FACE_BOUND('',#728,.F.);
#728 = EDGE_LOOP('',(#729,#738,#744,#745));
#729 = ORIENTED_EDGE('',*,*,#730,.F.);
#730 = EDGE_CURVE('',#731,#731,#733,.T.);
#731 = VERTEX_POINT('',#732);
#732 = CARTESIAN_POINT('',(3.,-7.347880794884E-16,2.));
#733 = CIRCLE('',#734,3.);
#734 = AXIS2_PLACEMENT_3D('',#735,#736,#737);
#735 = CARTESIAN_POINT('',(0.,0.,2.));
#736 = DIRECTION('',(0.,0.,1.));
#737 = DIRECTION('',(1.,0.,0.));
#738 = ORIENTED_EDGE('',*,*,#739,.F.);
#739 = EDGE_CURVE('',#344,#731,#740,.T.);
#740 = LINE('',#741,#742);
#741 = CARTESIAN_POINT('',(3.,-7.347880794884E-16,0.));
#742 = VECTOR('',#743,1.);
#743 = DIRECTION('',(0.,0.,1.));
#744 = ORIENTED_EDGE('',*,*,#343,.T.);
#745 = ORIENTED_EDGE('',*,*,#739,.T.);
#746 = CYLINDRICAL_SURFACE('',#747,3.);
#747 = AXIS2_PLACEMENT_3D('',#748,#749,#750);
#748 = CARTESIAN_POINT('',(0.,0.,0.));
#749 = DIRECTION('',(0.,0.,1.));
#750 = DIRECTION('',(1.,0.,0.));
#751 = ADVANCED_FACE('',(#752,#758),#761,.T.);
#752 = FACE_BOUND('',#753,.T.);
#753 = EDGE_LOOP('',(#754,#755,#756,#757));
#754 = ORIENTED_EDGE('',*,*,#680,.F.);
#755 = ORIENTED_EDGE('',*,*,#462,.T.);
#756 = ORIENTED_EDGE('',*,*,#572,.T.);
#757 = ORIENTED_EDGE('',*,*,#595,.F.);
#758 = FACE_BOUND('',#759,.T.);
#759 = EDGE_LOOP('',(#760));
#760 = ORIENTED_EDGE('',*,*,#730,.F.);
#761 = PLANE('',#762);
#762 = AXIS2_PLACEMENT_3D('',#763,#764,#765);
#763 = CARTESIAN_POINT('',(-11.1,-5.9,2.));
#764 = DIRECTION('',(0.,0.,1.));
#765 = DIRECTION('',(1.,0.,0.));
#766 = ADVANCED_FACE('',(#767),#775,.F.);
#767 = FACE_BOUND('',#768,.F.);
#768 = EDGE_LOOP('',(#769,#770,#771,#772,#773,#774));
#769 = ORIENTED_EDGE('',*,*,#509,.F.);
#770 = ORIENTED_EDGE('',*,*,#479,.T.);
#771 = ORIENTED_EDGE('',*,*,#557,.T.);
#772 = ORIENTED_EDGE('',*,*,#627,.T.);
#773 = ORIENTED_EDGE('',*,*,#610,.F.);
#774 = ORIENTED_EDGE('',*,*,#656,.F.);
#775 = PLANE('',#776);
#776 = AXIS2_PLACEMENT_3D('',#777,#778,#779);
#777 = CARTESIAN_POINT('',(0.,-10.60660171779,8.));
#778 = DIRECTION('',(0.,0.,1.));
#779 = DIRECTION('',(0.707106781187,0.707106781187,0.));
#780 = ADVANCED_FACE('',(#781,#815,#826,#832),#843,.F.);
#781 = FACE_BOUND('',#782,.F.);
#782 = EDGE_LOOP('',(#783,#793,#801,#809));
#783 = ORIENTED_EDGE('',*,*,#784,.F.);
#784 = EDGE_CURVE('',#785,#787,#789,.T.);
#785 = VERTEX_POINT('',#786);
#786 = CARTESIAN_POINT('',(0.,-25.45584412271,38.));
#787 = VERTEX_POINT('',#788);
#788 = CARTESIAN_POINT('',(-25.45584412271,0.,38.));
#789 = LINE('',#790,#791);
#790 = CARTESIAN_POINT('',(0.,-25.45584412271,38.));
#791 = VECTOR('',#792,1.);
#792 = DIRECTION('',(-0.707106781187,0.707106781187,0.));
#793 = ORIENTED_EDGE('',*,*,#794,.T.);
#794 = EDGE_CURVE('',#785,#795,#797,.T.);
#795 = VERTEX_POINT('',#796);
#796 = CARTESIAN_POINT('',(25.455844122716,0.,38.));
#797 = LINE('',#798,#799);
#798 = CARTESIAN_POINT('',(0.,-25.45584412271,38.));
#799 = VECTOR('',#800,1.);
#800 = DIRECTION('',(0.707106781187,0.707106781187,0.));
#801 = ORIENTED_EDGE('',*,*,#802,.T.);
#802 = EDGE_CURVE('',#795,#803,#805,.T.);
#803 = VERTEX_POINT('',#804);
#804 = CARTESIAN_POINT('',(0.,25.455844122716,38.));
#805 = LINE('',#806,#807);
#806 = CARTESIAN_POINT('',(25.455844122716,0.,38.));
#807 = VECTOR('',#808,1.);
#808 = DIRECTION('',(-0.707106781187,0.707106781187,0.));
#809 = ORIENTED_EDGE('',*,*,#810,.F.);
#810 = EDGE_CURVE('',#787,#803,#811,.T.);
#811 = LINE('',#812,#813);
#812 = CARTESIAN_POINT('',(-25.45584412271,0.,38.));
#813 = VECTOR('',#814,1.);
#814 = DIRECTION('',(0.707106781187,0.707106781187,0.));
#815 = FACE_BOUND('',#816,.F.);
#816 = EDGE_LOOP('',(#817));
#817 = ORIENTED_EDGE('',*,*,#818,.F.);
#818 = EDGE_CURVE('',#819,#819,#821,.T.);
#819 = VERTEX_POINT('',#820);
#820 = CARTESIAN_POINT('',(-9.192388155425,-9.192388155425,38.));
#821 = CIRCLE('',#822,1.);
#822 = AXIS2_PLACEMENT_3D('',#823,#824,#825);
#823 = CARTESIAN_POINT('',(-9.899494936612,-9.899494936612,38.));
#824 = DIRECTION('',(0.,-0.,1.));
#825 = DIRECTION('',(0.707106781187,0.707106781187,0.));
#826 = FACE_BOUND('',#827,.F.);
#827 = EDGE_LOOP('',(#828,#829,#830,#831));
#828 = ORIENTED_EDGE('',*,*,#541,.F.);
#829 = ORIENTED_EDGE('',*,*,#525,.T.);
#830 = ORIENTED_EDGE('',*,*,#663,.T.);
#831 = ORIENTED_EDGE('',*,*,#642,.F.);
#832 = FACE_BOUND('',#833,.F.);
#833 = EDGE_LOOP('',(#834));
#834 = ORIENTED_EDGE('',*,*,#835,.F.);
#835 = EDGE_CURVE('',#836,#836,#838,.T.);
#836 = VERTEX_POINT('',#837);
#837 = CARTESIAN_POINT('',(10.606601717798,10.606601717798,38.));
#838 = CIRCLE('',#839,1.);
#839 = AXIS2_PLACEMENT_3D('',#840,#841,#842);
#840 = CARTESIAN_POINT('',(9.899494936612,9.899494936612,38.));
#841 = DIRECTION('',(0.,-0.,1.));
#842 = DIRECTION('',(0.707106781187,0.707106781187,0.));
#843 = PLANE('',#844);
#844 = AXIS2_PLACEMENT_3D('',#845,#846,#847);
#845 = CARTESIAN_POINT('',(0.,-25.45584412271,38.));
#846 = DIRECTION('',(0.,0.,1.));
#847 = DIRECTION('',(0.707106781187,0.707106781187,0.));
#848 = ADVANCED_FACE('',(#849),#874,.F.);
#849 = FACE_BOUND('',#850,.F.);
#850 = EDGE_LOOP('',(#851,#859,#860,#868));
#851 = ORIENTED_EDGE('',*,*,#852,.F.);
#852 = EDGE_CURVE('',#785,#853,#855,.T.);
#853 = VERTEX_POINT('',#854);
#854 = CARTESIAN_POINT('',(0.,-25.45584412271,46.));
#855 = LINE('',#856,#857);
#856 = CARTESIAN_POINT('',(0.,-25.45584412271,38.));
#857 = VECTOR('',#858,1.);
#858 = DIRECTION('',(0.,0.,1.));
#859 = ORIENTED_EDGE('',*,*,#784,.T.);
#860 = ORIENTED_EDGE('',*,*,#861,.T.);
#861 = EDGE_CURVE('',#787,#862,#864,.T.);
#862 = VERTEX_POINT('',#863);
#863 = CARTESIAN_POINT('',(-25.45584412271,0.,46.));
#864 = LINE('',#865,#866);
#865 = CARTESIAN_POINT('',(-25.45584412271,0.,38.));
#866 = VECTOR('',#867,1.);
#867 = DIRECTION('',(0.,0.,1.));
#868 = ORIENTED_EDGE('',*,*,#869,.F.);
#869 = EDGE_CURVE('',#853,#862,#870,.T.);
#870 = LINE('',#871,#872);
#871 = CARTESIAN_POINT('',(0.,-25.45584412271,46.));
#872 = VECTOR('',#873,1.);
#873 = DIRECTION('',(-0.707106781187,0.707106781187,0.));
#874 = PLANE('',#875);
#875 = AXIS2_PLACEMENT_3D('',#876,#877,#878);
#876 = CARTESIAN_POINT('',(0.,-25.45584412271,38.));
#877 = DIRECTION('',(0.707106781187,0.707106781187,0.));
#878 = DIRECTION('',(0.,0.,1.));
#879 = ADVANCED_FACE('',(#880),#898,.T.);
#880 = FACE_BOUND('',#881,.T.);
#881 = EDGE_LOOP('',(#882,#883,#884,#892));
#882 = ORIENTED_EDGE('',*,*,#810,.F.);
#883 = ORIENTED_EDGE('',*,*,#861,.T.);
#884 = ORIENTED_EDGE('',*,*,#885,.T.);
#885 = EDGE_CURVE('',#862,#886,#888,.T.);
#886 = VERTEX_POINT('',#887);
#887 = CARTESIAN_POINT('',(0.,25.455844122716,46.));
#888 = LINE('',#889,#890);
#889 = CARTESIAN_POINT('',(-25.45584412271,0.,46.));
#890 = VECTOR('',#891,1.);
#891 = DIRECTION('',(0.707106781187,0.707106781187,0.));
#892 = ORIENTED_EDGE('',*,*,#893,.F.);
#893 = EDGE_CURVE('',#803,#886,#894,.T.);
#894 = LINE('',#895,#896);
#895 = CARTESIAN_POINT('',(0.,25.455844122716,38.));
#896 = VECTOR('',#897,1.);
#897 = DIRECTION('',(0.,0.,1.));
#898 = PLANE('',#899);
#899 = AXIS2_PLACEMENT_3D('',#900,#901,#902);
#900 = CARTESIAN_POINT('',(-25.45584412271,0.,38.));
#901 = DIRECTION('',(-0.707106781187,0.707106781187,0.));
#902 = DIRECTION('',(0.,0.,1.));
#903 = ADVANCED_FACE('',(#904),#938,.F.);
#904 = FACE_BOUND('',#905,.F.);
#905 = EDGE_LOOP('',(#906,#914,#915,#916,#924,#932));
#906 = ORIENTED_EDGE('',*,*,#907,.F.);
#907 = EDGE_CURVE('',#795,#908,#910,.T.);
#908 = VERTEX_POINT('',#909);
#909 = CARTESIAN_POINT('',(25.455844122716,0.,38.535898384862));
#910 = LINE('',#911,#912);
#911 = CARTESIAN_POINT('',(25.455844122716,0.,38.));
#912 = VECTOR('',#913,1.);
#913 = DIRECTION('',(0.,0.,1.));
#914 = ORIENTED_EDGE('',*,*,#794,.F.);
#915 = ORIENTED_EDGE('',*,*,#852,.T.);
#916 = ORIENTED_EDGE('',*,*,#917,.T.);
#917 = EDGE_CURVE('',#853,#918,#920,.T.);
#918 = VERTEX_POINT('',#919);
#919 = CARTESIAN_POINT('',(23.334523779156,-2.12132034356,46.));
#920 = LINE('',#921,#922);
#921 = CARTESIAN_POINT('',(0.,-25.45584412271,46.));
#922 = VECTOR('',#923,1.);
#923 = DIRECTION('',(0.707106781187,0.707106781187,0.));
#924 = ORIENTED_EDGE('',*,*,#925,.T.);
#925 = EDGE_CURVE('',#918,#926,#928,.T.);
#926 = VERTEX_POINT('',#927);
#927 = CARTESIAN_POINT('',(23.334523779156,-2.12132034356,
    38.535898384862));
#928 = LINE('',#929,#930);
#929 = CARTESIAN_POINT('',(23.334523779156,-2.12132034356,
    35.523076211353));
#930 = VECTOR('',#931,1.);
#931 = DIRECTION('',(0.,0.,-1.));
#932 = ORIENTED_EDGE('',*,*,#933,.T.);
#933 = EDGE_CURVE('',#926,#908,#934,.T.);
#934 = LINE('',#935,#936);
#935 = CARTESIAN_POINT('',(11.667261889578,-13.78858223313,
    38.535898384862));
#936 = VECTOR('',#937,1.);
#937 = DIRECTION('',(0.707106781187,0.707106781187,0.));
#938 = PLANE('',#939);
#939 = AXIS2_PLACEMENT_3D('',#940,#941,#942);
#940 = CARTESIAN_POINT('',(0.,-25.45584412271,38.));
#941 = DIRECTION('',(-0.707106781187,0.707106781187,0.));
#942 = DIRECTION('',(0.,0.,1.));
#943 = ADVANCED_FACE('',(#944),#963,.T.);
#944 = FACE_BOUND('',#945,.T.);
#945 = EDGE_LOOP('',(#946,#947,#948,#949,#957));
#946 = ORIENTED_EDGE('',*,*,#907,.F.);
#947 = ORIENTED_EDGE('',*,*,#802,.T.);
#948 = ORIENTED_EDGE('',*,*,#893,.T.);
#949 = ORIENTED_EDGE('',*,*,#950,.F.);
#950 = EDGE_CURVE('',#951,#886,#953,.T.);
#951 = VERTEX_POINT('',#952);
#952 = CARTESIAN_POINT('',(16.31422395003,9.141620172686,46.));
#953 = LINE('',#954,#955);
#954 = CARTESIAN_POINT('',(25.455844122716,0.,46.));
#955 = VECTOR('',#956,1.);
#956 = DIRECTION('',(-0.707106781187,0.707106781187,0.));
#957 = ORIENTED_EDGE('',*,*,#958,.T.);
#958 = EDGE_CURVE('',#951,#908,#959,.T.);
#959 = LINE('',#960,#961);
#960 = CARTESIAN_POINT('',(28.899655578718,-3.443811456002,
    35.724038105677));
#961 = VECTOR('',#962,1.);
#962 = DIRECTION('',(0.612372435696,-0.612372435696,-0.5));
#963 = PLANE('',#964);
#964 = AXIS2_PLACEMENT_3D('',#965,#966,#967);
#965 = CARTESIAN_POINT('',(25.455844122716,0.,38.));
#966 = DIRECTION('',(0.707106781187,0.707106781187,0.));
#967 = DIRECTION('',(0.,0.,1.));
#968 = ADVANCED_FACE('',(#969),#988,.F.);
#969 = FACE_BOUND('',#970,.F.);
#970 = EDGE_LOOP('',(#971,#980,#986,#987));
#971 = ORIENTED_EDGE('',*,*,#972,.F.);
#972 = EDGE_CURVE('',#973,#973,#975,.T.);
#973 = VERTEX_POINT('',#974);
#974 = CARTESIAN_POINT('',(-9.192388155425,-9.192388155425,46.));
#975 = CIRCLE('',#976,1.);
#976 = AXIS2_PLACEMENT_3D('',#977,#978,#979);
#977 = CARTESIAN_POINT('',(-9.899494936612,-9.899494936612,46.));
#978 = DIRECTION('',(0.,-0.,1.));
#979 = DIRECTION('',(0.707106781187,0.707106781187,0.));
#980 = ORIENTED_EDGE('',*,*,#981,.F.);
#981 = EDGE_CURVE('',#819,#973,#982,.T.);
#982 = LINE('',#983,#984);
#983 = CARTESIAN_POINT('',(-9.192388155425,-9.192388155425,38.));
#984 = VECTOR('',#985,1.);
#985 = DIRECTION('',(0.,0.,1.));
#986 = ORIENTED_EDGE('',*,*,#818,.T.);
#987 = ORIENTED_EDGE('',*,*,#981,.T.);
#988 = CYLINDRICAL_SURFACE('',#989,1.);
#989 = AXIS2_PLACEMENT_3D('',#990,#991,#992);
#990 = CARTESIAN_POINT('',(-9.899494936612,-9.899494936612,38.));
#991 = DIRECTION('',(0.,0.,1.));
#992 = DIRECTION('',(0.707106781187,0.707106781187,0.));
#993 = ADVANCED_FACE('',(#994),#1013,.F.);
#994 = FACE_BOUND('',#995,.F.);
#995 = EDGE_LOOP('',(#996,#1005,#1011,#1012));
#996 = ORIENTED_EDGE('',*,*,#997,.F.);
#997 = EDGE_CURVE('',#998,#998,#1000,.T.);
#998 = VERTEX_POINT('',#999);
#999 = CARTESIAN_POINT('',(10.606601717798,10.606601717798,46.));
#1000 = CIRCLE('',#1001,1.);
#1001 = AXIS2_PLACEMENT_3D('',#1002,#1003,#1004);
#1002 = CARTESIAN_POINT('',(9.899494936612,9.899494936612,46.));
#1003 = DIRECTION('',(0.,-0.,1.));
#1004 = DIRECTION('',(0.707106781187,0.707106781187,0.));
#1005 = ORIENTED_EDGE('',*,*,#1006,.F.);
#1006 = EDGE_CURVE('',#836,#998,#1007,.T.);
#1007 = LINE('',#1008,#1009);
#1008 = CARTESIAN_POINT('',(10.606601717798,10.606601717798,38.));
#1009 = VECTOR('',#1010,1.);
#1010 = DIRECTION('',(0.,0.,1.));
#1011 = ORIENTED_EDGE('',*,*,#835,.T.);
#1012 = ORIENTED_EDGE('',*,*,#1006,.T.);
#1013 = CYLINDRICAL_SURFACE('',#1014,1.);
#1014 = AXIS2_PLACEMENT_3D('',#1015,#1016,#1017);
#1015 = CARTESIAN_POINT('',(9.899494936612,9.899494936612,38.));
#1016 = DIRECTION('',(0.,0.,1.));
#1017 = DIRECTION('',(0.707106781187,0.707106781187,0.));
#1018 = ADVANCED_FACE('',(#1019,#1039,#1042,#1076),#1079,.T.);
#1019 = FACE_BOUND('',#1020,.T.);
#1020 = EDGE_LOOP('',(#1021,#1022,#1023,#1024,#1032,#1038));
#1021 = ORIENTED_EDGE('',*,*,#885,.F.);
#1022 = ORIENTED_EDGE('',*,*,#869,.F.);
#1023 = ORIENTED_EDGE('',*,*,#917,.T.);
#1024 = ORIENTED_EDGE('',*,*,#1025,.T.);
#1025 = EDGE_CURVE('',#918,#1026,#1028,.T.);
#1026 = VERTEX_POINT('',#1027);
#1027 = CARTESIAN_POINT('',(14.19290360647,7.020299829126,46.));
#1028 = LINE('',#1029,#1030);
#1029 = CARTESIAN_POINT('',(26.696292885352,-5.483089449756,46.));
#1030 = VECTOR('',#1031,1.);
#1031 = DIRECTION('',(-0.707106781187,0.707106781187,0.));
#1032 = ORIENTED_EDGE('',*,*,#1033,.T.);
#1033 = EDGE_CURVE('',#1026,#951,#1034,.T.);
#1034 = LINE('',#1035,#1036);
#1035 = CARTESIAN_POINT('',(2.525641716892,-4.646962060452,46.));
#1036 = VECTOR('',#1037,1.);
#1037 = DIRECTION('',(0.707106781187,0.707106781187,0.));
#1038 = ORIENTED_EDGE('',*,*,#950,.T.);
#1039 = FACE_BOUND('',#1040,.T.);
#1040 = EDGE_LOOP('',(#1041));
#1041 = ORIENTED_EDGE('',*,*,#972,.F.);
#1042 = FACE_BOUND('',#1043,.T.);
#1043 = EDGE_LOOP('',(#1044,#1054,#1062,#1070));
#1044 = ORIENTED_EDGE('',*,*,#1045,.F.);
#1045 = EDGE_CURVE('',#1046,#1048,#1050,.T.);
#1046 = VERTEX_POINT('',#1047);
#1047 = CARTESIAN_POINT('',(-3.67695526217,-12.02081528017,46.));
#1048 = VERTEX_POINT('',#1049);
#1049 = CARTESIAN_POINT('',(12.020815280171,3.67695526217,46.));
#1050 = LINE('',#1051,#1052);
#1051 = CARTESIAN_POINT('',(-3.67695526217,-12.02081528017,46.));
#1052 = VECTOR('',#1053,1.);
#1053 = DIRECTION('',(0.707106781187,0.707106781187,0.));
#1054 = ORIENTED_EDGE('',*,*,#1055,.T.);
#1055 = EDGE_CURVE('',#1046,#1056,#1058,.T.);
#1056 = VERTEX_POINT('',#1057);
#1057 = CARTESIAN_POINT('',(-12.02081528017,-3.67695526217,46.));
#1058 = LINE('',#1059,#1060);
#1059 = CARTESIAN_POINT('',(-3.67695526217,-12.02081528017,46.));
#1060 = VECTOR('',#1061,1.);
#1061 = DIRECTION('',(-0.707106781187,0.707106781187,0.));
#1062 = ORIENTED_EDGE('',*,*,#1063,.T.);
#1063 = EDGE_CURVE('',#1056,#1064,#1066,.T.);
#1064 = VERTEX_POINT('',#1065);
#1065 = CARTESIAN_POINT('',(3.67695526217,12.020815280171,46.));
#1066 = LINE('',#1067,#1068);
#1067 = CARTESIAN_POINT('',(-12.02081528017,-3.67695526217,46.));
#1068 = VECTOR('',#1069,1.);
#1069 = DIRECTION('',(0.707106781187,0.707106781187,0.));
#1070 = ORIENTED_EDGE('',*,*,#1071,.F.);
#1071 = EDGE_CURVE('',#1048,#1064,#1072,.T.);
#1072 = LINE('',#1073,#1074);
#1073 = CARTESIAN_POINT('',(12.020815280171,3.67695526217,46.));
#1074 = VECTOR('',#1075,1.);
#1075 = DIRECTION('',(-0.707106781187,0.707106781187,0.));
#1076 = FACE_BOUND('',#1077,.T.);
#1077 = EDGE_LOOP('',(#1078));
#1078 = ORIENTED_EDGE('',*,*,#997,.F.);
#1079 = PLANE('',#1080);
#1080 = AXIS2_PLACEMENT_3D('',#1081,#1082,#1083);
#1081 = CARTESIAN_POINT('',(0.,-25.45584412271,46.));
#1082 = DIRECTION('',(0.,0.,1.));
#1083 = DIRECTION('',(0.707106781187,0.707106781187,0.));
#1084 = ADVANCED_FACE('',(#1085),#1128,.F.);
#1085 = FACE_BOUND('',#1086,.F.);
#1086 = EDGE_LOOP('',(#1087,#1095,#1103,#1111,#1119,#1125,#1126,#1127));
#1087 = ORIENTED_EDGE('',*,*,#1088,.F.);
#1088 = EDGE_CURVE('',#1089,#926,#1091,.T.);
#1089 = VERTEX_POINT('',#1090);
#1090 = CARTESIAN_POINT('',(30.058061991549,-8.844858555952,
    33.046152422707));
#1091 = LINE('',#1092,#1093);
#1092 = CARTESIAN_POINT('',(30.058061991549,-8.844858555952,
    33.046152422707));
#1093 = VECTOR('',#1094,1.);
#1094 = DIRECTION('',(-0.612372435696,0.612372435696,0.5));
#1095 = ORIENTED_EDGE('',*,*,#1096,.T.);
#1096 = EDGE_CURVE('',#1089,#1097,#1099,.T.);
#1097 = VERTEX_POINT('',#1098);
#1098 = CARTESIAN_POINT('',(33.593595897482,-5.30932465002,
    33.046152422707));
#1099 = LINE('',#1100,#1101);
#1100 = CARTESIAN_POINT('',(30.058061991549,-8.844858555952,
    33.046152422707));
#1101 = VECTOR('',#1102,1.);
#1102 = DIRECTION('',(0.707106781187,0.707106781187,0.));
#1103 = ORIENTED_EDGE('',*,*,#1104,.T.);
#1104 = EDGE_CURVE('',#1097,#1105,#1107,.T.);
#1105 = VERTEX_POINT('',#1106);
#1106 = CARTESIAN_POINT('',(-1.0666839629,29.350955210362,
    61.346152422707));
#1107 = LINE('',#1108,#1109);
#1108 = CARTESIAN_POINT('',(33.593595897482,-5.30932465002,
    33.046152422707));
#1109 = VECTOR('',#1110,1.);
#1110 = DIRECTION('',(-0.612372435696,0.612372435696,0.5));
#1111 = ORIENTED_EDGE('',*,*,#1112,.F.);
#1112 = EDGE_CURVE('',#1113,#1105,#1115,.T.);
#1113 = VERTEX_POINT('',#1114);
#1114 = CARTESIAN_POINT('',(-4.602217868833,25.81542130443,
    61.346152422707));
#1115 = LINE('',#1116,#1117);
#1116 = CARTESIAN_POINT('',(-4.602217868833,25.81542130443,
    61.346152422707));
#1117 = VECTOR('',#1118,1.);
#1118 = DIRECTION('',(0.707106781187,0.707106781187,0.));
#1119 = ORIENTED_EDGE('',*,*,#1120,.F.);
#1120 = EDGE_CURVE('',#1026,#1113,#1121,.T.);
#1121 = LINE('',#1122,#1123);
#1122 = CARTESIAN_POINT('',(30.058061991549,-8.844858555952,
    33.046152422707));
#1123 = VECTOR('',#1124,1.);
#1124 = DIRECTION('',(-0.612372435696,0.612372435696,0.5));
#1125 = ORIENTED_EDGE('',*,*,#1033,.T.);
#1126 = ORIENTED_EDGE('',*,*,#958,.T.);
#1127 = ORIENTED_EDGE('',*,*,#933,.F.);
#1128 = PLANE('',#1129);
#1129 = AXIS2_PLACEMENT_3D('',#1130,#1131,#1132);
#1130 = CARTESIAN_POINT('',(30.058061991549,-8.844858555952,
    33.046152422707));
#1131 = DIRECTION('',(0.353553390593,-0.353553390593,0.866025403784));
#1132 = DIRECTION('',(0.707106781187,0.707106781187,0.));
#1133 = ADVANCED_FACE('',(#1134,#1162,#1173,#1184,#1195),#1206,.F.);
#1134 = FACE_BOUND('',#1135,.F.);
#1135 = EDGE_LOOP('',(#1136,#1146,#1152,#1153,#1154,#1155,#1156));
#1136 = ORIENTED_EDGE('',*,*,#1137,.F.);
#1137 = EDGE_CURVE('',#1138,#1140,#1142,.T.);
#1138 = VERTEX_POINT('',#1139);
#1139 = CARTESIAN_POINT('',(41.124283117118,-19.91107968152,
    60.15274756116));
#1140 = VERTEX_POINT('',#1141);
#1141 = CARTESIAN_POINT('',(6.464003256736,14.74920017886,88.45274756116
    ));
#1142 = LINE('',#1143,#1144);
#1143 = CARTESIAN_POINT('',(41.124283117118,-19.91107968152,
    60.15274756116));
#1144 = VECTOR('',#1145,1.);
#1145 = DIRECTION('',(-0.612372435696,0.612372435696,0.5));
#1146 = ORIENTED_EDGE('',*,*,#1147,.F.);
#1147 = EDGE_CURVE('',#1089,#1138,#1148,.T.);
#1148 = LINE('',#1149,#1150);
#1149 = CARTESIAN_POINT('',(30.058061991549,-8.844858555952,
    33.046152422707));
#1150 = VECTOR('',#1151,1.);
#1151 = DIRECTION('',(0.353553390593,-0.353553390593,0.866025403784));
#1152 = ORIENTED_EDGE('',*,*,#1088,.T.);
#1153 = ORIENTED_EDGE('',*,*,#925,.F.);
#1154 = ORIENTED_EDGE('',*,*,#1025,.T.);
#1155 = ORIENTED_EDGE('',*,*,#1120,.T.);
#1156 = ORIENTED_EDGE('',*,*,#1157,.T.);
#1157 = EDGE_CURVE('',#1113,#1140,#1158,.T.);
#1158 = LINE('',#1159,#1160);
#1159 = CARTESIAN_POINT('',(-4.602217868833,25.81542130443,
    61.346152422707));
#1160 = VECTOR('',#1161,1.);
#1161 = DIRECTION('',(0.353553390593,-0.353553390593,0.866025403784));
#1162 = FACE_BOUND('',#1163,.F.);
#1163 = EDGE_LOOP('',(#1164));
#1164 = ORIENTED_EDGE('',*,*,#1165,.F.);
#1165 = EDGE_CURVE('',#1166,#1166,#1168,.T.);
#1166 = VERTEX_POINT('',#1167);
#1167 = CARTESIAN_POINT('',(4.95868069872,16.254522736877,
    72.765475395718));
#1168 = CIRCLE('',#1169,1.);
#1169 = AXIS2_PLACEMENT_3D('',#1170,#1171,#1172);
#1170 = CARTESIAN_POINT('',(4.605127308126,16.60807612747,
    71.899449991933));
#1171 = DIRECTION('',(0.707106781187,0.707106781187,0.));
#1172 = DIRECTION('',(0.353553390593,-0.353553390593,0.866025403784));
#1173 = FACE_BOUND('',#1174,.F.);
#1174 = EDGE_LOOP('',(#1175));
#1175 = ORIENTED_EDGE('',*,*,#1176,.F.);
#1176 = EDGE_CURVE('',#1177,#1177,#1179,.T.);
#1177 = VERTEX_POINT('',#1178);
#1178 = CARTESIAN_POINT('',(16.961180438357,4.252022997239,
    62.965475395718));
#1179 = CIRCLE('',#1180,1.);
#1180 = AXIS2_PLACEMENT_3D('',#1181,#1182,#1183);
#1181 = CARTESIAN_POINT('',(16.607627047764,4.605576387832,
    62.099449991933));
#1182 = DIRECTION('',(0.707106781187,0.707106781187,0.));
#1183 = DIRECTION('',(0.353553390593,-0.353553390593,0.866025403784));
#1184 = FACE_BOUND('',#1185,.F.);
#1185 = EDGE_LOOP('',(#1186));
#1186 = ORIENTED_EDGE('',*,*,#1187,.F.);
#1187 = EDGE_CURVE('',#1188,#1188,#1190,.T.);
#1188 = VERTEX_POINT('',#1189);
#1189 = CARTESIAN_POINT('',(20.635415052532,0.577788383064,
    59.965475395718));
#1190 = CIRCLE('',#1191,1.);
#1191 = AXIS2_PLACEMENT_3D('',#1192,#1193,#1194);
#1192 = CARTESIAN_POINT('',(20.281861661939,0.931341773658,
    59.099449991933));
#1193 = DIRECTION('',(0.707106781187,0.707106781187,0.));
#1194 = DIRECTION('',(0.353553390593,-0.353553390593,0.866025403784));
#1195 = FACE_BOUND('',#1196,.F.);
#1196 = EDGE_LOOP('',(#1197));
#1197 = ORIENTED_EDGE('',*,*,#1198,.F.);
#1198 = EDGE_CURVE('',#1199,#1199,#1201,.T.);
#1199 = VERTEX_POINT('',#1200);
#1200 = CARTESIAN_POINT('',(32.270491330752,-11.05728789515,
    50.465475395718));
#1201 = CIRCLE('',#1202,1.);
#1202 = AXIS2_PLACEMENT_3D('',#1203,#1204,#1205);
#1203 = CARTESIAN_POINT('',(31.916937940159,-10.70373450456,
    49.599449991933));
#1204 = DIRECTION('',(0.707106781187,0.707106781187,0.));
#1205 = DIRECTION('',(0.353553390593,-0.353553390593,0.866025403784));
#1206 = PLANE('',#1207);
#1207 = AXIS2_PLACEMENT_3D('',#1208,#1209,#1210);
#1208 = CARTESIAN_POINT('',(30.058061991549,-8.844858555952,
    33.046152422707));
#1209 = DIRECTION('',(0.707106781187,0.707106781187,0.));
#1210 = DIRECTION('',(0.353553390593,-0.353553390593,0.866025403784));
#1211 = ADVANCED_FACE('',(#1212),#1237,.T.);
#1212 = FACE_BOUND('',#1213,.T.);
#1213 = EDGE_LOOP('',(#1214,#1224,#1230,#1231));
#1214 = ORIENTED_EDGE('',*,*,#1215,.F.);
#1215 = EDGE_CURVE('',#1216,#1218,#1220,.T.);
#1216 = VERTEX_POINT('',#1217);
#1217 = CARTESIAN_POINT('',(-3.67695526217,-12.02081528017,40.));
#1218 = VERTEX_POINT('',#1219);
#1219 = CARTESIAN_POINT('',(12.020815280171,3.67695526217,40.));
#1220 = LINE('',#1221,#1222);
#1221 = CARTESIAN_POINT('',(-3.67695526217,-12.02081528017,40.));
#1222 = VECTOR('',#1223,1.);
#1223 = DIRECTION('',(0.707106781187,0.707106781187,0.));
#1224 = ORIENTED_EDGE('',*,*,#1225,.T.);
#1225 = EDGE_CURVE('',#1216,#1046,#1226,.T.);
#1226 = LINE('',#1227,#1228);
#1227 = CARTESIAN_POINT('',(-3.67695526217,-12.02081528017,40.));
#1228 = VECTOR('',#1229,1.);
#1229 = DIRECTION('',(0.,0.,1.));
#1230 = ORIENTED_EDGE('',*,*,#1045,.T.);
#1231 = ORIENTED_EDGE('',*,*,#1232,.F.);
#1232 = EDGE_CURVE('',#1218,#1048,#1233,.T.);
#1233 = LINE('',#1234,#1235);
#1234 = CARTESIAN_POINT('',(12.020815280171,3.67695526217,40.));
#1235 = VECTOR('',#1236,1.);
#1236 = DIRECTION('',(0.,0.,1.));
#1237 = PLANE('',#1238);
#1238 = AXIS2_PLACEMENT_3D('',#1239,#1240,#1241);
#1239 = CARTESIAN_POINT('',(-3.67695526217,-12.02081528017,40.));
#1240 = DIRECTION('',(-0.707106781187,0.707106781187,0.));
#1241 = DIRECTION('',(0.,0.,1.));
#1242 = ADVANCED_FACE('',(#1243),#1261,.T.);
#1243 = FACE_BOUND('',#1244,.T.);
#1244 = EDGE_LOOP('',(#1245,#1246,#1254,#1260));
#1245 = ORIENTED_EDGE('',*,*,#1225,.F.);
#1246 = ORIENTED_EDGE('',*,*,#1247,.T.);
#1247 = EDGE_CURVE('',#1216,#1248,#1250,.T.);
#1248 = VERTEX_POINT('',#1249);
#1249 = CARTESIAN_POINT('',(-12.02081528017,-3.67695526217,40.));
#1250 = LINE('',#1251,#1252);
#1251 = CARTESIAN_POINT('',(-3.67695526217,-12.02081528017,40.));
#1252 = VECTOR('',#1253,1.);
#1253 = DIRECTION('',(-0.707106781187,0.707106781187,0.));
#1254 = ORIENTED_EDGE('',*,*,#1255,.T.);
#1255 = EDGE_CURVE('',#1248,#1056,#1256,.T.);
#1256 = LINE('',#1257,#1258);
#1257 = CARTESIAN_POINT('',(-12.02081528017,-3.67695526217,40.));
#1258 = VECTOR('',#1259,1.);
#1259 = DIRECTION('',(0.,0.,1.));
#1260 = ORIENTED_EDGE('',*,*,#1055,.F.);
#1261 = PLANE('',#1262);
#1262 = AXIS2_PLACEMENT_3D('',#1263,#1264,#1265);
#1263 = CARTESIAN_POINT('',(-3.67695526217,-12.02081528017,40.));
#1264 = DIRECTION('',(0.707106781187,0.707106781187,0.));
#1265 = DIRECTION('',(0.,0.,1.));
#1266 = ADVANCED_FACE('',(#1267),#1285,.F.);
#1267 = FACE_BOUND('',#1268,.F.);
#1268 = EDGE_LOOP('',(#1269,#1270,#1278,#1284));
#1269 = ORIENTED_EDGE('',*,*,#1232,.F.);
#1270 = ORIENTED_EDGE('',*,*,#1271,.T.);
#1271 = EDGE_CURVE('',#1218,#1272,#1274,.T.);
#1272 = VERTEX_POINT('',#1273);
#1273 = CARTESIAN_POINT('',(3.67695526217,12.020815280171,40.));
#1274 = LINE('',#1275,#1276);
#1275 = CARTESIAN_POINT('',(12.020815280171,3.67695526217,40.));
#1276 = VECTOR('',#1277,1.);
#1277 = DIRECTION('',(-0.707106781187,0.707106781187,0.));
#1278 = ORIENTED_EDGE('',*,*,#1279,.T.);
#1279 = EDGE_CURVE('',#1272,#1064,#1280,.T.);
#1280 = LINE('',#1281,#1282);
#1281 = CARTESIAN_POINT('',(3.67695526217,12.020815280171,40.));
#1282 = VECTOR('',#1283,1.);
#1283 = DIRECTION('',(0.,0.,1.));
#1284 = ORIENTED_EDGE('',*,*,#1071,.F.);
#1285 = PLANE('',#1286);
#1286 = AXIS2_PLACEMENT_3D('',#1287,#1288,#1289);
#1287 = CARTESIAN_POINT('',(12.020815280171,3.67695526217,40.));
#1288 = DIRECTION('',(0.707106781187,0.707106781187,0.));
#1289 = DIRECTION('',(0.,0.,1.));
#1290 = ADVANCED_FACE('',(#1291),#1302,.F.);
#1291 = FACE_BOUND('',#1292,.F.);
#1292 = EDGE_LOOP('',(#1293,#1299,#1300,#1301));
#1293 = ORIENTED_EDGE('',*,*,#1294,.F.);
#1294 = EDGE_CURVE('',#1248,#1272,#1295,.T.);
#1295 = LINE('',#1296,#1297);
#1296 = CARTESIAN_POINT('',(-12.02081528017,-3.67695526217,40.));
#1297 = VECTOR('',#1298,1.);
#1298 = DIRECTION('',(0.707106781187,0.707106781187,0.));
#1299 = ORIENTED_EDGE('',*,*,#1255,.T.);
#1300 = ORIENTED_EDGE('',*,*,#1063,.T.);
#1301 = ORIENTED_EDGE('',*,*,#1279,.F.);
#1302 = PLANE('',#1303);
#1303 = AXIS2_PLACEMENT_3D('',#1304,#1305,#1306);
#1304 = CARTESIAN_POINT('',(-12.02081528017,-3.67695526217,40.));
#1305 = DIRECTION('',(-0.707106781187,0.707106781187,0.));
#1306 = DIRECTION('',(0.,0.,1.));
#1307 = ADVANCED_FACE('',(#1308),#1326,.T.);
#1308 = FACE_BOUND('',#1309,.T.);
#1309 = EDGE_LOOP('',(#1310,#1311,#1312,#1320));
#1310 = ORIENTED_EDGE('',*,*,#1112,.F.);
#1311 = ORIENTED_EDGE('',*,*,#1157,.T.);
#1312 = ORIENTED_EDGE('',*,*,#1313,.T.);
#1313 = EDGE_CURVE('',#1140,#1314,#1316,.T.);
#1314 = VERTEX_POINT('',#1315);
#1315 = CARTESIAN_POINT('',(9.999537162669,18.284734084793,
    88.45274756116));
#1316 = LINE('',#1317,#1318);
#1317 = CARTESIAN_POINT('',(6.464003256736,14.74920017886,88.45274756116
    ));
#1318 = VECTOR('',#1319,1.);
#1319 = DIRECTION('',(0.707106781187,0.707106781187,0.));
#1320 = ORIENTED_EDGE('',*,*,#1321,.F.);
#1321 = EDGE_CURVE('',#1105,#1314,#1322,.T.);
#1322 = LINE('',#1323,#1324);
#1323 = CARTESIAN_POINT('',(-1.0666839629,29.350955210362,
    61.346152422707));
#1324 = VECTOR('',#1325,1.);
#1325 = DIRECTION('',(0.353553390593,-0.353553390593,0.866025403784));
#1326 = PLANE('',#1327);
#1327 = AXIS2_PLACEMENT_3D('',#1328,#1329,#1330);
#1328 = CARTESIAN_POINT('',(-4.602217868833,25.81542130443,
    61.346152422707));
#1329 = DIRECTION('',(-0.612372435696,0.612372435696,0.5));
#1330 = DIRECTION('',(0.353553390593,-0.353553390593,0.866025403784));
#1331 = ADVANCED_FACE('',(#1332,#1350,#1361,#1372,#1383),#1394,.T.);
#1332 = FACE_BOUND('',#1333,.T.);
#1333 = EDGE_LOOP('',(#1334,#1342,#1343,#1344));
#1334 = ORIENTED_EDGE('',*,*,#1335,.F.);
#1335 = EDGE_CURVE('',#1097,#1336,#1338,.T.);
#1336 = VERTEX_POINT('',#1337);
#1337 = CARTESIAN_POINT('',(44.659817023051,-16.37554577558,
    60.15274756116));
#1338 = LINE('',#1339,#1340);
#1339 = CARTESIAN_POINT('',(33.593595897482,-5.30932465002,
    33.046152422707));
#1340 = VECTOR('',#1341,1.);
#1341 = DIRECTION('',(0.353553390593,-0.353553390593,0.866025403784));
#1342 = ORIENTED_EDGE('',*,*,#1104,.T.);
#1343 = ORIENTED_EDGE('',*,*,#1321,.T.);
#1344 = ORIENTED_EDGE('',*,*,#1345,.F.);
#1345 = EDGE_CURVE('',#1336,#1314,#1346,.T.);
#1346 = LINE('',#1347,#1348);
#1347 = CARTESIAN_POINT('',(44.659817023051,-16.37554577558,
    60.15274756116));
#1348 = VECTOR('',#1349,1.);
#1349 = DIRECTION('',(-0.612372435696,0.612372435696,0.5));
#1350 = FACE_BOUND('',#1351,.T.);
#1351 = EDGE_LOOP('',(#1352));
#1352 = ORIENTED_EDGE('',*,*,#1353,.F.);
#1353 = EDGE_CURVE('',#1354,#1354,#1356,.T.);
#1354 = VERTEX_POINT('',#1355);
#1355 = CARTESIAN_POINT('',(8.494214604652,19.79005664281,
    72.765475395718));
#1356 = CIRCLE('',#1357,1.);
#1357 = AXIS2_PLACEMENT_3D('',#1358,#1359,#1360);
#1358 = CARTESIAN_POINT('',(8.140661214059,20.143610033403,
    71.899449991933));
#1359 = DIRECTION('',(0.707106781187,0.707106781187,0.));
#1360 = DIRECTION('',(0.353553390593,-0.353553390593,0.866025403784));
#1361 = FACE_BOUND('',#1362,.T.);
#1362 = EDGE_LOOP('',(#1363));
#1363 = ORIENTED_EDGE('',*,*,#1364,.F.);
#1364 = EDGE_CURVE('',#1365,#1365,#1367,.T.);
#1365 = VERTEX_POINT('',#1366);
#1366 = CARTESIAN_POINT('',(20.49671434429,7.787556903172,
    62.965475395718));
#1367 = CIRCLE('',#1368,1.);
#1368 = AXIS2_PLACEMENT_3D('',#1369,#1370,#1371);
#1369 = CARTESIAN_POINT('',(20.143160953697,8.141110293765,
    62.099449991933));
#1370 = DIRECTION('',(0.707106781187,0.707106781187,0.));
#1371 = DIRECTION('',(0.353553390593,-0.353553390593,0.866025403784));
#1372 = FACE_BOUND('',#1373,.T.);
#1373 = EDGE_LOOP('',(#1374));
#1374 = ORIENTED_EDGE('',*,*,#1375,.F.);
#1375 = EDGE_CURVE('',#1376,#1376,#1378,.T.);
#1376 = VERTEX_POINT('',#1377);
#1377 = CARTESIAN_POINT('',(24.170948958465,4.113322288997,
    59.965475395718));
#1378 = CIRCLE('',#1379,1.);
#1379 = AXIS2_PLACEMENT_3D('',#1380,#1381,#1382);
#1380 = CARTESIAN_POINT('',(23.817395567871,4.46687567959,
    59.099449991933));
#1381 = DIRECTION('',(0.707106781187,0.707106781187,0.));
#1382 = DIRECTION('',(0.353553390593,-0.353553390593,0.866025403784));
#1383 = FACE_BOUND('',#1384,.T.);
#1384 = EDGE_LOOP('',(#1385));
#1385 = ORIENTED_EDGE('',*,*,#1386,.F.);
#1386 = EDGE_CURVE('',#1387,#1387,#1389,.T.);
#1387 = VERTEX_POINT('',#1388);
#1388 = CARTESIAN_POINT('',(35.806025236685,-7.521753989223,
    50.465475395718));
#1389 = CIRCLE('',#1390,1.);
#1390 = AXIS2_PLACEMENT_3D('',#1391,#1392,#1393);
#1391 = CARTESIAN_POINT('',(35.452471846092,-7.16820059863,
    49.599449991933));
#1392 = DIRECTION('',(0.707106781187,0.707106781187,0.));
#1393 = DIRECTION('',(0.353553390593,-0.353553390593,0.866025403784));
#1394 = PLANE('',#1395);
#1395 = AXIS2_PLACEMENT_3D('',#1396,#1397,#1398);
#1396 = CARTESIAN_POINT('',(33.593595897482,-5.30932465002,
    33.046152422707));
#1397 = DIRECTION('',(0.707106781187,0.707106781187,0.));
#1398 = DIRECTION('',(0.353553390593,-0.353553390593,0.866025403784));
#1399 = ADVANCED_FACE('',(#1400),#1411,.F.);
#1400 = FACE_BOUND('',#1401,.F.);
#1401 = EDGE_LOOP('',(#1402,#1403,#1404,#1410));
#1402 = ORIENTED_EDGE('',*,*,#1096,.F.);
#1403 = ORIENTED_EDGE('',*,*,#1147,.T.);
#1404 = ORIENTED_EDGE('',*,*,#1405,.T.);
#1405 = EDGE_CURVE('',#1138,#1336,#1406,.T.);
#1406 = LINE('',#1407,#1408);
#1407 = CARTESIAN_POINT('',(41.124283117118,-19.91107968152,
    60.15274756116));
#1408 = VECTOR('',#1409,1.);
#1409 = DIRECTION('',(0.707106781187,0.707106781187,0.));
#1410 = ORIENTED_EDGE('',*,*,#1335,.F.);
#1411 = PLANE('',#1412);
#1412 = AXIS2_PLACEMENT_3D('',#1413,#1414,#1415);
#1413 = CARTESIAN_POINT('',(30.058061991549,-8.844858555952,
    33.046152422707));
#1414 = DIRECTION('',(-0.612372435696,0.612372435696,0.5));
#1415 = DIRECTION('',(0.353553390593,-0.353553390593,0.866025403784));
#1416 = ADVANCED_FACE('',(#1417),#1423,.T.);
#1417 = FACE_BOUND('',#1418,.T.);
#1418 = EDGE_LOOP('',(#1419,#1420,#1421,#1422));
#1419 = ORIENTED_EDGE('',*,*,#1137,.F.);
#1420 = ORIENTED_EDGE('',*,*,#1405,.T.);
#1421 = ORIENTED_EDGE('',*,*,#1345,.T.);
#1422 = ORIENTED_EDGE('',*,*,#1313,.F.);
#1423 = PLANE('',#1424);
#1424 = AXIS2_PLACEMENT_3D('',#1425,#1426,#1427);
#1425 = CARTESIAN_POINT('',(41.124283117118,-19.91107968152,
    60.15274756116));
#1426 = DIRECTION('',(0.353553390593,-0.353553390593,0.866025403784));
#1427 = DIRECTION('',(0.707106781187,0.707106781187,0.));
#1428 = ADVANCED_FACE('',(#1429),#1440,.F.);
#1429 = FACE_BOUND('',#1430,.F.);
#1430 = EDGE_LOOP('',(#1431,#1432,#1438,#1439));
#1431 = ORIENTED_EDGE('',*,*,#1353,.F.);
#1432 = ORIENTED_EDGE('',*,*,#1433,.F.);
#1433 = EDGE_CURVE('',#1166,#1354,#1434,.T.);
#1434 = LINE('',#1435,#1436);
#1435 = CARTESIAN_POINT('',(4.95868069872,16.254522736877,
    72.765475395718));
#1436 = VECTOR('',#1437,1.);
#1437 = DIRECTION('',(0.707106781187,0.707106781187,0.));
#1438 = ORIENTED_EDGE('',*,*,#1165,.T.);
#1439 = ORIENTED_EDGE('',*,*,#1433,.T.);
#1440 = CYLINDRICAL_SURFACE('',#1441,1.);
#1441 = AXIS2_PLACEMENT_3D('',#1442,#1443,#1444);
#1442 = CARTESIAN_POINT('',(4.605127308126,16.60807612747,
    71.899449991933));
#1443 = DIRECTION('',(0.707106781187,0.707106781187,0.));
#1444 = DIRECTION('',(0.353553390593,-0.353553390593,0.866025403784));
#1445 = ADVANCED_FACE('',(#1446),#1457,.F.);
#1446 = FACE_BOUND('',#1447,.F.);
#1447 = EDGE_LOOP('',(#1448,#1449,#1455,#1456));
#1448 = ORIENTED_EDGE('',*,*,#1364,.F.);
#1449 = ORIENTED_EDGE('',*,*,#1450,.F.);
#1450 = EDGE_CURVE('',#1177,#1365,#1451,.T.);
#1451 = LINE('',#1452,#1453);
#1452 = CARTESIAN_POINT('',(16.961180438357,4.252022997239,
    62.965475395718));
#1453 = VECTOR('',#1454,1.);
#1454 = DIRECTION('',(0.707106781187,0.707106781187,0.));
#1455 = ORIENTED_EDGE('',*,*,#1176,.T.);
#1456 = ORIENTED_EDGE('',*,*,#1450,.T.);
#1457 = CYLINDRICAL_SURFACE('',#1458,1.);
#1458 = AXIS2_PLACEMENT_3D('',#1459,#1460,#1461);
#1459 = CARTESIAN_POINT('',(16.607627047764,4.605576387832,
    62.099449991933));
#1460 = DIRECTION('',(0.707106781187,0.707106781187,0.));
#1461 = DIRECTION('',(0.353553390593,-0.353553390593,0.866025403784));
#1462 = ADVANCED_FACE('',(#1463),#1474,.F.);
#1463 = FACE_BOUND('',#1464,.F.);
#1464 = EDGE_LOOP('',(#1465,#1466,#1472,#1473));
#1465 = ORIENTED_EDGE('',*,*,#1375,.F.);
#1466 = ORIENTED_EDGE('',*,*,#1467,.F.);
#1467 = EDGE_CURVE('',#1188,#1376,#1468,.T.);
#1468 = LINE('',#1469,#1470);
#1469 = CARTESIAN_POINT('',(20.635415052532,0.577788383064,
    59.965475395718));
#1470 = VECTOR('',#1471,1.);
#1471 = DIRECTION('',(0.707106781187,0.707106781187,0.));
#1472 = ORIENTED_EDGE('',*,*,#1187,.T.);
#1473 = ORIENTED_EDGE('',*,*,#1467,.T.);
#1474 = CYLINDRICAL_SURFACE('',#1475,1.);
#1475 = AXIS2_PLACEMENT_3D('',#1476,#1477,#1478);
#1476 = CARTESIAN_POINT('',(20.281861661939,0.931341773658,
    59.099449991933));
#1477 = DIRECTION('',(0.707106781187,0.707106781187,0.));
#1478 = DIRECTION('',(0.353553390593,-0.353553390593,0.866025403784));
#1479 = ADVANCED_FACE('',(#1480),#1491,.F.);
#1480 = FACE_BOUND('',#1481,.F.);
#1481 = EDGE_LOOP('',(#1482,#1483,#1489,#1490));
#1482 = ORIENTED_EDGE('',*,*,#1386,.F.);
#1483 = ORIENTED_EDGE('',*,*,#1484,.F.);
#1484 = EDGE_CURVE('',#1199,#1387,#1485,.T.);
#1485 = LINE('',#1486,#1487);
#1486 = CARTESIAN_POINT('',(32.270491330752,-11.05728789515,
    50.465475395718));
#1487 = VECTOR('',#1488,1.);
#1488 = DIRECTION('',(0.707106781187,0.707106781187,0.));
#1489 = ORIENTED_EDGE('',*,*,#1198,.T.);
#1490 = ORIENTED_EDGE('',*,*,#1484,.T.);
#1491 = CYLINDRICAL_SURFACE('',#1492,1.);
#1492 = AXIS2_PLACEMENT_3D('',#1493,#1494,#1495);
#1493 = CARTESIAN_POINT('',(31.916937940159,-10.70373450456,
    49.599449991933));
#1494 = DIRECTION('',(0.707106781187,0.707106781187,0.));
#1495 = DIRECTION('',(0.353553390593,-0.353553390593,0.866025403784));
#1496 = ADVANCED_FACE('',(#1497,#1503),#1514,.T.);
#1497 = FACE_BOUND('',#1498,.T.);
#1498 = EDGE_LOOP('',(#1499,#1500,#1501,#1502));
#1499 = ORIENTED_EDGE('',*,*,#1247,.F.);
#1500 = ORIENTED_EDGE('',*,*,#1215,.T.);
#1501 = ORIENTED_EDGE('',*,*,#1271,.T.);
#1502 = ORIENTED_EDGE('',*,*,#1294,.F.);
#1503 = FACE_BOUND('',#1504,.T.);
#1504 = EDGE_LOOP('',(#1505));
#1505 = ORIENTED_EDGE('',*,*,#1506,.F.);
#1506 = EDGE_CURVE('',#1507,#1507,#1509,.T.);
#1507 = VERTEX_POINT('',#1508);
#1508 = CARTESIAN_POINT('',(2.12132034356,2.12132034356,40.));
#1509 = CIRCLE('',#1510,3.);
#1510 = AXIS2_PLACEMENT_3D('',#1511,#1512,#1513);
#1511 = CARTESIAN_POINT('',(0.,0.,40.));
#1512 = DIRECTION('',(0.,-0.,1.));
#1513 = DIRECTION('',(0.707106781187,0.707106781187,0.));
#1514 = PLANE('',#1515);
#1515 = AXIS2_PLACEMENT_3D('',#1516,#1517,#1518);
#1516 = CARTESIAN_POINT('',(-3.67695526217,-12.02081528017,40.));
#1517 = DIRECTION('',(0.,0.,1.));
#1518 = DIRECTION('',(0.707106781187,0.707106781187,0.));
#1519 = ADVANCED_FACE('',(#1520),#1539,.F.);
#1520 = FACE_BOUND('',#1521,.F.);
#1521 = EDGE_LOOP('',(#1522,#1523,#1531,#1538));
#1522 = ORIENTED_EDGE('',*,*,#1506,.F.);
#1523 = ORIENTED_EDGE('',*,*,#1524,.F.);
#1524 = EDGE_CURVE('',#1525,#1507,#1527,.T.);
#1525 = VERTEX_POINT('',#1526);
#1526 = CARTESIAN_POINT('',(2.12132034356,2.12132034356,38.));
#1527 = LINE('',#1528,#1529);
#1528 = CARTESIAN_POINT('',(2.12132034356,2.12132034356,38.));
#1529 = VECTOR('',#1530,1.);
#1530 = DIRECTION('',(0.,0.,1.));
#1531 = ORIENTED_EDGE('',*,*,#1532,.T.);
#1532 = EDGE_CURVE('',#1525,#1525,#1533,.T.);
#1533 = CIRCLE('',#1534,3.);
#1534 = AXIS2_PLACEMENT_3D('',#1535,#1536,#1537);
#1535 = CARTESIAN_POINT('',(0.,0.,38.));
#1536 = DIRECTION('',(0.,-0.,1.));
#1537 = DIRECTION('',(0.707106781187,0.707106781187,0.));
#1538 = ORIENTED_EDGE('',*,*,#1524,.T.);
#1539 = CYLINDRICAL_SURFACE('',#1540,3.);
#1540 = AXIS2_PLACEMENT_3D('',#1541,#1542,#1543);
#1541 = CARTESIAN_POINT('',(0.,0.,38.));
#1542 = DIRECTION('',(0.,0.,1.));
#1543 = DIRECTION('',(0.707106781187,0.707106781187,0.));
#1544 = ADVANCED_FACE('',(#1545),#1548,.T.);
#1545 = FACE_BOUND('',#1546,.T.);
#1546 = EDGE_LOOP('',(#1547));
#1547 = ORIENTED_EDGE('',*,*,#1532,.T.);
#1548 = PLANE('',#1549);
#1549 = AXIS2_PLACEMENT_3D('',#1550,#1551,#1552);
#1550 = CARTESIAN_POINT('',(0.,-10.60660171779,38.));
#1551 = DIRECTION('',(0.,0.,1.));
#1552 = DIRECTION('',(0.707106781187,0.707106781187,0.));
#1553 = ( GEOMETRIC_REPRESENTATION_CONTEXT(3) 
GLOBAL_UNCERTAINTY_ASSIGNED_CONTEXT((#1557)) 
GLOBAL_UNIT_ASSIGNED_CONTEXT((#1554,#1555,#1556)) REPRESENTATION_CONTEXT
('Context #1','3D Context with UNIT and UNCERTAINTY') );
#1554 = ( LENGTH_UNIT() NAMED_UNIT(*) SI_UNIT(.MILLI.,.METRE.) );
#1555 = ( NAMED_UNIT(*) PLANE_ANGLE_UNIT() SI_UNIT($,.RADIAN.) );
#1556 = ( NAMED_UNIT(*) SI_UNIT($,.STERADIAN.) SOLID_ANGLE_UNIT() );
#1557 = UNCERTAINTY_MEASURE_WITH_UNIT(LENGTH_MEASURE(1.E-07),#1554,
  'distance_accuracy_value','confusion accuracy');
#1558 = PRODUCT_RELATED_PRODUCT_CATEGORY('part',$,(#7));
ENDSEC;
END-ISO-10303-21;
