ISO-10303-21;
HEADER;
FILE_DESCRIPTION(('FreeCAD Model'),'2;1');
FILE_NAME('Open CASCADE Shape Model','2026-09-12T22:01:46',('FreeCAD'),(
    'FreeCAD'),'Open CASCADE STEP processor 7.8','FreeCAD','Unknown');
FILE_SCHEMA(('AUTOMOTIVE_DESIGN { 1 0 10303 214 1 1 1 1 }'));
ENDSEC;
DATA;
#1 = APPLICATION_PROTOCOL_DEFINITION('international standard',
  'automotive_design',2000,#2);
#2 = APPLICATION_CONTEXT(
  'core data for automotive mechanical design processes');
#3 = SHAPE_DEFINITION_REPRESENTATION(#4,#10);
#4 = PRODUCT_DEFINITION_SHAPE('','',#5);
#5 = PRODUCT_DEFINITION('design','',#6,#9);
#6 = PRODUCT_DEFINITION_FORMATION('','',#7);
#7 = PRODUCT('Open CASCADE STEP translator 7.8 2',
  'Open CASCADE STEP translator 7.8 2','',(#8));
#8 = PRODUCT_CONTEXT('',#2,'mechanical');
#9 = PRODUCT_DEFINITION_CONTEXT('part definition',#2,'design');
#10 = SHAPE_REPRESENTATION('',(#11,#15,#1398),#1704);
#11 = AXIS2_PLACEMENT_3D('',#12,#13,#14);
#12 = CARTESIAN_POINT('',(0.,0.,0.));
#13 = DIRECTION('',(0.,0.,1.));
#14 = DIRECTION('',(1.,0.,-0.));
#15 = MANIFOLD_SOLID_BREP('',#16);
#16 = CLOSED_SHELL('',(#17,#57,#88,#212,#236,#370,#382,#399,#416,#433,
    #450,#481,#505,#529,#578,#595,#612,#700,#748,#772,#813,#838,#873,
    #890,#907,#919,#930,#947,#1061,#1083,#1114,#1138,#1162,#1179,#1204,
    #1237,#1261,#1287,#1304,#1329,#1358,#1381));
#17 = ADVANCED_FACE('',(#18),#52,.F.);
#18 = FACE_BOUND('',#19,.F.);
#19 = EDGE_LOOP('',(#20,#30,#38,#46));
#20 = ORIENTED_EDGE('',*,*,#21,.F.);
#21 = EDGE_CURVE('',#22,#24,#26,.T.);
#22 = VERTEX_POINT('',#23);
#23 = CARTESIAN_POINT('',(-45.,-30.,-8.));
#24 = VERTEX_POINT('',#25);
#25 = CARTESIAN_POINT('',(-45.,-30.,0.));
#26 = LINE('',#27,#28);
#27 = CARTESIAN_POINT('',(-45.,-30.,-8.));
#28 = VECTOR('',#29,1.);
#29 = DIRECTION('',(0.,0.,1.));
#30 = ORIENTED_EDGE('',*,*,#31,.T.);
#31 = EDGE_CURVE('',#22,#32,#34,.T.);
#32 = VERTEX_POINT('',#33);
#33 = CARTESIAN_POINT('',(-45.,30.,-8.));
#34 = LINE('',#35,#36);
#35 = CARTESIAN_POINT('',(-45.,-30.,-8.));
#36 = VECTOR('',#37,1.);
#37 = DIRECTION('',(0.,1.,0.));
#38 = ORIENTED_EDGE('',*,*,#39,.T.);
#39 = EDGE_CURVE('',#32,#40,#42,.T.);
#40 = VERTEX_POINT('',#41);
#41 = CARTESIAN_POINT('',(-45.,30.,0.));
#42 = LINE('',#43,#44);
#43 = CARTESIAN_POINT('',(-45.,30.,-8.));
#44 = VECTOR('',#45,1.);
#45 = DIRECTION('',(0.,0.,1.));
#46 = ORIENTED_EDGE('',*,*,#47,.F.);
#47 = EDGE_CURVE('',#24,#40,#48,.T.);
#48 = LINE('',#49,#50);
#49 = CARTESIAN_POINT('',(-45.,-30.,0.));
#50 = VECTOR('',#51,1.);
#51 = DIRECTION('',(0.,1.,0.));
#52 = PLANE('',#53);
#53 = AXIS2_PLACEMENT_3D('',#54,#55,#56);
#54 = CARTESIAN_POINT('',(-45.,-30.,-8.));
#55 = DIRECTION('',(1.,0.,0.));
#56 = DIRECTION('',(0.,0.,1.));
#57 = ADVANCED_FACE('',(#58),#83,.F.);
#58 = FACE_BOUND('',#59,.F.);
#59 = EDGE_LOOP('',(#60,#68,#69,#77));
#60 = ORIENTED_EDGE('',*,*,#61,.F.);
#61 = EDGE_CURVE('',#22,#62,#64,.T.);
#62 = VERTEX_POINT('',#63);
#63 = CARTESIAN_POINT('',(45.,-30.,-8.));
#64 = LINE('',#65,#66);
#65 = CARTESIAN_POINT('',(-45.,-30.,-8.));
#66 = VECTOR('',#67,1.);
#67 = DIRECTION('',(1.,0.,0.));
#68 = ORIENTED_EDGE('',*,*,#21,.T.);
#69 = ORIENTED_EDGE('',*,*,#70,.T.);
#70 = EDGE_CURVE('',#24,#71,#73,.T.);
#71 = VERTEX_POINT('',#72);
#72 = CARTESIAN_POINT('',(45.,-30.,0.));
#73 = LINE('',#74,#75);
#74 = CARTESIAN_POINT('',(-45.,-30.,0.));
#75 = VECTOR('',#76,1.);
#76 = DIRECTION('',(1.,0.,0.));
#77 = ORIENTED_EDGE('',*,*,#78,.F.);
#78 = EDGE_CURVE('',#62,#71,#79,.T.);
#79 = LINE('',#80,#81);
#80 = CARTESIAN_POINT('',(45.,-30.,-8.));
#81 = VECTOR('',#82,1.);
#82 = DIRECTION('',(0.,0.,1.));
#83 = PLANE('',#84);
#84 = AXIS2_PLACEMENT_3D('',#85,#86,#87);
#85 = CARTESIAN_POINT('',(-45.,-30.,-8.));
#86 = DIRECTION('',(0.,1.,0.));
#87 = DIRECTION('',(0.,0.,1.));
#88 = ADVANCED_FACE('',(#89,#107,#118,#129,#140,#151,#185,#196),#207,.T.
  );
#89 = FACE_BOUND('',#90,.T.);
#90 = EDGE_LOOP('',(#91,#92,#93,#101));
#91 = ORIENTED_EDGE('',*,*,#47,.F.);
#92 = ORIENTED_EDGE('',*,*,#70,.T.);
#93 = ORIENTED_EDGE('',*,*,#94,.T.);
#94 = EDGE_CURVE('',#71,#95,#97,.T.);
#95 = VERTEX_POINT('',#96);
#96 = CARTESIAN_POINT('',(45.,30.,0.));
#97 = LINE('',#98,#99);
#98 = CARTESIAN_POINT('',(45.,-30.,0.));
#99 = VECTOR('',#100,1.);
#100 = DIRECTION('',(0.,1.,0.));
#101 = ORIENTED_EDGE('',*,*,#102,.F.);
#102 = EDGE_CURVE('',#40,#95,#103,.T.);
#103 = LINE('',#104,#105);
#104 = CARTESIAN_POINT('',(-45.,30.,0.));
#105 = VECTOR('',#106,1.);
#106 = DIRECTION('',(1.,0.,0.));
#107 = FACE_BOUND('',#108,.T.);
#108 = EDGE_LOOP('',(#109));
#109 = ORIENTED_EDGE('',*,*,#110,.F.);
#110 = EDGE_CURVE('',#111,#111,#113,.T.);
#111 = VERTEX_POINT('',#112);
#112 = CARTESIAN_POINT('',(-33.3,-20.,0.));
#113 = CIRCLE('',#114,1.7);
#114 = AXIS2_PLACEMENT_3D('',#115,#116,#117);
#115 = CARTESIAN_POINT('',(-35.,-20.,0.));
#116 = DIRECTION('',(0.,0.,1.));
#117 = DIRECTION('',(1.,0.,0.));
#118 = FACE_BOUND('',#119,.T.);
#119 = EDGE_LOOP('',(#120));
#120 = ORIENTED_EDGE('',*,*,#121,.F.);
#121 = EDGE_CURVE('',#122,#122,#124,.T.);
#122 = VERTEX_POINT('',#123);
#123 = CARTESIAN_POINT('',(36.7,-20.,0.));
#124 = CIRCLE('',#125,1.7);
#125 = AXIS2_PLACEMENT_3D('',#126,#127,#128);
#126 = CARTESIAN_POINT('',(35.,-20.,0.));
#127 = DIRECTION('',(0.,0.,1.));
#128 = DIRECTION('',(1.,0.,0.));
#129 = FACE_BOUND('',#130,.T.);
#130 = EDGE_LOOP('',(#131));
#131 = ORIENTED_EDGE('',*,*,#132,.F.);
#132 = EDGE_CURVE('',#133,#133,#135,.T.);
#133 = VERTEX_POINT('',#134);
#134 = CARTESIAN_POINT('',(-13.,-2.449293598295E-16,0.));
#135 = CIRCLE('',#136,1.);
#136 = AXIS2_PLACEMENT_3D('',#137,#138,#139);
#137 = CARTESIAN_POINT('',(-14.,0.,0.));
#138 = DIRECTION('',(0.,0.,1.));
#139 = DIRECTION('',(1.,0.,0.));
#140 = FACE_BOUND('',#141,.T.);
#141 = EDGE_LOOP('',(#142));
#142 = ORIENTED_EDGE('',*,*,#143,.F.);
#143 = EDGE_CURVE('',#144,#144,#146,.T.);
#144 = VERTEX_POINT('',#145);
#145 = CARTESIAN_POINT('',(-33.3,20.,0.));
#146 = CIRCLE('',#147,1.7);
#147 = AXIS2_PLACEMENT_3D('',#148,#149,#150);
#148 = CARTESIAN_POINT('',(-35.,20.,0.));
#149 = DIRECTION('',(0.,0.,1.));
#150 = DIRECTION('',(1.,0.,0.));
#151 = FACE_BOUND('',#152,.T.);
#152 = EDGE_LOOP('',(#153,#163,#171,#179));
#153 = ORIENTED_EDGE('',*,*,#154,.F.);
#154 = EDGE_CURVE('',#155,#157,#159,.T.);
#155 = VERTEX_POINT('',#156);
#156 = CARTESIAN_POINT('',(-11.1,-5.9,0.));
#157 = VERTEX_POINT('',#158);
#158 = CARTESIAN_POINT('',(11.1,-5.9,0.));
#159 = LINE('',#160,#161);
#160 = CARTESIAN_POINT('',(-11.1,-5.9,0.));
#161 = VECTOR('',#162,1.);
#162 = DIRECTION('',(1.,0.,0.));
#163 = ORIENTED_EDGE('',*,*,#164,.T.);
#164 = EDGE_CURVE('',#155,#165,#167,.T.);
#165 = VERTEX_POINT('',#166);
#166 = CARTESIAN_POINT('',(-11.1,5.9,0.));
#167 = LINE('',#168,#169);
#168 = CARTESIAN_POINT('',(-11.1,-5.9,0.));
#169 = VECTOR('',#170,1.);
#170 = DIRECTION('',(0.,1.,0.));
#171 = ORIENTED_EDGE('',*,*,#172,.T.);
#172 = EDGE_CURVE('',#165,#173,#175,.T.);
#173 = VERTEX_POINT('',#174);
#174 = CARTESIAN_POINT('',(11.1,5.9,0.));
#175 = LINE('',#176,#177);
#176 = CARTESIAN_POINT('',(-11.1,5.9,0.));
#177 = VECTOR('',#178,1.);
#178 = DIRECTION('',(1.,0.,0.));
#179 = ORIENTED_EDGE('',*,*,#180,.F.);
#180 = EDGE_CURVE('',#157,#173,#181,.T.);
#181 = LINE('',#182,#183);
#182 = CARTESIAN_POINT('',(11.1,-5.9,0.));
#183 = VECTOR('',#184,1.);
#184 = DIRECTION('',(0.,1.,0.));
#185 = FACE_BOUND('',#186,.T.);
#186 = EDGE_LOOP('',(#187));
#187 = ORIENTED_EDGE('',*,*,#188,.F.);
#188 = EDGE_CURVE('',#189,#189,#191,.T.);
#189 = VERTEX_POINT('',#190);
#190 = CARTESIAN_POINT('',(15.,-2.449293598295E-16,0.));
#191 = CIRCLE('',#192,1.);
#192 = AXIS2_PLACEMENT_3D('',#193,#194,#195);
#193 = CARTESIAN_POINT('',(14.,0.,0.));
#194 = DIRECTION('',(0.,0.,1.));
#195 = DIRECTION('',(1.,0.,0.));
#196 = FACE_BOUND('',#197,.T.);
#197 = EDGE_LOOP('',(#198));
#198 = ORIENTED_EDGE('',*,*,#199,.F.);
#199 = EDGE_CURVE('',#200,#200,#202,.T.);
#200 = VERTEX_POINT('',#201);
#201 = CARTESIAN_POINT('',(36.7,20.,0.));
#202 = CIRCLE('',#203,1.7);
#203 = AXIS2_PLACEMENT_3D('',#204,#205,#206);
#204 = CARTESIAN_POINT('',(35.,20.,0.));
#205 = DIRECTION('',(0.,0.,1.));
#206 = DIRECTION('',(1.,0.,0.));
#207 = PLANE('',#208);
#208 = AXIS2_PLACEMENT_3D('',#209,#210,#211);
#209 = CARTESIAN_POINT('',(-45.,-30.,0.));
#210 = DIRECTION('',(0.,0.,1.));
#211 = DIRECTION('',(1.,0.,0.));
#212 = ADVANCED_FACE('',(#213),#231,.T.);
#213 = FACE_BOUND('',#214,.T.);
#214 = EDGE_LOOP('',(#215,#223,#224,#225));
#215 = ORIENTED_EDGE('',*,*,#216,.F.);
#216 = EDGE_CURVE('',#32,#217,#219,.T.);
#217 = VERTEX_POINT('',#218);
#218 = CARTESIAN_POINT('',(45.,30.,-8.));
#219 = LINE('',#220,#221);
#220 = CARTESIAN_POINT('',(-45.,30.,-8.));
#221 = VECTOR('',#222,1.);
#222 = DIRECTION('',(1.,0.,0.));
#223 = ORIENTED_EDGE('',*,*,#39,.T.);
#224 = ORIENTED_EDGE('',*,*,#102,.T.);
#225 = ORIENTED_EDGE('',*,*,#226,.F.);
#226 = EDGE_CURVE('',#217,#95,#227,.T.);
#227 = LINE('',#228,#229);
#228 = CARTESIAN_POINT('',(45.,30.,-8.));
#229 = VECTOR('',#230,1.);
#230 = DIRECTION('',(0.,0.,1.));
#231 = PLANE('',#232);
#232 = AXIS2_PLACEMENT_3D('',#233,#234,#235);
#233 = CARTESIAN_POINT('',(-45.,30.,-8.));
#234 = DIRECTION('',(0.,1.,0.));
#235 = DIRECTION('',(0.,0.,1.));
#236 = ADVANCED_FACE('',(#237,#248,#259,#270,#281,#292,#303,#354),#365,
  .F.);
#237 = FACE_BOUND('',#238,.F.);
#238 = EDGE_LOOP('',(#239,#240,#241,#247));
#239 = ORIENTED_EDGE('',*,*,#31,.F.);
#240 = ORIENTED_EDGE('',*,*,#61,.T.);
#241 = ORIENTED_EDGE('',*,*,#242,.T.);
#242 = EDGE_CURVE('',#62,#217,#243,.T.);
#243 = LINE('',#244,#245);
#244 = CARTESIAN_POINT('',(45.,-30.,-8.));
#245 = VECTOR('',#246,1.);
#246 = DIRECTION('',(0.,1.,0.));
#247 = ORIENTED_EDGE('',*,*,#216,.F.);
#248 = FACE_BOUND('',#249,.F.);
#249 = EDGE_LOOP('',(#250));
#250 = ORIENTED_EDGE('',*,*,#251,.F.);
#251 = EDGE_CURVE('',#252,#252,#254,.T.);
#252 = VERTEX_POINT('',#253);
#253 = CARTESIAN_POINT('',(-33.3,-20.,-8.));
#254 = CIRCLE('',#255,1.7);
#255 = AXIS2_PLACEMENT_3D('',#256,#257,#258);
#256 = CARTESIAN_POINT('',(-35.,-20.,-8.));
#257 = DIRECTION('',(0.,0.,1.));
#258 = DIRECTION('',(1.,0.,0.));
#259 = FACE_BOUND('',#260,.F.);
#260 = EDGE_LOOP('',(#261));
#261 = ORIENTED_EDGE('',*,*,#262,.F.);
#262 = EDGE_CURVE('',#263,#263,#265,.T.);
#263 = VERTEX_POINT('',#264);
#264 = CARTESIAN_POINT('',(36.7,-20.,-8.));
#265 = CIRCLE('',#266,1.7);
#266 = AXIS2_PLACEMENT_3D('',#267,#268,#269);
#267 = CARTESIAN_POINT('',(35.,-20.,-8.));
#268 = DIRECTION('',(0.,0.,1.));
#269 = DIRECTION('',(1.,0.,0.));
#270 = FACE_BOUND('',#271,.F.);
#271 = EDGE_LOOP('',(#272));
#272 = ORIENTED_EDGE('',*,*,#273,.F.);
#273 = EDGE_CURVE('',#274,#274,#276,.T.);
#274 = VERTEX_POINT('',#275);
#275 = CARTESIAN_POINT('',(-13.,-2.449293598295E-16,-8.));
#276 = CIRCLE('',#277,1.);
#277 = AXIS2_PLACEMENT_3D('',#278,#279,#280);
#278 = CARTESIAN_POINT('',(-14.,0.,-8.));
#279 = DIRECTION('',(0.,0.,1.));
#280 = DIRECTION('',(1.,0.,0.));
#281 = FACE_BOUND('',#282,.F.);
#282 = EDGE_LOOP('',(#283));
#283 = ORIENTED_EDGE('',*,*,#284,.F.);
#284 = EDGE_CURVE('',#285,#285,#287,.T.);
#285 = VERTEX_POINT('',#286);
#286 = CARTESIAN_POINT('',(-33.3,20.,-8.));
#287 = CIRCLE('',#288,1.7);
#288 = AXIS2_PLACEMENT_3D('',#289,#290,#291);
#289 = CARTESIAN_POINT('',(-35.,20.,-8.));
#290 = DIRECTION('',(0.,0.,1.));
#291 = DIRECTION('',(1.,0.,0.));
#292 = FACE_BOUND('',#293,.F.);
#293 = EDGE_LOOP('',(#294));
#294 = ORIENTED_EDGE('',*,*,#295,.F.);
#295 = EDGE_CURVE('',#296,#296,#298,.T.);
#296 = VERTEX_POINT('',#297);
#297 = CARTESIAN_POINT('',(15.,-2.449293598295E-16,-8.));
#298 = CIRCLE('',#299,1.);
#299 = AXIS2_PLACEMENT_3D('',#300,#301,#302);
#300 = CARTESIAN_POINT('',(14.,0.,-8.));
#301 = DIRECTION('',(0.,0.,1.));
#302 = DIRECTION('',(1.,0.,0.));
#303 = FACE_BOUND('',#304,.F.);
#304 = EDGE_LOOP('',(#305,#315,#324,#332,#340,#348));
#305 = ORIENTED_EDGE('',*,*,#306,.F.);
#306 = EDGE_CURVE('',#307,#309,#311,.T.);
#307 = VERTEX_POINT('',#308);
#308 = CARTESIAN_POINT('',(3.,-7.347880794884E-16,-8.));
#309 = VERTEX_POINT('',#310);
#310 = CARTESIAN_POINT('',(7.5,4.440892098501E-16,-8.));
#311 = LINE('',#312,#313);
#312 = CARTESIAN_POINT('',(-26.25,0.,-8.));
#313 = VECTOR('',#314,1.);
#314 = DIRECTION('',(1.,0.,0.));
#315 = ORIENTED_EDGE('',*,*,#316,.F.);
#316 = EDGE_CURVE('',#317,#307,#319,.T.);
#317 = VERTEX_POINT('',#318);
#318 = CARTESIAN_POINT('',(-3.,3.673940397442E-16,-8.));
#319 = CIRCLE('',#320,3.);
#320 = AXIS2_PLACEMENT_3D('',#321,#322,#323);
#321 = CARTESIAN_POINT('',(0.,0.,-8.));
#322 = DIRECTION('',(0.,0.,1.));
#323 = DIRECTION('',(1.,0.,0.));
#324 = ORIENTED_EDGE('',*,*,#325,.F.);
#325 = EDGE_CURVE('',#326,#317,#328,.T.);
#326 = VERTEX_POINT('',#327);
#327 = CARTESIAN_POINT('',(-7.5,4.440892098501E-16,-8.));
#328 = LINE('',#329,#330);
#329 = CARTESIAN_POINT('',(-26.25,0.,-8.));
#330 = VECTOR('',#331,1.);
#331 = DIRECTION('',(1.,0.,0.));
#332 = ORIENTED_EDGE('',*,*,#333,.T.);
#333 = EDGE_CURVE('',#326,#334,#336,.T.);
#334 = VERTEX_POINT('',#335);
#335 = CARTESIAN_POINT('',(-7.5,15.,-8.));
#336 = LINE('',#337,#338);
#337 = CARTESIAN_POINT('',(-7.5,4.775635094611,-8.));
#338 = VECTOR('',#339,1.);
#339 = DIRECTION('',(0.,1.,0.));
#340 = ORIENTED_EDGE('',*,*,#341,.F.);
#341 = EDGE_CURVE('',#342,#334,#344,.T.);
#342 = VERTEX_POINT('',#343);
#343 = CARTESIAN_POINT('',(7.5,15.,-8.));
#344 = LINE('',#345,#346);
#345 = CARTESIAN_POINT('',(-26.25,15.,-8.));
#346 = VECTOR('',#347,1.);
#347 = DIRECTION('',(-1.,0.,0.));
#348 = ORIENTED_EDGE('',*,*,#349,.F.);
#349 = EDGE_CURVE('',#309,#342,#350,.T.);
#350 = LINE('',#351,#352);
#351 = CARTESIAN_POINT('',(7.5,4.775635094611,-8.));
#352 = VECTOR('',#353,1.);
#353 = DIRECTION('',(0.,1.,0.));
#354 = FACE_BOUND('',#355,.F.);
#355 = EDGE_LOOP('',(#356));
#356 = ORIENTED_EDGE('',*,*,#357,.F.);
#357 = EDGE_CURVE('',#358,#358,#360,.T.);
#358 = VERTEX_POINT('',#359);
#359 = CARTESIAN_POINT('',(36.7,20.,-8.));
#360 = CIRCLE('',#361,1.7);
#361 = AXIS2_PLACEMENT_3D('',#362,#363,#364);
#362 = CARTESIAN_POINT('',(35.,20.,-8.));
#363 = DIRECTION('',(0.,0.,1.));
#364 = DIRECTION('',(1.,0.,0.));
#365 = PLANE('',#366);
#366 = AXIS2_PLACEMENT_3D('',#367,#368,#369);
#367 = CARTESIAN_POINT('',(-45.,-30.,-8.));
#368 = DIRECTION('',(0.,0.,1.));
#369 = DIRECTION('',(1.,0.,0.));
#370 = ADVANCED_FACE('',(#371),#377,.T.);
#371 = FACE_BOUND('',#372,.T.);
#372 = EDGE_LOOP('',(#373,#374,#375,#376));
#373 = ORIENTED_EDGE('',*,*,#78,.F.);
#374 = ORIENTED_EDGE('',*,*,#242,.T.);
#375 = ORIENTED_EDGE('',*,*,#226,.T.);
#376 = ORIENTED_EDGE('',*,*,#94,.F.);
#377 = PLANE('',#378);
#378 = AXIS2_PLACEMENT_3D('',#379,#380,#381);
#379 = CARTESIAN_POINT('',(45.,-30.,-8.));
#380 = DIRECTION('',(1.,0.,0.));
#381 = DIRECTION('',(0.,0.,1.));
#382 = ADVANCED_FACE('',(#383),#394,.F.);
#383 = FACE_BOUND('',#384,.F.);
#384 = EDGE_LOOP('',(#385,#386,#392,#393));
#385 = ORIENTED_EDGE('',*,*,#110,.F.);
#386 = ORIENTED_EDGE('',*,*,#387,.F.);
#387 = EDGE_CURVE('',#252,#111,#388,.T.);
#388 = LINE('',#389,#390);
#389 = CARTESIAN_POINT('',(-33.3,-20.,-8.));
#390 = VECTOR('',#391,1.);
#391 = DIRECTION('',(0.,0.,1.));
#392 = ORIENTED_EDGE('',*,*,#251,.T.);
#393 = ORIENTED_EDGE('',*,*,#387,.T.);
#394 = CYLINDRICAL_SURFACE('',#395,1.7);
#395 = AXIS2_PLACEMENT_3D('',#396,#397,#398);
#396 = CARTESIAN_POINT('',(-35.,-20.,-8.));
#397 = DIRECTION('',(0.,0.,1.));
#398 = DIRECTION('',(1.,0.,0.));
#399 = ADVANCED_FACE('',(#400),#411,.F.);
#400 = FACE_BOUND('',#401,.F.);
#401 = EDGE_LOOP('',(#402,#403,#409,#410));
#402 = ORIENTED_EDGE('',*,*,#121,.F.);
#403 = ORIENTED_EDGE('',*,*,#404,.F.);
#404 = EDGE_CURVE('',#263,#122,#405,.T.);
#405 = LINE('',#406,#407);
#406 = CARTESIAN_POINT('',(36.7,-20.,-8.));
#407 = VECTOR('',#408,1.);
#408 = DIRECTION('',(0.,0.,1.));
#409 = ORIENTED_EDGE('',*,*,#262,.T.);
#410 = ORIENTED_EDGE('',*,*,#404,.T.);
#411 = CYLINDRICAL_SURFACE('',#412,1.7);
#412 = AXIS2_PLACEMENT_3D('',#413,#414,#415);
#413 = CARTESIAN_POINT('',(35.,-20.,-8.));
#414 = DIRECTION('',(0.,0.,1.));
#415 = DIRECTION('',(1.,0.,0.));
#416 = ADVANCED_FACE('',(#417),#428,.F.);
#417 = FACE_BOUND('',#418,.F.);
#418 = EDGE_LOOP('',(#419,#420,#426,#427));
#419 = ORIENTED_EDGE('',*,*,#132,.F.);
#420 = ORIENTED_EDGE('',*,*,#421,.F.);
#421 = EDGE_CURVE('',#274,#133,#422,.T.);
#422 = LINE('',#423,#424);
#423 = CARTESIAN_POINT('',(-13.,-2.449293598295E-16,-8.));
#424 = VECTOR('',#425,1.);
#425 = DIRECTION('',(0.,0.,1.));
#426 = ORIENTED_EDGE('',*,*,#273,.T.);
#427 = ORIENTED_EDGE('',*,*,#421,.T.);
#428 = CYLINDRICAL_SURFACE('',#429,1.);
#429 = AXIS2_PLACEMENT_3D('',#430,#431,#432);
#430 = CARTESIAN_POINT('',(-14.,0.,-8.));
#431 = DIRECTION('',(0.,0.,1.));
#432 = DIRECTION('',(1.,0.,0.));
#433 = ADVANCED_FACE('',(#434),#445,.F.);
#434 = FACE_BOUND('',#435,.F.);
#435 = EDGE_LOOP('',(#436,#437,#443,#444));
#436 = ORIENTED_EDGE('',*,*,#143,.F.);
#437 = ORIENTED_EDGE('',*,*,#438,.F.);
#438 = EDGE_CURVE('',#285,#144,#439,.T.);
#439 = LINE('',#440,#441);
#440 = CARTESIAN_POINT('',(-33.3,20.,-8.));
#441 = VECTOR('',#442,1.);
#442 = DIRECTION('',(0.,0.,1.));
#443 = ORIENTED_EDGE('',*,*,#284,.T.);
#444 = ORIENTED_EDGE('',*,*,#438,.T.);
#445 = CYLINDRICAL_SURFACE('',#446,1.7);
#446 = AXIS2_PLACEMENT_3D('',#447,#448,#449);
#447 = CARTESIAN_POINT('',(-35.,20.,-8.));
#448 = DIRECTION('',(0.,0.,1.));
#449 = DIRECTION('',(1.,0.,0.));
#450 = ADVANCED_FACE('',(#451),#476,.T.);
#451 = FACE_BOUND('',#452,.T.);
#452 = EDGE_LOOP('',(#453,#463,#469,#470));
#453 = ORIENTED_EDGE('',*,*,#454,.F.);
#454 = EDGE_CURVE('',#455,#457,#459,.T.);
#455 = VERTEX_POINT('',#456);
#456 = CARTESIAN_POINT('',(-11.1,-5.9,-6.));
#457 = VERTEX_POINT('',#458);
#458 = CARTESIAN_POINT('',(11.1,-5.9,-6.));
#459 = LINE('',#460,#461);
#460 = CARTESIAN_POINT('',(-11.1,-5.9,-6.));
#461 = VECTOR('',#462,1.);
#462 = DIRECTION('',(1.,0.,0.));
#463 = ORIENTED_EDGE('',*,*,#464,.T.);
#464 = EDGE_CURVE('',#455,#155,#465,.T.);
#465 = LINE('',#466,#467);
#466 = CARTESIAN_POINT('',(-11.1,-5.9,-6.));
#467 = VECTOR('',#468,1.);
#468 = DIRECTION('',(0.,0.,1.));
#469 = ORIENTED_EDGE('',*,*,#154,.T.);
#470 = ORIENTED_EDGE('',*,*,#471,.F.);
#471 = EDGE_CURVE('',#457,#157,#472,.T.);
#472 = LINE('',#473,#474);
#473 = CARTESIAN_POINT('',(11.1,-5.9,-6.));
#474 = VECTOR('',#475,1.);
#475 = DIRECTION('',(0.,0.,1.));
#476 = PLANE('',#477);
#477 = AXIS2_PLACEMENT_3D('',#478,#479,#480);
#478 = CARTESIAN_POINT('',(-11.1,-5.9,-6.));
#479 = DIRECTION('',(0.,1.,0.));
#480 = DIRECTION('',(0.,0.,1.));
#481 = ADVANCED_FACE('',(#482),#500,.T.);
#482 = FACE_BOUND('',#483,.T.);
#483 = EDGE_LOOP('',(#484,#485,#493,#499));
#484 = ORIENTED_EDGE('',*,*,#464,.F.);
#485 = ORIENTED_EDGE('',*,*,#486,.T.);
#486 = EDGE_CURVE('',#455,#487,#489,.T.);
#487 = VERTEX_POINT('',#488);
#488 = CARTESIAN_POINT('',(-11.1,5.9,-6.));
#489 = LINE('',#490,#491);
#490 = CARTESIAN_POINT('',(-11.1,-5.9,-6.));
#491 = VECTOR('',#492,1.);
#492 = DIRECTION('',(0.,1.,0.));
#493 = ORIENTED_EDGE('',*,*,#494,.T.);
#494 = EDGE_CURVE('',#487,#165,#495,.T.);
#495 = LINE('',#496,#497);
#496 = CARTESIAN_POINT('',(-11.1,5.9,-6.));
#497 = VECTOR('',#498,1.);
#498 = DIRECTION('',(0.,0.,1.));
#499 = ORIENTED_EDGE('',*,*,#164,.F.);
#500 = PLANE('',#501);
#501 = AXIS2_PLACEMENT_3D('',#502,#503,#504);
#502 = CARTESIAN_POINT('',(-11.1,-5.9,-6.));
#503 = DIRECTION('',(1.,0.,0.));
#504 = DIRECTION('',(0.,0.,1.));
#505 = ADVANCED_FACE('',(#506),#524,.F.);
#506 = FACE_BOUND('',#507,.F.);
#507 = EDGE_LOOP('',(#508,#509,#517,#523));
#508 = ORIENTED_EDGE('',*,*,#471,.F.);
#509 = ORIENTED_EDGE('',*,*,#510,.T.);
#510 = EDGE_CURVE('',#457,#511,#513,.T.);
#511 = VERTEX_POINT('',#512);
#512 = CARTESIAN_POINT('',(11.1,5.9,-6.));
#513 = LINE('',#514,#515);
#514 = CARTESIAN_POINT('',(11.1,-5.9,-6.));
#515 = VECTOR('',#516,1.);
#516 = DIRECTION('',(0.,1.,0.));
#517 = ORIENTED_EDGE('',*,*,#518,.T.);
#518 = EDGE_CURVE('',#511,#173,#519,.T.);
#519 = LINE('',#520,#521);
#520 = CARTESIAN_POINT('',(11.1,5.9,-6.));
#521 = VECTOR('',#522,1.);
#522 = DIRECTION('',(0.,0.,1.));
#523 = ORIENTED_EDGE('',*,*,#180,.F.);
#524 = PLANE('',#525);
#525 = AXIS2_PLACEMENT_3D('',#526,#527,#528);
#526 = CARTESIAN_POINT('',(11.1,-5.9,-6.));
#527 = DIRECTION('',(1.,0.,0.));
#528 = DIRECTION('',(0.,0.,1.));
#529 = ADVANCED_FACE('',(#530),#573,.F.);
#530 = FACE_BOUND('',#531,.F.);
#531 = EDGE_LOOP('',(#532,#540,#541,#542,#543,#551,#559,#567));
#532 = ORIENTED_EDGE('',*,*,#533,.F.);
#533 = EDGE_CURVE('',#487,#534,#536,.T.);
#534 = VERTEX_POINT('',#535);
#535 = CARTESIAN_POINT('',(-7.5,5.9,-6.));
#536 = LINE('',#537,#538);
#537 = CARTESIAN_POINT('',(-11.1,5.9,-6.));
#538 = VECTOR('',#539,1.);
#539 = DIRECTION('',(1.,0.,0.));
#540 = ORIENTED_EDGE('',*,*,#494,.T.);
#541 = ORIENTED_EDGE('',*,*,#172,.T.);
#542 = ORIENTED_EDGE('',*,*,#518,.F.);
#543 = ORIENTED_EDGE('',*,*,#544,.F.);
#544 = EDGE_CURVE('',#545,#511,#547,.T.);
#545 = VERTEX_POINT('',#546);
#546 = CARTESIAN_POINT('',(7.5,5.9,-6.));
#547 = LINE('',#548,#549);
#548 = CARTESIAN_POINT('',(-11.1,5.9,-6.));
#549 = VECTOR('',#550,1.);
#550 = DIRECTION('',(1.,0.,0.));
#551 = ORIENTED_EDGE('',*,*,#552,.F.);
#552 = EDGE_CURVE('',#553,#545,#555,.T.);
#553 = VERTEX_POINT('',#554);
#554 = CARTESIAN_POINT('',(7.5,5.9,-2.746112550374));
#555 = LINE('',#556,#557);
#556 = CARTESIAN_POINT('',(7.5,5.9,-22.74759526419));
#557 = VECTOR('',#558,1.);
#558 = DIRECTION('',(0.,0.,-1.));
#559 = ORIENTED_EDGE('',*,*,#560,.F.);
#560 = EDGE_CURVE('',#561,#553,#563,.T.);
#561 = VERTEX_POINT('',#562);
#562 = CARTESIAN_POINT('',(-7.5,5.9,-2.746112550374));
#563 = LINE('',#564,#565);
#564 = CARTESIAN_POINT('',(-9.3,5.9,-2.746112550374));
#565 = VECTOR('',#566,1.);
#566 = DIRECTION('',(1.,0.,0.));
#567 = ORIENTED_EDGE('',*,*,#568,.T.);
#568 = EDGE_CURVE('',#561,#534,#569,.T.);
#569 = LINE('',#570,#571);
#570 = CARTESIAN_POINT('',(-7.5,5.9,-22.74759526419));
#571 = VECTOR('',#572,1.);
#572 = DIRECTION('',(0.,0.,-1.));
#573 = PLANE('',#574);
#574 = AXIS2_PLACEMENT_3D('',#575,#576,#577);
#575 = CARTESIAN_POINT('',(-11.1,5.9,-6.));
#576 = DIRECTION('',(0.,1.,0.));
#577 = DIRECTION('',(0.,0.,1.));
#578 = ADVANCED_FACE('',(#579),#590,.F.);
#579 = FACE_BOUND('',#580,.F.);
#580 = EDGE_LOOP('',(#581,#582,#588,#589));
#581 = ORIENTED_EDGE('',*,*,#188,.F.);
#582 = ORIENTED_EDGE('',*,*,#583,.F.);
#583 = EDGE_CURVE('',#296,#189,#584,.T.);
#584 = LINE('',#585,#586);
#585 = CARTESIAN_POINT('',(15.,-2.449293598295E-16,-8.));
#586 = VECTOR('',#587,1.);
#587 = DIRECTION('',(0.,0.,1.));
#588 = ORIENTED_EDGE('',*,*,#295,.T.);
#589 = ORIENTED_EDGE('',*,*,#583,.T.);
#590 = CYLINDRICAL_SURFACE('',#591,1.);
#591 = AXIS2_PLACEMENT_3D('',#592,#593,#594);
#592 = CARTESIAN_POINT('',(14.,0.,-8.));
#593 = DIRECTION('',(0.,0.,1.));
#594 = DIRECTION('',(1.,0.,0.));
#595 = ADVANCED_FACE('',(#596),#607,.F.);
#596 = FACE_BOUND('',#597,.F.);
#597 = EDGE_LOOP('',(#598,#599,#605,#606));
#598 = ORIENTED_EDGE('',*,*,#199,.F.);
#599 = ORIENTED_EDGE('',*,*,#600,.F.);
#600 = EDGE_CURVE('',#358,#200,#601,.T.);
#601 = LINE('',#602,#603);
#602 = CARTESIAN_POINT('',(36.7,20.,-8.));
#603 = VECTOR('',#604,1.);
#604 = DIRECTION('',(0.,0.,1.));
#605 = ORIENTED_EDGE('',*,*,#357,.T.);
#606 = ORIENTED_EDGE('',*,*,#600,.T.);
#607 = CYLINDRICAL_SURFACE('',#608,1.7);
#608 = AXIS2_PLACEMENT_3D('',#609,#610,#611);
#609 = CARTESIAN_POINT('',(35.,20.,-8.));
#610 = DIRECTION('',(0.,0.,1.));
#611 = DIRECTION('',(1.,0.,0.));
#612 = ADVANCED_FACE('',(#613),#695,.T.);
#613 = FACE_BOUND('',#614,.T.);
#614 = EDGE_LOOP('',(#615,#623,#631,#637,#638,#647,#655,#663,#671,#679,
    #687,#694));
#615 = ORIENTED_EDGE('',*,*,#616,.F.);
#616 = EDGE_CURVE('',#617,#326,#619,.T.);
#617 = VERTEX_POINT('',#618);
#618 = CARTESIAN_POINT('',(-7.5,-3.75,-14.49519052838));
#619 = LINE('',#620,#621);
#620 = CARTESIAN_POINT('',(-7.5,-3.75,-14.49519052838));
#621 = VECTOR('',#622,1.);
#622 = DIRECTION('',(0.,0.5,0.866025403784));
#623 = ORIENTED_EDGE('',*,*,#624,.T.);
#624 = EDGE_CURVE('',#617,#625,#627,.T.);
#625 = VERTEX_POINT('',#626);
#626 = CARTESIAN_POINT('',(7.5,-3.75,-14.49519052838));
#627 = LINE('',#628,#629);
#628 = CARTESIAN_POINT('',(-7.5,-3.75,-14.49519052838));
#629 = VECTOR('',#630,1.);
#630 = DIRECTION('',(1.,0.,0.));
#631 = ORIENTED_EDGE('',*,*,#632,.T.);
#632 = EDGE_CURVE('',#625,#309,#633,.T.);
#633 = LINE('',#634,#635);
#634 = CARTESIAN_POINT('',(7.5,-3.75,-14.49519052838));
#635 = VECTOR('',#636,1.);
#636 = DIRECTION('',(0.,0.5,0.866025403784));
#637 = ORIENTED_EDGE('',*,*,#306,.F.);
#638 = ORIENTED_EDGE('',*,*,#639,.T.);
#639 = EDGE_CURVE('',#307,#640,#642,.T.);
#640 = VERTEX_POINT('',#641);
#641 = CARTESIAN_POINT('',(2.768874620973,1.154700538379,-6.));
#642 = ELLIPSE('',#643,6.,3.);
#643 = AXIS2_PLACEMENT_3D('',#644,#645,#646);
#644 = CARTESIAN_POINT('',(0.,0.,-8.));
#645 = DIRECTION('',(0.,-0.866025403784,0.5));
#646 = DIRECTION('',(0.,0.5,0.866025403784));
#647 = ORIENTED_EDGE('',*,*,#648,.T.);
#648 = EDGE_CURVE('',#640,#649,#651,.T.);
#649 = VERTEX_POINT('',#650);
#650 = CARTESIAN_POINT('',(7.5,1.154700538379,-6.));
#651 = LINE('',#652,#653);
#652 = CARTESIAN_POINT('',(-9.3,1.154700538379,-6.));
#653 = VECTOR('',#654,1.);
#654 = DIRECTION('',(1.,0.,0.));
#655 = ORIENTED_EDGE('',*,*,#656,.T.);
#656 = EDGE_CURVE('',#649,#657,#659,.T.);
#657 = VERTEX_POINT('',#658);
#658 = CARTESIAN_POINT('',(7.5,3.75,-1.504809471617));
#659 = LINE('',#660,#661);
#660 = CARTESIAN_POINT('',(7.5,-3.75,-14.49519052838));
#661 = VECTOR('',#662,1.);
#662 = DIRECTION('',(0.,0.5,0.866025403784));
#663 = ORIENTED_EDGE('',*,*,#664,.F.);
#664 = EDGE_CURVE('',#665,#657,#667,.T.);
#665 = VERTEX_POINT('',#666);
#666 = CARTESIAN_POINT('',(-7.5,3.75,-1.504809471617));
#667 = LINE('',#668,#669);
#668 = CARTESIAN_POINT('',(-7.5,3.75,-1.504809471617));
#669 = VECTOR('',#670,1.);
#670 = DIRECTION('',(1.,0.,0.));
#671 = ORIENTED_EDGE('',*,*,#672,.F.);
#672 = EDGE_CURVE('',#673,#665,#675,.T.);
#673 = VERTEX_POINT('',#674);
#674 = CARTESIAN_POINT('',(-7.5,1.154700538379,-6.));
#675 = LINE('',#676,#677);
#676 = CARTESIAN_POINT('',(-7.5,-3.75,-14.49519052838));
#677 = VECTOR('',#678,1.);
#678 = DIRECTION('',(0.,0.5,0.866025403784));
#679 = ORIENTED_EDGE('',*,*,#680,.T.);
#680 = EDGE_CURVE('',#673,#681,#683,.T.);
#681 = VERTEX_POINT('',#682);
#682 = CARTESIAN_POINT('',(-2.768874620973,1.154700538379,-6.));
#683 = LINE('',#684,#685);
#684 = CARTESIAN_POINT('',(-9.3,1.154700538379,-6.));
#685 = VECTOR('',#686,1.);
#686 = DIRECTION('',(1.,0.,0.));
#687 = ORIENTED_EDGE('',*,*,#688,.T.);
#688 = EDGE_CURVE('',#681,#317,#689,.T.);
#689 = ELLIPSE('',#690,6.,3.);
#690 = AXIS2_PLACEMENT_3D('',#691,#692,#693);
#691 = CARTESIAN_POINT('',(0.,0.,-8.));
#692 = DIRECTION('',(0.,-0.866025403784,0.5));
#693 = DIRECTION('',(0.,0.5,0.866025403784));
#694 = ORIENTED_EDGE('',*,*,#325,.F.);
#695 = PLANE('',#696);
#696 = AXIS2_PLACEMENT_3D('',#697,#698,#699);
#697 = CARTESIAN_POINT('',(-7.5,-3.75,-14.49519052838));
#698 = DIRECTION('',(0.,-0.866025403784,0.5));
#699 = DIRECTION('',(1.,0.,0.));
#700 = ADVANCED_FACE('',(#701),#743,.T.);
#701 = FACE_BOUND('',#702,.T.);
#702 = EDGE_LOOP('',(#703,#711,#719,#727,#735,#741,#742));
#703 = ORIENTED_EDGE('',*,*,#704,.F.);
#704 = EDGE_CURVE('',#705,#625,#707,.T.);
#705 = VERTEX_POINT('',#706);
#706 = CARTESIAN_POINT('',(7.5,39.551270189222,-39.49519052838));
#707 = LINE('',#708,#709);
#708 = CARTESIAN_POINT('',(7.5,39.551270189222,-39.49519052838));
#709 = VECTOR('',#710,1.);
#710 = DIRECTION('',(0.,-0.866025403784,0.5));
#711 = ORIENTED_EDGE('',*,*,#712,.T.);
#712 = EDGE_CURVE('',#705,#713,#715,.T.);
#713 = VERTEX_POINT('',#714);
#714 = CARTESIAN_POINT('',(7.5,40.351270189222,-38.10954988232));
#715 = LINE('',#716,#717);
#716 = CARTESIAN_POINT('',(7.5,39.551270189222,-39.49519052838));
#717 = VECTOR('',#718,1.);
#718 = DIRECTION('',(0.,0.5,0.866025403784));
#719 = ORIENTED_EDGE('',*,*,#720,.T.);
#720 = EDGE_CURVE('',#713,#721,#723,.T.);
#721 = VERTEX_POINT('',#722);
#722 = CARTESIAN_POINT('',(7.5,46.251270189222,-27.89045011767));
#723 = LINE('',#724,#725);
#724 = CARTESIAN_POINT('',(7.5,39.551270189222,-39.49519052838));
#725 = VECTOR('',#726,1.);
#726 = DIRECTION('',(0.,0.5,0.866025403784));
#727 = ORIENTED_EDGE('',*,*,#728,.T.);
#728 = EDGE_CURVE('',#721,#729,#731,.T.);
#729 = VERTEX_POINT('',#730);
#730 = CARTESIAN_POINT('',(7.5,47.051270189222,-26.50480947161));
#731 = LINE('',#732,#733);
#732 = CARTESIAN_POINT('',(7.5,39.551270189222,-39.49519052838));
#733 = VECTOR('',#734,1.);
#734 = DIRECTION('',(0.,0.5,0.866025403784));
#735 = ORIENTED_EDGE('',*,*,#736,.T.);
#736 = EDGE_CURVE('',#729,#342,#737,.T.);
#737 = LINE('',#738,#739);
#738 = CARTESIAN_POINT('',(7.5,47.051270189222,-26.50480947161));
#739 = VECTOR('',#740,1.);
#740 = DIRECTION('',(0.,-0.866025403784,0.5));
#741 = ORIENTED_EDGE('',*,*,#349,.F.);
#742 = ORIENTED_EDGE('',*,*,#632,.F.);
#743 = PLANE('',#744);
#744 = AXIS2_PLACEMENT_3D('',#745,#746,#747);
#745 = CARTESIAN_POINT('',(7.5,39.551270189222,-39.49519052838));
#746 = DIRECTION('',(1.,0.,0.));
#747 = DIRECTION('',(0.,-0.866025403784,0.5));
#748 = ADVANCED_FACE('',(#749),#767,.T.);
#749 = FACE_BOUND('',#750,.T.);
#750 = EDGE_LOOP('',(#751,#759,#765,#766));
#751 = ORIENTED_EDGE('',*,*,#752,.F.);
#752 = EDGE_CURVE('',#753,#729,#755,.T.);
#753 = VERTEX_POINT('',#754);
#754 = CARTESIAN_POINT('',(-7.5,47.051270189222,-26.50480947161));
#755 = LINE('',#756,#757);
#756 = CARTESIAN_POINT('',(-7.5,47.051270189222,-26.50480947161));
#757 = VECTOR('',#758,1.);
#758 = DIRECTION('',(1.,0.,0.));
#759 = ORIENTED_EDGE('',*,*,#760,.T.);
#760 = EDGE_CURVE('',#753,#334,#761,.T.);
#761 = LINE('',#762,#763);
#762 = CARTESIAN_POINT('',(-7.5,47.051270189222,-26.50480947161));
#763 = VECTOR('',#764,1.);
#764 = DIRECTION('',(0.,-0.866025403784,0.5));
#765 = ORIENTED_EDGE('',*,*,#341,.F.);
#766 = ORIENTED_EDGE('',*,*,#736,.F.);
#767 = PLANE('',#768);
#768 = AXIS2_PLACEMENT_3D('',#769,#770,#771);
#769 = CARTESIAN_POINT('',(-7.5,47.051270189222,-26.50480947161));
#770 = DIRECTION('',(0.,0.5,0.866025403784));
#771 = DIRECTION('',(0.,-0.866025403784,0.5));
#772 = ADVANCED_FACE('',(#773),#808,.F.);
#773 = FACE_BOUND('',#774,.F.);
#774 = EDGE_LOOP('',(#775,#783,#791,#799,#805,#806,#807));
#775 = ORIENTED_EDGE('',*,*,#776,.F.);
#776 = EDGE_CURVE('',#777,#617,#779,.T.);
#777 = VERTEX_POINT('',#778);
#778 = CARTESIAN_POINT('',(-7.5,39.551270189222,-39.49519052838));
#779 = LINE('',#780,#781);
#780 = CARTESIAN_POINT('',(-7.5,39.551270189222,-39.49519052838));
#781 = VECTOR('',#782,1.);
#782 = DIRECTION('',(0.,-0.866025403784,0.5));
#783 = ORIENTED_EDGE('',*,*,#784,.T.);
#784 = EDGE_CURVE('',#777,#785,#787,.T.);
#785 = VERTEX_POINT('',#786);
#786 = CARTESIAN_POINT('',(-7.5,40.351270189222,-38.10954988232));
#787 = LINE('',#788,#789);
#788 = CARTESIAN_POINT('',(-7.5,39.551270189222,-39.49519052838));
#789 = VECTOR('',#790,1.);
#790 = DIRECTION('',(0.,0.5,0.866025403784));
#791 = ORIENTED_EDGE('',*,*,#792,.T.);
#792 = EDGE_CURVE('',#785,#793,#795,.T.);
#793 = VERTEX_POINT('',#794);
#794 = CARTESIAN_POINT('',(-7.5,46.251270189222,-27.89045011767));
#795 = LINE('',#796,#797);
#796 = CARTESIAN_POINT('',(-7.5,39.551270189222,-39.49519052838));
#797 = VECTOR('',#798,1.);
#798 = DIRECTION('',(0.,0.5,0.866025403784));
#799 = ORIENTED_EDGE('',*,*,#800,.T.);
#800 = EDGE_CURVE('',#793,#753,#801,.T.);
#801 = LINE('',#802,#803);
#802 = CARTESIAN_POINT('',(-7.5,39.551270189222,-39.49519052838));
#803 = VECTOR('',#804,1.);
#804 = DIRECTION('',(0.,0.5,0.866025403784));
#805 = ORIENTED_EDGE('',*,*,#760,.T.);
#806 = ORIENTED_EDGE('',*,*,#333,.F.);
#807 = ORIENTED_EDGE('',*,*,#616,.F.);
#808 = PLANE('',#809);
#809 = AXIS2_PLACEMENT_3D('',#810,#811,#812);
#810 = CARTESIAN_POINT('',(-7.5,39.551270189222,-39.49519052838));
#811 = DIRECTION('',(1.,0.,0.));
#812 = DIRECTION('',(0.,-0.866025403784,0.5));
#813 = ADVANCED_FACE('',(#814),#833,.F.);
#814 = FACE_BOUND('',#815,.F.);
#815 = EDGE_LOOP('',(#816,#824,#831,#832));
#816 = ORIENTED_EDGE('',*,*,#817,.T.);
#817 = EDGE_CURVE('',#307,#818,#820,.T.);
#818 = VERTEX_POINT('',#819);
#819 = CARTESIAN_POINT('',(3.,-7.347880794884E-16,-6.));
#820 = LINE('',#821,#822);
#821 = CARTESIAN_POINT('',(3.,-7.347880794884E-16,-8.));
#822 = VECTOR('',#823,1.);
#823 = DIRECTION('',(0.,0.,1.));
#824 = ORIENTED_EDGE('',*,*,#825,.F.);
#825 = EDGE_CURVE('',#681,#818,#826,.T.);
#826 = CIRCLE('',#827,3.);
#827 = AXIS2_PLACEMENT_3D('',#828,#829,#830);
#828 = CARTESIAN_POINT('',(0.,0.,-6.));
#829 = DIRECTION('',(0.,0.,1.));
#830 = DIRECTION('',(1.,0.,0.));
#831 = ORIENTED_EDGE('',*,*,#688,.T.);
#832 = ORIENTED_EDGE('',*,*,#316,.T.);
#833 = CYLINDRICAL_SURFACE('',#834,3.);
#834 = AXIS2_PLACEMENT_3D('',#835,#836,#837);
#835 = CARTESIAN_POINT('',(0.,0.,-8.));
#836 = DIRECTION('',(0.,0.,1.));
#837 = DIRECTION('',(1.,0.,0.));
#838 = ADVANCED_FACE('',(#839),#868,.T.);
#839 = FACE_BOUND('',#840,.T.);
#840 = EDGE_LOOP('',(#841,#842,#843,#844,#845,#846,#852,#853,#860,#861,
    #862));
#841 = ORIENTED_EDGE('',*,*,#533,.F.);
#842 = ORIENTED_EDGE('',*,*,#486,.F.);
#843 = ORIENTED_EDGE('',*,*,#454,.T.);
#844 = ORIENTED_EDGE('',*,*,#510,.T.);
#845 = ORIENTED_EDGE('',*,*,#544,.F.);
#846 = ORIENTED_EDGE('',*,*,#847,.F.);
#847 = EDGE_CURVE('',#649,#545,#848,.T.);
#848 = LINE('',#849,#850);
#849 = CARTESIAN_POINT('',(7.5,16.825635094611,-6.));
#850 = VECTOR('',#851,1.);
#851 = DIRECTION('',(0.,1.,0.));
#852 = ORIENTED_EDGE('',*,*,#648,.F.);
#853 = ORIENTED_EDGE('',*,*,#854,.F.);
#854 = EDGE_CURVE('',#818,#640,#855,.T.);
#855 = CIRCLE('',#856,3.);
#856 = AXIS2_PLACEMENT_3D('',#857,#858,#859);
#857 = CARTESIAN_POINT('',(0.,0.,-6.));
#858 = DIRECTION('',(0.,0.,1.));
#859 = DIRECTION('',(1.,0.,0.));
#860 = ORIENTED_EDGE('',*,*,#825,.F.);
#861 = ORIENTED_EDGE('',*,*,#680,.F.);
#862 = ORIENTED_EDGE('',*,*,#863,.T.);
#863 = EDGE_CURVE('',#673,#534,#864,.T.);
#864 = LINE('',#865,#866);
#865 = CARTESIAN_POINT('',(-7.5,16.825635094611,-6.));
#866 = VECTOR('',#867,1.);
#867 = DIRECTION('',(0.,1.,0.));
#868 = PLANE('',#869);
#869 = AXIS2_PLACEMENT_3D('',#870,#871,#872);
#870 = CARTESIAN_POINT('',(-11.1,-5.9,-6.));
#871 = DIRECTION('',(0.,0.,1.));
#872 = DIRECTION('',(1.,0.,0.));
#873 = ADVANCED_FACE('',(#874),#885,.F.);
#874 = FACE_BOUND('',#875,.F.);
#875 = EDGE_LOOP('',(#876,#877,#878,#879));
#876 = ORIENTED_EDGE('',*,*,#672,.F.);
#877 = ORIENTED_EDGE('',*,*,#863,.T.);
#878 = ORIENTED_EDGE('',*,*,#568,.F.);
#879 = ORIENTED_EDGE('',*,*,#880,.T.);
#880 = EDGE_CURVE('',#561,#665,#881,.T.);
#881 = LINE('',#882,#883);
#882 = CARTESIAN_POINT('',(-7.5,47.051270189222,-26.50480947161));
#883 = VECTOR('',#884,1.);
#884 = DIRECTION('',(0.,-0.866025403784,0.5));
#885 = PLANE('',#886);
#886 = AXIS2_PLACEMENT_3D('',#887,#888,#889);
#887 = CARTESIAN_POINT('',(-7.5,39.551270189222,-39.49519052838));
#888 = DIRECTION('',(1.,0.,0.));
#889 = DIRECTION('',(0.,-0.866025403784,0.5));
#890 = ADVANCED_FACE('',(#891),#902,.T.);
#891 = FACE_BOUND('',#892,.T.);
#892 = EDGE_LOOP('',(#893,#894,#895,#896));
#893 = ORIENTED_EDGE('',*,*,#560,.F.);
#894 = ORIENTED_EDGE('',*,*,#880,.T.);
#895 = ORIENTED_EDGE('',*,*,#664,.T.);
#896 = ORIENTED_EDGE('',*,*,#897,.F.);
#897 = EDGE_CURVE('',#553,#657,#898,.T.);
#898 = LINE('',#899,#900);
#899 = CARTESIAN_POINT('',(7.5,47.051270189222,-26.50480947161));
#900 = VECTOR('',#901,1.);
#901 = DIRECTION('',(0.,-0.866025403784,0.5));
#902 = PLANE('',#903);
#903 = AXIS2_PLACEMENT_3D('',#904,#905,#906);
#904 = CARTESIAN_POINT('',(-7.5,47.051270189222,-26.50480947161));
#905 = DIRECTION('',(0.,0.5,0.866025403784));
#906 = DIRECTION('',(0.,-0.866025403784,0.5));
#907 = ADVANCED_FACE('',(#908),#914,.T.);
#908 = FACE_BOUND('',#909,.T.);
#909 = EDGE_LOOP('',(#910,#911,#912,#913));
#910 = ORIENTED_EDGE('',*,*,#656,.F.);
#911 = ORIENTED_EDGE('',*,*,#847,.T.);
#912 = ORIENTED_EDGE('',*,*,#552,.F.);
#913 = ORIENTED_EDGE('',*,*,#897,.T.);
#914 = PLANE('',#915);
#915 = AXIS2_PLACEMENT_3D('',#916,#917,#918);
#916 = CARTESIAN_POINT('',(7.5,39.551270189222,-39.49519052838));
#917 = DIRECTION('',(1.,0.,0.));
#918 = DIRECTION('',(0.,-0.866025403784,0.5));
#919 = ADVANCED_FACE('',(#920),#925,.F.);
#920 = FACE_BOUND('',#921,.F.);
#921 = EDGE_LOOP('',(#922,#923,#924));
#922 = ORIENTED_EDGE('',*,*,#854,.F.);
#923 = ORIENTED_EDGE('',*,*,#817,.F.);
#924 = ORIENTED_EDGE('',*,*,#639,.T.);
#925 = CYLINDRICAL_SURFACE('',#926,3.);
#926 = AXIS2_PLACEMENT_3D('',#927,#928,#929);
#927 = CARTESIAN_POINT('',(0.,0.,-8.));
#928 = DIRECTION('',(0.,0.,1.));
#929 = DIRECTION('',(1.,0.,0.));
#930 = ADVANCED_FACE('',(#931),#942,.F.);
#931 = FACE_BOUND('',#932,.F.);
#932 = EDGE_LOOP('',(#933,#939,#940,#941));
#933 = ORIENTED_EDGE('',*,*,#934,.F.);
#934 = EDGE_CURVE('',#777,#705,#935,.T.);
#935 = LINE('',#936,#937);
#936 = CARTESIAN_POINT('',(-7.5,39.551270189222,-39.49519052838));
#937 = VECTOR('',#938,1.);
#938 = DIRECTION('',(1.,0.,0.));
#939 = ORIENTED_EDGE('',*,*,#776,.T.);
#940 = ORIENTED_EDGE('',*,*,#624,.T.);
#941 = ORIENTED_EDGE('',*,*,#704,.F.);
#942 = PLANE('',#943);
#943 = AXIS2_PLACEMENT_3D('',#944,#945,#946);
#944 = CARTESIAN_POINT('',(-7.5,39.551270189222,-39.49519052838));
#945 = DIRECTION('',(0.,0.5,0.866025403784));
#946 = DIRECTION('',(0.,-0.866025403784,0.5));
#947 = ADVANCED_FACE('',(#948,#982,#993,#1045),#1056,.T.);
#948 = FACE_BOUND('',#949,.T.);
#949 = EDGE_LOOP('',(#950,#960,#968,#976));
#950 = ORIENTED_EDGE('',*,*,#951,.F.);
#951 = EDGE_CURVE('',#952,#954,#956,.T.);
#952 = VERTEX_POINT('',#953);
#953 = CARTESIAN_POINT('',(-45.,28.301270189222,-58.98076211353));
#954 = VERTEX_POINT('',#955);
#955 = CARTESIAN_POINT('',(-45.,58.301270189222,-7.019237886467));
#956 = LINE('',#957,#958);
#957 = CARTESIAN_POINT('',(-45.,28.301270189222,-58.98076211353));
#958 = VECTOR('',#959,1.);
#959 = DIRECTION('',(0.,0.5,0.866025403784));
#960 = ORIENTED_EDGE('',*,*,#961,.T.);
#961 = EDGE_CURVE('',#952,#962,#964,.T.);
#962 = VERTEX_POINT('',#963);
#963 = CARTESIAN_POINT('',(45.,28.301270189222,-58.98076211353));
#964 = LINE('',#965,#966);
#965 = CARTESIAN_POINT('',(-45.,28.301270189222,-58.98076211353));
#966 = VECTOR('',#967,1.);
#967 = DIRECTION('',(1.,0.,0.));
#968 = ORIENTED_EDGE('',*,*,#969,.T.);
#969 = EDGE_CURVE('',#962,#970,#972,.T.);
#970 = VERTEX_POINT('',#971);
#971 = CARTESIAN_POINT('',(45.,58.301270189222,-7.019237886467));
#972 = LINE('',#973,#974);
#973 = CARTESIAN_POINT('',(45.,28.301270189222,-58.98076211353));
#974 = VECTOR('',#975,1.);
#975 = DIRECTION('',(0.,0.5,0.866025403784));
#976 = ORIENTED_EDGE('',*,*,#977,.F.);
#977 = EDGE_CURVE('',#954,#970,#978,.T.);
#978 = LINE('',#979,#980);
#979 = CARTESIAN_POINT('',(-45.,58.301270189222,-7.019237886467));
#980 = VECTOR('',#981,1.);
#981 = DIRECTION('',(1.,0.,0.));
#982 = FACE_BOUND('',#983,.T.);
#983 = EDGE_LOOP('',(#984));
#984 = ORIENTED_EDGE('',*,*,#985,.F.);
#985 = EDGE_CURVE('',#986,#986,#988,.T.);
#986 = VERTEX_POINT('',#987);
#987 = CARTESIAN_POINT('',(-13.,43.301270189222,-33.));
#988 = CIRCLE('',#989,1.);
#989 = AXIS2_PLACEMENT_3D('',#990,#991,#992);
#990 = CARTESIAN_POINT('',(-14.,43.301270189222,-33.));
#991 = DIRECTION('',(0.,-0.866025403784,0.5));
#992 = DIRECTION('',(1.,0.,0.));
#993 = FACE_BOUND('',#994,.T.);
#994 = EDGE_LOOP('',(#995,#1003,#1011,#1017,#1018,#1019,#1020,#1028,
    #1036,#1042,#1043,#1044));
#995 = ORIENTED_EDGE('',*,*,#996,.F.);
#996 = EDGE_CURVE('',#997,#785,#999,.T.);
#997 = VERTEX_POINT('',#998);
#998 = CARTESIAN_POINT('',(-11.1,40.351270189222,-38.10954988232));
#999 = LINE('',#1000,#1001);
#1000 = CARTESIAN_POINT('',(-11.1,40.351270189222,-38.10954988232));
#1001 = VECTOR('',#1002,1.);
#1002 = DIRECTION('',(1.,0.,0.));
#1003 = ORIENTED_EDGE('',*,*,#1004,.T.);
#1004 = EDGE_CURVE('',#997,#1005,#1007,.T.);
#1005 = VERTEX_POINT('',#1006);
#1006 = CARTESIAN_POINT('',(-11.1,46.251270189222,-27.89045011767));
#1007 = LINE('',#1008,#1009);
#1008 = CARTESIAN_POINT('',(-11.1,40.351270189222,-38.10954988232));
#1009 = VECTOR('',#1010,1.);
#1010 = DIRECTION('',(0.,0.5,0.866025403784));
#1011 = ORIENTED_EDGE('',*,*,#1012,.T.);
#1012 = EDGE_CURVE('',#1005,#793,#1013,.T.);
#1013 = LINE('',#1014,#1015);
#1014 = CARTESIAN_POINT('',(-11.1,46.251270189222,-27.89045011767));
#1015 = VECTOR('',#1016,1.);
#1016 = DIRECTION('',(1.,0.,0.));
#1017 = ORIENTED_EDGE('',*,*,#800,.T.);
#1018 = ORIENTED_EDGE('',*,*,#752,.T.);
#1019 = ORIENTED_EDGE('',*,*,#728,.F.);
#1020 = ORIENTED_EDGE('',*,*,#1021,.T.);
#1021 = EDGE_CURVE('',#721,#1022,#1024,.T.);
#1022 = VERTEX_POINT('',#1023);
#1023 = CARTESIAN_POINT('',(11.1,46.251270189222,-27.89045011767));
#1024 = LINE('',#1025,#1026);
#1025 = CARTESIAN_POINT('',(-11.1,46.251270189222,-27.89045011767));
#1026 = VECTOR('',#1027,1.);
#1027 = DIRECTION('',(1.,0.,0.));
#1028 = ORIENTED_EDGE('',*,*,#1029,.F.);
#1029 = EDGE_CURVE('',#1030,#1022,#1032,.T.);
#1030 = VERTEX_POINT('',#1031);
#1031 = CARTESIAN_POINT('',(11.1,40.351270189222,-38.10954988232));
#1032 = LINE('',#1033,#1034);
#1033 = CARTESIAN_POINT('',(11.1,40.351270189222,-38.10954988232));
#1034 = VECTOR('',#1035,1.);
#1035 = DIRECTION('',(0.,0.5,0.866025403784));
#1036 = ORIENTED_EDGE('',*,*,#1037,.F.);
#1037 = EDGE_CURVE('',#713,#1030,#1038,.T.);
#1038 = LINE('',#1039,#1040);
#1039 = CARTESIAN_POINT('',(-11.1,40.351270189222,-38.10954988232));
#1040 = VECTOR('',#1041,1.);
#1041 = DIRECTION('',(1.,0.,0.));
#1042 = ORIENTED_EDGE('',*,*,#712,.F.);
#1043 = ORIENTED_EDGE('',*,*,#934,.F.);
#1044 = ORIENTED_EDGE('',*,*,#784,.T.);
#1045 = FACE_BOUND('',#1046,.T.);
#1046 = EDGE_LOOP('',(#1047));
#1047 = ORIENTED_EDGE('',*,*,#1048,.F.);
#1048 = EDGE_CURVE('',#1049,#1049,#1051,.T.);
#1049 = VERTEX_POINT('',#1050);
#1050 = CARTESIAN_POINT('',(15.,43.301270189222,-33.));
#1051 = CIRCLE('',#1052,1.);
#1052 = AXIS2_PLACEMENT_3D('',#1053,#1054,#1055);
#1053 = CARTESIAN_POINT('',(14.,43.301270189222,-33.));
#1054 = DIRECTION('',(0.,-0.866025403784,0.5));
#1055 = DIRECTION('',(1.,0.,0.));
#1056 = PLANE('',#1057);
#1057 = AXIS2_PLACEMENT_3D('',#1058,#1059,#1060);
#1058 = CARTESIAN_POINT('',(-45.,28.301270189222,-58.98076211353));
#1059 = DIRECTION('',(0.,-0.866025403784,0.5));
#1060 = DIRECTION('',(1.,0.,0.));
#1061 = ADVANCED_FACE('',(#1062),#1078,.F.);
#1062 = FACE_BOUND('',#1063,.F.);
#1063 = EDGE_LOOP('',(#1064,#1065,#1071,#1072));
#1064 = ORIENTED_EDGE('',*,*,#792,.F.);
#1065 = ORIENTED_EDGE('',*,*,#1066,.T.);
#1066 = EDGE_CURVE('',#785,#713,#1067,.T.);
#1067 = LINE('',#1068,#1069);
#1068 = CARTESIAN_POINT('',(-11.1,40.351270189222,-38.10954988232));
#1069 = VECTOR('',#1070,1.);
#1070 = DIRECTION('',(1.,0.,0.));
#1071 = ORIENTED_EDGE('',*,*,#720,.T.);
#1072 = ORIENTED_EDGE('',*,*,#1073,.F.);
#1073 = EDGE_CURVE('',#793,#721,#1074,.T.);
#1074 = LINE('',#1075,#1076);
#1075 = CARTESIAN_POINT('',(-11.1,46.251270189222,-27.89045011767));
#1076 = VECTOR('',#1077,1.);
#1077 = DIRECTION('',(1.,0.,0.));
#1078 = PLANE('',#1079);
#1079 = AXIS2_PLACEMENT_3D('',#1080,#1081,#1082);
#1080 = CARTESIAN_POINT('',(-7.5,39.551270189222,-39.49519052838));
#1081 = DIRECTION('',(0.,-0.866025403784,0.5));
#1082 = DIRECTION('',(1.,0.,0.));
#1083 = ADVANCED_FACE('',(#1084),#1109,.F.);
#1084 = FACE_BOUND('',#1085,.F.);
#1085 = EDGE_LOOP('',(#1086,#1094,#1102,#1108));
#1086 = ORIENTED_EDGE('',*,*,#1087,.F.);
#1087 = EDGE_CURVE('',#1088,#952,#1090,.T.);
#1088 = VERTEX_POINT('',#1089);
#1089 = CARTESIAN_POINT('',(-45.,35.229473419497,-62.98076211353));
#1090 = LINE('',#1091,#1092);
#1091 = CARTESIAN_POINT('',(-45.,35.229473419497,-62.98076211353));
#1092 = VECTOR('',#1093,1.);
#1093 = DIRECTION('',(0.,-0.866025403784,0.5));
#1094 = ORIENTED_EDGE('',*,*,#1095,.T.);
#1095 = EDGE_CURVE('',#1088,#1096,#1098,.T.);
#1096 = VERTEX_POINT('',#1097);
#1097 = CARTESIAN_POINT('',(-45.,65.229473419497,-11.01923788646));
#1098 = LINE('',#1099,#1100);
#1099 = CARTESIAN_POINT('',(-45.,35.229473419497,-62.98076211353));
#1100 = VECTOR('',#1101,1.);
#1101 = DIRECTION('',(0.,0.5,0.866025403784));
#1102 = ORIENTED_EDGE('',*,*,#1103,.T.);
#1103 = EDGE_CURVE('',#1096,#954,#1104,.T.);
#1104 = LINE('',#1105,#1106);
#1105 = CARTESIAN_POINT('',(-45.,65.229473419497,-11.01923788646));
#1106 = VECTOR('',#1107,1.);
#1107 = DIRECTION('',(0.,-0.866025403784,0.5));
#1108 = ORIENTED_EDGE('',*,*,#951,.F.);
#1109 = PLANE('',#1110);
#1110 = AXIS2_PLACEMENT_3D('',#1111,#1112,#1113);
#1111 = CARTESIAN_POINT('',(-45.,35.229473419497,-62.98076211353));
#1112 = DIRECTION('',(1.,0.,0.));
#1113 = DIRECTION('',(0.,-0.866025403784,0.5));
#1114 = ADVANCED_FACE('',(#1115),#1133,.T.);
#1115 = FACE_BOUND('',#1116,.T.);
#1116 = EDGE_LOOP('',(#1117,#1125,#1126,#1127));
#1117 = ORIENTED_EDGE('',*,*,#1118,.F.);
#1118 = EDGE_CURVE('',#1096,#1119,#1121,.T.);
#1119 = VERTEX_POINT('',#1120);
#1120 = CARTESIAN_POINT('',(45.,65.229473419497,-11.01923788646));
#1121 = LINE('',#1122,#1123);
#1122 = CARTESIAN_POINT('',(-45.,65.229473419497,-11.01923788646));
#1123 = VECTOR('',#1124,1.);
#1124 = DIRECTION('',(1.,0.,0.));
#1125 = ORIENTED_EDGE('',*,*,#1103,.T.);
#1126 = ORIENTED_EDGE('',*,*,#977,.T.);
#1127 = ORIENTED_EDGE('',*,*,#1128,.F.);
#1128 = EDGE_CURVE('',#1119,#970,#1129,.T.);
#1129 = LINE('',#1130,#1131);
#1130 = CARTESIAN_POINT('',(45.,65.229473419497,-11.01923788646));
#1131 = VECTOR('',#1132,1.);
#1132 = DIRECTION('',(0.,-0.866025403784,0.5));
#1133 = PLANE('',#1134);
#1134 = AXIS2_PLACEMENT_3D('',#1135,#1136,#1137);
#1135 = CARTESIAN_POINT('',(-45.,65.229473419497,-11.01923788646));
#1136 = DIRECTION('',(0.,0.5,0.866025403784));
#1137 = DIRECTION('',(0.,-0.866025403784,0.5));
#1138 = ADVANCED_FACE('',(#1139),#1157,.F.);
#1139 = FACE_BOUND('',#1140,.F.);
#1140 = EDGE_LOOP('',(#1141,#1149,#1150,#1151));
#1141 = ORIENTED_EDGE('',*,*,#1142,.F.);
#1142 = EDGE_CURVE('',#1088,#1143,#1145,.T.);
#1143 = VERTEX_POINT('',#1144);
#1144 = CARTESIAN_POINT('',(45.,35.229473419497,-62.98076211353));
#1145 = LINE('',#1146,#1147);
#1146 = CARTESIAN_POINT('',(-45.,35.229473419497,-62.98076211353));
#1147 = VECTOR('',#1148,1.);
#1148 = DIRECTION('',(1.,0.,0.));
#1149 = ORIENTED_EDGE('',*,*,#1087,.T.);
#1150 = ORIENTED_EDGE('',*,*,#961,.T.);
#1151 = ORIENTED_EDGE('',*,*,#1152,.F.);
#1152 = EDGE_CURVE('',#1143,#962,#1153,.T.);
#1153 = LINE('',#1154,#1155);
#1154 = CARTESIAN_POINT('',(45.,35.229473419497,-62.98076211353));
#1155 = VECTOR('',#1156,1.);
#1156 = DIRECTION('',(0.,-0.866025403784,0.5));
#1157 = PLANE('',#1158);
#1158 = AXIS2_PLACEMENT_3D('',#1159,#1160,#1161);
#1159 = CARTESIAN_POINT('',(-45.,35.229473419497,-62.98076211353));
#1160 = DIRECTION('',(0.,0.5,0.866025403784));
#1161 = DIRECTION('',(0.,-0.866025403784,0.5));
#1162 = ADVANCED_FACE('',(#1163),#1174,.T.);
#1163 = FACE_BOUND('',#1164,.T.);
#1164 = EDGE_LOOP('',(#1165,#1166,#1172,#1173));
#1165 = ORIENTED_EDGE('',*,*,#1152,.F.);
#1166 = ORIENTED_EDGE('',*,*,#1167,.T.);
#1167 = EDGE_CURVE('',#1143,#1119,#1168,.T.);
#1168 = LINE('',#1169,#1170);
#1169 = CARTESIAN_POINT('',(45.,35.229473419497,-62.98076211353));
#1170 = VECTOR('',#1171,1.);
#1171 = DIRECTION('',(0.,0.5,0.866025403784));
#1172 = ORIENTED_EDGE('',*,*,#1128,.T.);
#1173 = ORIENTED_EDGE('',*,*,#969,.F.);
#1174 = PLANE('',#1175);
#1175 = AXIS2_PLACEMENT_3D('',#1176,#1177,#1178);
#1176 = CARTESIAN_POINT('',(45.,35.229473419497,-62.98076211353));
#1177 = DIRECTION('',(1.,0.,0.));
#1178 = DIRECTION('',(0.,-0.866025403784,0.5));
#1179 = ADVANCED_FACE('',(#1180),#1199,.F.);
#1180 = FACE_BOUND('',#1181,.F.);
#1181 = EDGE_LOOP('',(#1182,#1183,#1191,#1198));
#1182 = ORIENTED_EDGE('',*,*,#985,.F.);
#1183 = ORIENTED_EDGE('',*,*,#1184,.F.);
#1184 = EDGE_CURVE('',#1185,#986,#1187,.T.);
#1185 = VERTEX_POINT('',#1186);
#1186 = CARTESIAN_POINT('',(-13.,50.229473419497,-37.));
#1187 = LINE('',#1188,#1189);
#1188 = CARTESIAN_POINT('',(-13.,50.229473419497,-37.));
#1189 = VECTOR('',#1190,1.);
#1190 = DIRECTION('',(0.,-0.866025403784,0.5));
#1191 = ORIENTED_EDGE('',*,*,#1192,.T.);
#1192 = EDGE_CURVE('',#1185,#1185,#1193,.T.);
#1193 = CIRCLE('',#1194,1.);
#1194 = AXIS2_PLACEMENT_3D('',#1195,#1196,#1197);
#1195 = CARTESIAN_POINT('',(-14.,50.229473419497,-37.));
#1196 = DIRECTION('',(0.,-0.866025403784,0.5));
#1197 = DIRECTION('',(1.,0.,0.));
#1198 = ORIENTED_EDGE('',*,*,#1184,.T.);
#1199 = CYLINDRICAL_SURFACE('',#1200,1.);
#1200 = AXIS2_PLACEMENT_3D('',#1201,#1202,#1203);
#1201 = CARTESIAN_POINT('',(-14.,50.229473419497,-37.));
#1202 = DIRECTION('',(0.,-0.866025403784,0.5));
#1203 = DIRECTION('',(1.,0.,0.));
#1204 = ADVANCED_FACE('',(#1205),#1232,.T.);
#1205 = FACE_BOUND('',#1206,.T.);
#1206 = EDGE_LOOP('',(#1207,#1217,#1223,#1224,#1225,#1226));
#1207 = ORIENTED_EDGE('',*,*,#1208,.F.);
#1208 = EDGE_CURVE('',#1209,#1211,#1213,.T.);
#1209 = VERTEX_POINT('',#1210);
#1210 = CARTESIAN_POINT('',(-11.1,45.547422611929,-41.10954988232));
#1211 = VERTEX_POINT('',#1212);
#1212 = CARTESIAN_POINT('',(11.1,45.547422611929,-41.10954988232));
#1213 = LINE('',#1214,#1215);
#1214 = CARTESIAN_POINT('',(-11.1,45.547422611929,-41.10954988232));
#1215 = VECTOR('',#1216,1.);
#1216 = DIRECTION('',(1.,0.,0.));
#1217 = ORIENTED_EDGE('',*,*,#1218,.T.);
#1218 = EDGE_CURVE('',#1209,#997,#1219,.T.);
#1219 = LINE('',#1220,#1221);
#1220 = CARTESIAN_POINT('',(-11.1,45.547422611929,-41.10954988232));
#1221 = VECTOR('',#1222,1.);
#1222 = DIRECTION('',(0.,-0.866025403784,0.5));
#1223 = ORIENTED_EDGE('',*,*,#996,.T.);
#1224 = ORIENTED_EDGE('',*,*,#1066,.T.);
#1225 = ORIENTED_EDGE('',*,*,#1037,.T.);
#1226 = ORIENTED_EDGE('',*,*,#1227,.F.);
#1227 = EDGE_CURVE('',#1211,#1030,#1228,.T.);
#1228 = LINE('',#1229,#1230);
#1229 = CARTESIAN_POINT('',(11.1,45.547422611929,-41.10954988232));
#1230 = VECTOR('',#1231,1.);
#1231 = DIRECTION('',(0.,-0.866025403784,0.5));
#1232 = PLANE('',#1233);
#1233 = AXIS2_PLACEMENT_3D('',#1234,#1235,#1236);
#1234 = CARTESIAN_POINT('',(-11.1,45.547422611929,-41.10954988232));
#1235 = DIRECTION('',(0.,0.5,0.866025403784));
#1236 = DIRECTION('',(0.,-0.866025403784,0.5));
#1237 = ADVANCED_FACE('',(#1238),#1256,.F.);
#1238 = FACE_BOUND('',#1239,.F.);
#1239 = EDGE_LOOP('',(#1240,#1241,#1249,#1255));
#1240 = ORIENTED_EDGE('',*,*,#1227,.F.);
#1241 = ORIENTED_EDGE('',*,*,#1242,.T.);
#1242 = EDGE_CURVE('',#1211,#1243,#1245,.T.);
#1243 = VERTEX_POINT('',#1244);
#1244 = CARTESIAN_POINT('',(11.1,51.447422611929,-30.89045011767));
#1245 = LINE('',#1246,#1247);
#1246 = CARTESIAN_POINT('',(11.1,45.547422611929,-41.10954988232));
#1247 = VECTOR('',#1248,1.);
#1248 = DIRECTION('',(0.,0.5,0.866025403784));
#1249 = ORIENTED_EDGE('',*,*,#1250,.T.);
#1250 = EDGE_CURVE('',#1243,#1022,#1251,.T.);
#1251 = LINE('',#1252,#1253);
#1252 = CARTESIAN_POINT('',(11.1,51.447422611929,-30.89045011767));
#1253 = VECTOR('',#1254,1.);
#1254 = DIRECTION('',(0.,-0.866025403784,0.5));
#1255 = ORIENTED_EDGE('',*,*,#1029,.F.);
#1256 = PLANE('',#1257);
#1257 = AXIS2_PLACEMENT_3D('',#1258,#1259,#1260);
#1258 = CARTESIAN_POINT('',(11.1,45.547422611929,-41.10954988232));
#1259 = DIRECTION('',(1.,0.,0.));
#1260 = DIRECTION('',(0.,-0.866025403784,0.5));
#1261 = ADVANCED_FACE('',(#1262),#1282,.F.);
#1262 = FACE_BOUND('',#1263,.F.);
#1263 = EDGE_LOOP('',(#1264,#1272,#1278,#1279,#1280,#1281));
#1264 = ORIENTED_EDGE('',*,*,#1265,.F.);
#1265 = EDGE_CURVE('',#1266,#1243,#1268,.T.);
#1266 = VERTEX_POINT('',#1267);
#1267 = CARTESIAN_POINT('',(-11.1,51.447422611929,-30.89045011767));
#1268 = LINE('',#1269,#1270);
#1269 = CARTESIAN_POINT('',(-11.1,51.447422611929,-30.89045011767));
#1270 = VECTOR('',#1271,1.);
#1271 = DIRECTION('',(1.,0.,0.));
#1272 = ORIENTED_EDGE('',*,*,#1273,.T.);
#1273 = EDGE_CURVE('',#1266,#1005,#1274,.T.);
#1274 = LINE('',#1275,#1276);
#1275 = CARTESIAN_POINT('',(-11.1,51.447422611929,-30.89045011767));
#1276 = VECTOR('',#1277,1.);
#1277 = DIRECTION('',(0.,-0.866025403784,0.5));
#1278 = ORIENTED_EDGE('',*,*,#1012,.T.);
#1279 = ORIENTED_EDGE('',*,*,#1073,.T.);
#1280 = ORIENTED_EDGE('',*,*,#1021,.T.);
#1281 = ORIENTED_EDGE('',*,*,#1250,.F.);
#1282 = PLANE('',#1283);
#1283 = AXIS2_PLACEMENT_3D('',#1284,#1285,#1286);
#1284 = CARTESIAN_POINT('',(-11.1,51.447422611929,-30.89045011767));
#1285 = DIRECTION('',(0.,0.5,0.866025403784));
#1286 = DIRECTION('',(0.,-0.866025403784,0.5));
#1287 = ADVANCED_FACE('',(#1288),#1299,.T.);
#1288 = FACE_BOUND('',#1289,.T.);
#1289 = EDGE_LOOP('',(#1290,#1291,#1297,#1298));
#1290 = ORIENTED_EDGE('',*,*,#1218,.F.);
#1291 = ORIENTED_EDGE('',*,*,#1292,.T.);
#1292 = EDGE_CURVE('',#1209,#1266,#1293,.T.);
#1293 = LINE('',#1294,#1295);
#1294 = CARTESIAN_POINT('',(-11.1,45.547422611929,-41.10954988232));
#1295 = VECTOR('',#1296,1.);
#1296 = DIRECTION('',(0.,0.5,0.866025403784));
#1297 = ORIENTED_EDGE('',*,*,#1273,.T.);
#1298 = ORIENTED_EDGE('',*,*,#1004,.F.);
#1299 = PLANE('',#1300);
#1300 = AXIS2_PLACEMENT_3D('',#1301,#1302,#1303);
#1301 = CARTESIAN_POINT('',(-11.1,45.547422611929,-41.10954988232));
#1302 = DIRECTION('',(1.,0.,0.));
#1303 = DIRECTION('',(0.,-0.866025403784,0.5));
#1304 = ADVANCED_FACE('',(#1305),#1324,.F.);
#1305 = FACE_BOUND('',#1306,.F.);
#1306 = EDGE_LOOP('',(#1307,#1308,#1316,#1323));
#1307 = ORIENTED_EDGE('',*,*,#1048,.F.);
#1308 = ORIENTED_EDGE('',*,*,#1309,.F.);
#1309 = EDGE_CURVE('',#1310,#1049,#1312,.T.);
#1310 = VERTEX_POINT('',#1311);
#1311 = CARTESIAN_POINT('',(15.,50.229473419497,-37.));
#1312 = LINE('',#1313,#1314);
#1313 = CARTESIAN_POINT('',(15.,50.229473419497,-37.));
#1314 = VECTOR('',#1315,1.);
#1315 = DIRECTION('',(0.,-0.866025403784,0.5));
#1316 = ORIENTED_EDGE('',*,*,#1317,.T.);
#1317 = EDGE_CURVE('',#1310,#1310,#1318,.T.);
#1318 = CIRCLE('',#1319,1.);
#1319 = AXIS2_PLACEMENT_3D('',#1320,#1321,#1322);
#1320 = CARTESIAN_POINT('',(14.,50.229473419497,-37.));
#1321 = DIRECTION('',(0.,-0.866025403784,0.5));
#1322 = DIRECTION('',(1.,0.,0.));
#1323 = ORIENTED_EDGE('',*,*,#1309,.T.);
#1324 = CYLINDRICAL_SURFACE('',#1325,1.);
#1325 = AXIS2_PLACEMENT_3D('',#1326,#1327,#1328);
#1326 = CARTESIAN_POINT('',(14.,50.229473419497,-37.));
#1327 = DIRECTION('',(0.,-0.866025403784,0.5));
#1328 = DIRECTION('',(1.,0.,0.));
#1329 = ADVANCED_FACE('',(#1330,#1336,#1339,#1350),#1353,.F.);
#1330 = FACE_BOUND('',#1331,.F.);
#1331 = EDGE_LOOP('',(#1332,#1333,#1334,#1335));
#1332 = ORIENTED_EDGE('',*,*,#1095,.F.);
#1333 = ORIENTED_EDGE('',*,*,#1142,.T.);
#1334 = ORIENTED_EDGE('',*,*,#1167,.T.);
#1335 = ORIENTED_EDGE('',*,*,#1118,.F.);
#1336 = FACE_BOUND('',#1337,.F.);
#1337 = EDGE_LOOP('',(#1338));
#1338 = ORIENTED_EDGE('',*,*,#1192,.F.);
#1339 = FACE_BOUND('',#1340,.F.);
#1340 = EDGE_LOOP('',(#1341));
#1341 = ORIENTED_EDGE('',*,*,#1342,.F.);
#1342 = EDGE_CURVE('',#1343,#1343,#1345,.T.);
#1343 = VERTEX_POINT('',#1344);
#1344 = CARTESIAN_POINT('',(3.,50.229473419497,-37.));
#1345 = CIRCLE('',#1346,3.);
#1346 = AXIS2_PLACEMENT_3D('',#1347,#1348,#1349);
#1347 = CARTESIAN_POINT('',(0.,50.229473419497,-37.));
#1348 = DIRECTION('',(0.,-0.866025403784,0.5));
#1349 = DIRECTION('',(1.,0.,0.));
#1350 = FACE_BOUND('',#1351,.F.);
#1351 = EDGE_LOOP('',(#1352));
#1352 = ORIENTED_EDGE('',*,*,#1317,.F.);
#1353 = PLANE('',#1354);
#1354 = AXIS2_PLACEMENT_3D('',#1355,#1356,#1357);
#1355 = CARTESIAN_POINT('',(-45.,35.229473419497,-62.98076211353));
#1356 = DIRECTION('',(0.,-0.866025403784,0.5));
#1357 = DIRECTION('',(1.,0.,0.));
#1358 = ADVANCED_FACE('',(#1359,#1365),#1376,.T.);
#1359 = FACE_BOUND('',#1360,.T.);
#1360 = EDGE_LOOP('',(#1361,#1362,#1363,#1364));
#1361 = ORIENTED_EDGE('',*,*,#1292,.F.);
#1362 = ORIENTED_EDGE('',*,*,#1208,.T.);
#1363 = ORIENTED_EDGE('',*,*,#1242,.T.);
#1364 = ORIENTED_EDGE('',*,*,#1265,.F.);
#1365 = FACE_BOUND('',#1366,.T.);
#1366 = EDGE_LOOP('',(#1367));
#1367 = ORIENTED_EDGE('',*,*,#1368,.F.);
#1368 = EDGE_CURVE('',#1369,#1369,#1371,.T.);
#1369 = VERTEX_POINT('',#1370);
#1370 = CARTESIAN_POINT('',(3.,48.497422611929,-36.));
#1371 = CIRCLE('',#1372,3.);
#1372 = AXIS2_PLACEMENT_3D('',#1373,#1374,#1375);
#1373 = CARTESIAN_POINT('',(0.,48.497422611929,-36.));
#1374 = DIRECTION('',(0.,-0.866025403784,0.5));
#1375 = DIRECTION('',(1.,0.,0.));
#1376 = PLANE('',#1377);
#1377 = AXIS2_PLACEMENT_3D('',#1378,#1379,#1380);
#1378 = CARTESIAN_POINT('',(-11.1,45.547422611929,-41.10954988232));
#1379 = DIRECTION('',(0.,-0.866025403784,0.5));
#1380 = DIRECTION('',(1.,0.,0.));
#1381 = ADVANCED_FACE('',(#1382),#1393,.F.);
#1382 = FACE_BOUND('',#1383,.F.);
#1383 = EDGE_LOOP('',(#1384,#1385,#1391,#1392));
#1384 = ORIENTED_EDGE('',*,*,#1368,.F.);
#1385 = ORIENTED_EDGE('',*,*,#1386,.F.);
#1386 = EDGE_CURVE('',#1343,#1369,#1387,.T.);
#1387 = LINE('',#1388,#1389);
#1388 = CARTESIAN_POINT('',(3.,50.229473419497,-37.));
#1389 = VECTOR('',#1390,1.);
#1390 = DIRECTION('',(0.,-0.866025403784,0.5));
#1391 = ORIENTED_EDGE('',*,*,#1342,.T.);
#1392 = ORIENTED_EDGE('',*,*,#1386,.T.);
#1393 = CYLINDRICAL_SURFACE('',#1394,3.);
#1394 = AXIS2_PLACEMENT_3D('',#1395,#1396,#1397);
#1395 = CARTESIAN_POINT('',(0.,50.229473419497,-37.));
#1396 = DIRECTION('',(0.,-0.866025403784,0.5));
#1397 = DIRECTION('',(1.,0.,0.));
#1398 = MANIFOLD_SOLID_BREP('',#1399);
#1399 = CLOSED_SHELL('',(#1400,#1440,#1471,#1539,#1563,#1624,#1636,#1653
    ,#1670,#1687));
#1400 = ADVANCED_FACE('',(#1401),#1435,.F.);
#1401 = FACE_BOUND('',#1402,.F.);
#1402 = EDGE_LOOP('',(#1403,#1413,#1421,#1429));
#1403 = ORIENTED_EDGE('',*,*,#1404,.F.);
#1404 = EDGE_CURVE('',#1405,#1407,#1409,.T.);
#1405 = VERTEX_POINT('',#1406);
#1406 = CARTESIAN_POINT('',(-23.9711431703,37.247422611929,
    -85.48557158515));
#1407 = VERTEX_POINT('',#1408);
#1408 = CARTESIAN_POINT('',(-23.9711431703,30.319219381653,
    -81.48557158515));
#1409 = LINE('',#1410,#1411);
#1410 = CARTESIAN_POINT('',(-23.9711431703,37.247422611929,
    -85.48557158515));
#1411 = VECTOR('',#1412,1.);
#1412 = DIRECTION('',(0.,-0.866025403784,0.5));
#1413 = ORIENTED_EDGE('',*,*,#1414,.T.);
#1414 = EDGE_CURVE('',#1405,#1415,#1417,.T.);
#1415 = VERTEX_POINT('',#1416);
#1416 = CARTESIAN_POINT('',(-53.9711431703,63.228184725462,
    -40.48557158515));
#1417 = LINE('',#1418,#1419);
#1418 = CARTESIAN_POINT('',(-23.9711431703,37.247422611929,
    -85.48557158515));
#1419 = VECTOR('',#1420,1.);
#1420 = DIRECTION('',(-0.5,0.433012701892,0.75));
#1421 = ORIENTED_EDGE('',*,*,#1422,.T.);
#1422 = EDGE_CURVE('',#1415,#1423,#1425,.T.);
#1423 = VERTEX_POINT('',#1424);
#1424 = CARTESIAN_POINT('',(-53.9711431703,56.299981495186,
    -36.48557158515));
#1425 = LINE('',#1426,#1427);
#1426 = CARTESIAN_POINT('',(-53.9711431703,63.228184725462,
    -40.48557158515));
#1427 = VECTOR('',#1428,1.);
#1428 = DIRECTION('',(0.,-0.866025403784,0.5));
#1429 = ORIENTED_EDGE('',*,*,#1430,.F.);
#1430 = EDGE_CURVE('',#1407,#1423,#1431,.T.);
#1431 = LINE('',#1432,#1433);
#1432 = CARTESIAN_POINT('',(-23.9711431703,30.319219381653,
    -81.48557158515));
#1433 = VECTOR('',#1434,1.);
#1434 = DIRECTION('',(-0.5,0.433012701892,0.75));
#1435 = PLANE('',#1436);
#1436 = AXIS2_PLACEMENT_3D('',#1437,#1438,#1439);
#1437 = CARTESIAN_POINT('',(-23.9711431703,37.247422611929,
    -85.48557158515));
#1438 = DIRECTION('',(0.866025403784,0.25,0.433012701892));
#1439 = DIRECTION('',(0.,-0.866025403784,0.5));
#1440 = ADVANCED_FACE('',(#1441),#1466,.F.);
#1441 = FACE_BOUND('',#1442,.F.);
#1442 = EDGE_LOOP('',(#1443,#1451,#1452,#1460));
#1443 = ORIENTED_EDGE('',*,*,#1444,.F.);
#1444 = EDGE_CURVE('',#1405,#1445,#1447,.T.);
#1445 = VERTEX_POINT('',#1446);
#1446 = CARTESIAN_POINT('',(53.9711431703,59.747422611929,
    -46.51442841485));
#1447 = LINE('',#1448,#1449);
#1448 = CARTESIAN_POINT('',(-23.9711431703,37.247422611929,
    -85.48557158515));
#1449 = VECTOR('',#1450,1.);
#1450 = DIRECTION('',(0.866025403784,0.25,0.433012701892));
#1451 = ORIENTED_EDGE('',*,*,#1404,.T.);
#1452 = ORIENTED_EDGE('',*,*,#1453,.T.);
#1453 = EDGE_CURVE('',#1407,#1454,#1456,.T.);
#1454 = VERTEX_POINT('',#1455);
#1455 = CARTESIAN_POINT('',(53.9711431703,52.819219381653,
    -42.51442841485));
#1456 = LINE('',#1457,#1458);
#1457 = CARTESIAN_POINT('',(-23.9711431703,30.319219381653,
    -81.48557158515));
#1458 = VECTOR('',#1459,1.);
#1459 = DIRECTION('',(0.866025403784,0.25,0.433012701892));
#1460 = ORIENTED_EDGE('',*,*,#1461,.F.);
#1461 = EDGE_CURVE('',#1445,#1454,#1462,.T.);
#1462 = LINE('',#1463,#1464);
#1463 = CARTESIAN_POINT('',(53.9711431703,59.747422611929,
    -46.51442841485));
#1464 = VECTOR('',#1465,1.);
#1465 = DIRECTION('',(0.,-0.866025403784,0.5));
#1466 = PLANE('',#1467);
#1467 = AXIS2_PLACEMENT_3D('',#1468,#1469,#1470);
#1468 = CARTESIAN_POINT('',(-23.9711431703,37.247422611929,
    -85.48557158515));
#1469 = DIRECTION('',(-0.5,0.433012701892,0.75));
#1470 = DIRECTION('',(0.,-0.866025403784,0.5));
#1471 = ADVANCED_FACE('',(#1472,#1490,#1501,#1512,#1523),#1534,.T.);
#1472 = FACE_BOUND('',#1473,.T.);
#1473 = EDGE_LOOP('',(#1474,#1475,#1476,#1484));
#1474 = ORIENTED_EDGE('',*,*,#1430,.F.);
#1475 = ORIENTED_EDGE('',*,*,#1453,.T.);
#1476 = ORIENTED_EDGE('',*,*,#1477,.T.);
#1477 = EDGE_CURVE('',#1454,#1478,#1480,.T.);
#1478 = VERTEX_POINT('',#1479);
#1479 = CARTESIAN_POINT('',(23.9711431703,78.799981495186,2.48557158515)
  );
#1480 = LINE('',#1481,#1482);
#1481 = CARTESIAN_POINT('',(53.9711431703,52.819219381653,
    -42.51442841485));
#1482 = VECTOR('',#1483,1.);
#1483 = DIRECTION('',(-0.5,0.433012701892,0.75));
#1484 = ORIENTED_EDGE('',*,*,#1485,.F.);
#1485 = EDGE_CURVE('',#1423,#1478,#1486,.T.);
#1486 = LINE('',#1487,#1488);
#1487 = CARTESIAN_POINT('',(-53.9711431703,56.299981495186,
    -36.48557158515));
#1488 = VECTOR('',#1489,1.);
#1489 = DIRECTION('',(0.866025403784,0.25,0.433012701892));
#1490 = FACE_BOUND('',#1491,.T.);
#1491 = EDGE_LOOP('',(#1492));
#1492 = ORIENTED_EDGE('',*,*,#1493,.F.);
#1493 = EDGE_CURVE('',#1494,#1494,#1496,.T.);
#1494 = VERTEX_POINT('',#1495);
#1495 = CARTESIAN_POINT('',(-18.83864594602,37.574346400575,
    -68.91932297301));
#1496 = CIRCLE('',#1497,1.7);
#1497 = AXIS2_PLACEMENT_3D('',#1498,#1499,#1500);
#1498 = CARTESIAN_POINT('',(-20.31088913245,37.149346400575,
    -69.65544456622));
#1499 = DIRECTION('',(-2.775557561563E-17,-0.866025403784,0.5));
#1500 = DIRECTION('',(0.866025403784,0.25,0.433012701892));
#1501 = FACE_BOUND('',#1502,.T.);
#1502 = EDGE_LOOP('',(#1503));
#1503 = ORIENTED_EDGE('',*,*,#1504,.F.);
#1504 = EDGE_CURVE('',#1505,#1505,#1507,.T.);
#1505 = VERTEX_POINT('',#1506);
#1506 = CARTESIAN_POINT('',(41.783132318889,55.074346400575,
    -38.60843384055));
#1507 = CIRCLE('',#1508,1.7);
#1508 = AXIS2_PLACEMENT_3D('',#1509,#1510,#1511);
#1509 = CARTESIAN_POINT('',(40.310889132455,54.649346400575,
    -39.34455543377));
#1510 = DIRECTION('',(-2.775557561563E-17,-0.866025403784,0.5));
#1511 = DIRECTION('',(0.866025403784,0.25,0.433012701892));
#1512 = FACE_BOUND('',#1513,.T.);
#1513 = EDGE_LOOP('',(#1514));
#1514 = ORIENTED_EDGE('',*,*,#1515,.F.);
#1515 = EDGE_CURVE('',#1516,#1516,#1518,.T.);
#1516 = VERTEX_POINT('',#1517);
#1517 = CARTESIAN_POINT('',(-38.83864594602,54.894854476264,
    -38.91932297301));
#1518 = CIRCLE('',#1519,1.7);
#1519 = AXIS2_PLACEMENT_3D('',#1520,#1521,#1522);
#1520 = CARTESIAN_POINT('',(-40.31088913245,54.469854476264,
    -39.65544456622));
#1521 = DIRECTION('',(-2.775557561563E-17,-0.866025403784,0.5));
#1522 = DIRECTION('',(0.866025403784,0.25,0.433012701892));
#1523 = FACE_BOUND('',#1524,.T.);
#1524 = EDGE_LOOP('',(#1525));
#1525 = ORIENTED_EDGE('',*,*,#1526,.F.);
#1526 = EDGE_CURVE('',#1527,#1527,#1529,.T.);
#1527 = VERTEX_POINT('',#1528);
#1528 = CARTESIAN_POINT('',(21.783132318889,72.394854476264,
    -8.608433840556));
#1529 = CIRCLE('',#1530,1.7);
#1530 = AXIS2_PLACEMENT_3D('',#1531,#1532,#1533);
#1531 = CARTESIAN_POINT('',(20.310889132455,71.969854476264,
    -9.344555433772));
#1532 = DIRECTION('',(-2.775557561563E-17,-0.866025403784,0.5));
#1533 = DIRECTION('',(0.866025403784,0.25,0.433012701892));
#1534 = PLANE('',#1535);
#1535 = AXIS2_PLACEMENT_3D('',#1536,#1537,#1538);
#1536 = CARTESIAN_POINT('',(-23.9711431703,30.319219381653,
    -81.48557158515));
#1537 = DIRECTION('',(0.,-0.866025403784,0.5));
#1538 = DIRECTION('',(0.866025403784,0.25,0.433012701892));
#1539 = ADVANCED_FACE('',(#1540),#1558,.T.);
#1540 = FACE_BOUND('',#1541,.T.);
#1541 = EDGE_LOOP('',(#1542,#1550,#1551,#1552));
#1542 = ORIENTED_EDGE('',*,*,#1543,.F.);
#1543 = EDGE_CURVE('',#1415,#1544,#1546,.T.);
#1544 = VERTEX_POINT('',#1545);
#1545 = CARTESIAN_POINT('',(23.9711431703,85.728184725462,-1.51442841485
    ));
#1546 = LINE('',#1547,#1548);
#1547 = CARTESIAN_POINT('',(-53.9711431703,63.228184725462,
    -40.48557158515));
#1548 = VECTOR('',#1549,1.);
#1549 = DIRECTION('',(0.866025403784,0.25,0.433012701892));
#1550 = ORIENTED_EDGE('',*,*,#1422,.T.);
#1551 = ORIENTED_EDGE('',*,*,#1485,.T.);
#1552 = ORIENTED_EDGE('',*,*,#1553,.F.);
#1553 = EDGE_CURVE('',#1544,#1478,#1554,.T.);
#1554 = LINE('',#1555,#1556);
#1555 = CARTESIAN_POINT('',(23.9711431703,85.728184725462,-1.51442841485
    ));
#1556 = VECTOR('',#1557,1.);
#1557 = DIRECTION('',(0.,-0.866025403784,0.5));
#1558 = PLANE('',#1559);
#1559 = AXIS2_PLACEMENT_3D('',#1560,#1561,#1562);
#1560 = CARTESIAN_POINT('',(-53.9711431703,63.228184725462,
    -40.48557158515));
#1561 = DIRECTION('',(-0.5,0.433012701892,0.75));
#1562 = DIRECTION('',(0.,-0.866025403784,0.5));
#1563 = ADVANCED_FACE('',(#1564,#1575,#1586,#1597,#1608),#1619,.F.);
#1564 = FACE_BOUND('',#1565,.F.);
#1565 = EDGE_LOOP('',(#1566,#1567,#1568,#1574));
#1566 = ORIENTED_EDGE('',*,*,#1414,.F.);
#1567 = ORIENTED_EDGE('',*,*,#1444,.T.);
#1568 = ORIENTED_EDGE('',*,*,#1569,.T.);
#1569 = EDGE_CURVE('',#1445,#1544,#1570,.T.);
#1570 = LINE('',#1571,#1572);
#1571 = CARTESIAN_POINT('',(53.9711431703,59.747422611929,
    -46.51442841485));
#1572 = VECTOR('',#1573,1.);
#1573 = DIRECTION('',(-0.5,0.433012701892,0.75));
#1574 = ORIENTED_EDGE('',*,*,#1543,.F.);
#1575 = FACE_BOUND('',#1576,.F.);
#1576 = EDGE_LOOP('',(#1577));
#1577 = ORIENTED_EDGE('',*,*,#1578,.F.);
#1578 = EDGE_CURVE('',#1579,#1579,#1581,.T.);
#1579 = VERTEX_POINT('',#1580);
#1580 = CARTESIAN_POINT('',(-18.83864594602,44.502549630851,
    -72.91932297301));
#1581 = CIRCLE('',#1582,1.7);
#1582 = AXIS2_PLACEMENT_3D('',#1583,#1584,#1585);
#1583 = CARTESIAN_POINT('',(-20.31088913245,44.077549630851,
    -73.65544456622));
#1584 = DIRECTION('',(-2.775557561563E-17,-0.866025403784,0.5));
#1585 = DIRECTION('',(0.866025403784,0.25,0.433012701892));
#1586 = FACE_BOUND('',#1587,.F.);
#1587 = EDGE_LOOP('',(#1588));
#1588 = ORIENTED_EDGE('',*,*,#1589,.F.);
#1589 = EDGE_CURVE('',#1590,#1590,#1592,.T.);
#1590 = VERTEX_POINT('',#1591);
#1591 = CARTESIAN_POINT('',(41.783132318889,62.002549630851,
    -42.60843384055));
#1592 = CIRCLE('',#1593,1.7);
#1593 = AXIS2_PLACEMENT_3D('',#1594,#1595,#1596);
#1594 = CARTESIAN_POINT('',(40.310889132455,61.577549630851,
    -43.34455543377));
#1595 = DIRECTION('',(-2.775557561563E-17,-0.866025403784,0.5));
#1596 = DIRECTION('',(0.866025403784,0.25,0.433012701892));
#1597 = FACE_BOUND('',#1598,.F.);
#1598 = EDGE_LOOP('',(#1599));
#1599 = ORIENTED_EDGE('',*,*,#1600,.F.);
#1600 = EDGE_CURVE('',#1601,#1601,#1603,.T.);
#1601 = VERTEX_POINT('',#1602);
#1602 = CARTESIAN_POINT('',(-38.83864594602,61.82305770654,
    -42.91932297301));
#1603 = CIRCLE('',#1604,1.7);
#1604 = AXIS2_PLACEMENT_3D('',#1605,#1606,#1607);
#1605 = CARTESIAN_POINT('',(-40.31088913245,61.39805770654,
    -43.65544456622));
#1606 = DIRECTION('',(-2.775557561563E-17,-0.866025403784,0.5));
#1607 = DIRECTION('',(0.866025403784,0.25,0.433012701892));
#1608 = FACE_BOUND('',#1609,.F.);
#1609 = EDGE_LOOP('',(#1610));
#1610 = ORIENTED_EDGE('',*,*,#1611,.F.);
#1611 = EDGE_CURVE('',#1612,#1612,#1614,.T.);
#1612 = VERTEX_POINT('',#1613);
#1613 = CARTESIAN_POINT('',(21.783132318889,79.32305770654,
    -12.60843384055));
#1614 = CIRCLE('',#1615,1.7);
#1615 = AXIS2_PLACEMENT_3D('',#1616,#1617,#1618);
#1616 = CARTESIAN_POINT('',(20.310889132455,78.89805770654,
    -13.34455543377));
#1617 = DIRECTION('',(-2.775557561563E-17,-0.866025403784,0.5));
#1618 = DIRECTION('',(0.866025403784,0.25,0.433012701892));
#1619 = PLANE('',#1620);
#1620 = AXIS2_PLACEMENT_3D('',#1621,#1622,#1623);
#1621 = CARTESIAN_POINT('',(-23.9711431703,37.247422611929,
    -85.48557158515));
#1622 = DIRECTION('',(0.,-0.866025403784,0.5));
#1623 = DIRECTION('',(0.866025403784,0.25,0.433012701892));
#1624 = ADVANCED_FACE('',(#1625),#1631,.T.);
#1625 = FACE_BOUND('',#1626,.T.);
#1626 = EDGE_LOOP('',(#1627,#1628,#1629,#1630));
#1627 = ORIENTED_EDGE('',*,*,#1461,.F.);
#1628 = ORIENTED_EDGE('',*,*,#1569,.T.);
#1629 = ORIENTED_EDGE('',*,*,#1553,.T.);
#1630 = ORIENTED_EDGE('',*,*,#1477,.F.);
#1631 = PLANE('',#1632);
#1632 = AXIS2_PLACEMENT_3D('',#1633,#1634,#1635);
#1633 = CARTESIAN_POINT('',(53.9711431703,59.747422611929,
    -46.51442841485));
#1634 = DIRECTION('',(0.866025403784,0.25,0.433012701892));
#1635 = DIRECTION('',(0.,-0.866025403784,0.5));
#1636 = ADVANCED_FACE('',(#1637),#1648,.F.);
#1637 = FACE_BOUND('',#1638,.F.);
#1638 = EDGE_LOOP('',(#1639,#1640,#1646,#1647));
#1639 = ORIENTED_EDGE('',*,*,#1493,.F.);
#1640 = ORIENTED_EDGE('',*,*,#1641,.F.);
#1641 = EDGE_CURVE('',#1579,#1494,#1642,.T.);
#1642 = LINE('',#1643,#1644);
#1643 = CARTESIAN_POINT('',(-18.83864594602,44.502549630851,
    -72.91932297301));
#1644 = VECTOR('',#1645,1.);
#1645 = DIRECTION('',(0.,-0.866025403784,0.5));
#1646 = ORIENTED_EDGE('',*,*,#1578,.T.);
#1647 = ORIENTED_EDGE('',*,*,#1641,.T.);
#1648 = CYLINDRICAL_SURFACE('',#1649,1.7);
#1649 = AXIS2_PLACEMENT_3D('',#1650,#1651,#1652);
#1650 = CARTESIAN_POINT('',(-20.31088913245,44.077549630851,
    -73.65544456622));
#1651 = DIRECTION('',(0.,-0.866025403784,0.5));
#1652 = DIRECTION('',(0.866025403784,0.25,0.433012701892));
#1653 = ADVANCED_FACE('',(#1654),#1665,.F.);
#1654 = FACE_BOUND('',#1655,.F.);
#1655 = EDGE_LOOP('',(#1656,#1657,#1663,#1664));
#1656 = ORIENTED_EDGE('',*,*,#1504,.F.);
#1657 = ORIENTED_EDGE('',*,*,#1658,.F.);
#1658 = EDGE_CURVE('',#1590,#1505,#1659,.T.);
#1659 = LINE('',#1660,#1661);
#1660 = CARTESIAN_POINT('',(41.783132318889,62.002549630851,
    -42.60843384055));
#1661 = VECTOR('',#1662,1.);
#1662 = DIRECTION('',(0.,-0.866025403784,0.5));
#1663 = ORIENTED_EDGE('',*,*,#1589,.T.);
#1664 = ORIENTED_EDGE('',*,*,#1658,.T.);
#1665 = CYLINDRICAL_SURFACE('',#1666,1.7);
#1666 = AXIS2_PLACEMENT_3D('',#1667,#1668,#1669);
#1667 = CARTESIAN_POINT('',(40.310889132455,61.577549630851,
    -43.34455543377));
#1668 = DIRECTION('',(0.,-0.866025403784,0.5));
#1669 = DIRECTION('',(0.866025403784,0.25,0.433012701892));
#1670 = ADVANCED_FACE('',(#1671),#1682,.F.);
#1671 = FACE_BOUND('',#1672,.F.);
#1672 = EDGE_LOOP('',(#1673,#1674,#1680,#1681));
#1673 = ORIENTED_EDGE('',*,*,#1515,.F.);
#1674 = ORIENTED_EDGE('',*,*,#1675,.F.);
#1675 = EDGE_CURVE('',#1601,#1516,#1676,.T.);
#1676 = LINE('',#1677,#1678);
#1677 = CARTESIAN_POINT('',(-38.83864594602,61.82305770654,
    -42.91932297301));
#1678 = VECTOR('',#1679,1.);
#1679 = DIRECTION('',(0.,-0.866025403784,0.5));
#1680 = ORIENTED_EDGE('',*,*,#1600,.T.);
#1681 = ORIENTED_EDGE('',*,*,#1675,.T.);
#1682 = CYLINDRICAL_SURFACE('',#1683,1.7);
#1683 = AXIS2_PLACEMENT_3D('',#1684,#1685,#1686);
#1684 = CARTESIAN_POINT('',(-40.31088913245,61.39805770654,
    -43.65544456622));
#1685 = DIRECTION('',(0.,-0.866025403784,0.5));
#1686 = DIRECTION('',(0.866025403784,0.25,0.433012701892));
#1687 = ADVANCED_FACE('',(#1688),#1699,.F.);
#1688 = FACE_BOUND('',#1689,.F.);
#1689 = EDGE_LOOP('',(#1690,#1691,#1697,#1698));
#1690 = ORIENTED_EDGE('',*,*,#1526,.F.);
#1691 = ORIENTED_EDGE('',*,*,#1692,.F.);
#1692 = EDGE_CURVE('',#1612,#1527,#1693,.T.);
#1693 = LINE('',#1694,#1695);
#1694 = CARTESIAN_POINT('',(21.783132318889,79.32305770654,
    -12.60843384055));
#1695 = VECTOR('',#1696,1.);
#1696 = DIRECTION('',(0.,-0.866025403784,0.5));
#1697 = ORIENTED_EDGE('',*,*,#1611,.T.);
#1698 = ORIENTED_EDGE('',*,*,#1692,.T.);
#1699 = CYLINDRICAL_SURFACE('',#1700,1.7);
#1700 = AXIS2_PLACEMENT_3D('',#1701,#1702,#1703);
#1701 = CARTESIAN_POINT('',(20.310889132455,78.89805770654,
    -13.34455543377));
#1702 = DIRECTION('',(0.,-0.866025403784,0.5));
#1703 = DIRECTION('',(0.866025403784,0.25,0.433012701892));
#1704 = ( GEOMETRIC_REPRESENTATION_CONTEXT(3) 
GLOBAL_UNCERTAINTY_ASSIGNED_CONTEXT((#1708)) 
GLOBAL_UNIT_ASSIGNED_CONTEXT((#1705,#1706,#1707)) REPRESENTATION_CONTEXT
('Context #1','3D Context with UNIT and UNCERTAINTY') );
#1705 = ( LENGTH_UNIT() NAMED_UNIT(*) SI_UNIT(.MILLI.,.METRE.) );
#1706 = ( NAMED_UNIT(*) PLANE_ANGLE_UNIT() SI_UNIT($,.RADIAN.) );
#1707 = ( NAMED_UNIT(*) SI_UNIT($,.STERADIAN.) SOLID_ANGLE_UNIT() );
#1708 = UNCERTAINTY_MEASURE_WITH_UNIT(LENGTH_MEASURE(1.E-07),#1705,
  'distance_accuracy_value','confusion accuracy');
#1709 = PRODUCT_RELATED_PRODUCT_CATEGORY('part',$,(#7));
ENDSEC;
END-ISO-10303-21;
